G04*
G04 #@! TF.GenerationSoftware,Altium Limited,Altium Designer,24.0.1 (36)*
G04*
G04 Layer_Color=8421504*
%FSLAX44Y44*%
%MOMM*%
G71*
G04*
G04 #@! TF.SameCoordinates,B8DB1BF3-7387-46EC-A14D-9CE900C50DFE*
G04*
G04*
G04 #@! TF.FilePolarity,Positive*
G04*
G01*
G75*
%ADD18R,0.9800X0.8700*%
%ADD19R,0.6096X0.7874*%
%ADD20R,0.7874X0.6096*%
G04:AMPARAMS|DCode=21|XSize=1.9mm|YSize=0.4mm|CornerRadius=0.024mm|HoleSize=0mm|Usage=FLASHONLY|Rotation=180.000|XOffset=0mm|YOffset=0mm|HoleType=Round|Shape=RoundedRectangle|*
%AMROUNDEDRECTD21*
21,1,1.9000,0.3520,0,0,180.0*
21,1,1.8520,0.4000,0,0,180.0*
1,1,0.0480,-0.9260,0.1760*
1,1,0.0480,0.9260,0.1760*
1,1,0.0480,0.9260,-0.1760*
1,1,0.0480,-0.9260,-0.1760*
%
%ADD21ROUNDEDRECTD21*%
%ADD22R,1.4000X1.1500*%
%ADD23R,1.3208X0.5588*%
%ADD24R,0.8020X0.9720*%
%ADD25R,0.8968X0.4468*%
%ADD26R,1.1051X1.0062*%
D18*
X130763Y181700D02*
D03*
Y165700D02*
D03*
D19*
X220309Y173700D02*
D03*
X203291D02*
D03*
X414861Y444000D02*
D03*
X397843D02*
D03*
X536609Y343521D02*
D03*
X519591D02*
D03*
X536609Y333050D02*
D03*
X519591D02*
D03*
X419791Y333050D02*
D03*
X419791Y343521D02*
D03*
X436809Y333050D02*
D03*
X436809Y343521D02*
D03*
X347009Y344671D02*
D03*
X329991D02*
D03*
X329991Y334200D02*
D03*
X347009D02*
D03*
X428409Y497100D02*
D03*
X411391D02*
D03*
X354691Y295300D02*
D03*
X371709D02*
D03*
X383009Y399000D02*
D03*
X365991D02*
D03*
X260691Y472300D02*
D03*
X277709D02*
D03*
X461509Y294150D02*
D03*
X444491D02*
D03*
X561309Y294150D02*
D03*
X544291D02*
D03*
D20*
X26100Y178309D02*
D03*
Y161291D02*
D03*
X390988Y412308D02*
D03*
Y429326D02*
D03*
X276416Y420615D02*
D03*
Y437633D02*
D03*
D21*
X294837Y414317D02*
D03*
Y420817D02*
D03*
Y427317D02*
D03*
Y433817D02*
D03*
Y440317D02*
D03*
Y446817D02*
D03*
Y453317D02*
D03*
Y459817D02*
D03*
Y466317D02*
D03*
Y472817D02*
D03*
Y479317D02*
D03*
Y485817D02*
D03*
Y492317D02*
D03*
Y498817D02*
D03*
X364937D02*
D03*
Y492317D02*
D03*
Y485817D02*
D03*
Y479317D02*
D03*
Y472817D02*
D03*
Y466317D02*
D03*
Y459817D02*
D03*
Y453317D02*
D03*
Y446817D02*
D03*
Y440317D02*
D03*
Y433817D02*
D03*
Y427317D02*
D03*
Y420817D02*
D03*
Y414317D02*
D03*
D22*
X407100Y479917D02*
D03*
X429100D02*
D03*
Y463917D02*
D03*
X407100D02*
D03*
D23*
X432226Y411317D02*
D03*
Y430317D02*
D03*
X408350Y420817D02*
D03*
D24*
X364600Y265950D02*
D03*
X374100Y283650D02*
D03*
X355100D02*
D03*
X444900Y282500D02*
D03*
X463900D02*
D03*
X454400Y264800D02*
D03*
X544700Y282500D02*
D03*
X563700D02*
D03*
X554200Y264800D02*
D03*
D25*
X317600Y319600D02*
D03*
Y310100D02*
D03*
Y300600D02*
D03*
X341600D02*
D03*
Y319600D02*
D03*
X431400Y318450D02*
D03*
Y299450D02*
D03*
X407400D02*
D03*
Y308950D02*
D03*
Y318450D02*
D03*
X531200Y318450D02*
D03*
Y299450D02*
D03*
X507200D02*
D03*
Y308950D02*
D03*
Y318450D02*
D03*
D26*
X181654Y22600D02*
D03*
X195665D02*
D03*
X218989D02*
D03*
X233000D02*
D03*
M02*
