G04*
G04 #@! TF.GenerationSoftware,Altium Limited,Altium Designer,24.0.1 (36)*
G04*
G04 Layer_Color=255*
%FSLAX44Y44*%
%MOMM*%
G71*
G04*
G04 #@! TF.SameCoordinates,B8DB1BF3-7387-46EC-A14D-9CE900C50DFE*
G04*
G04*
G04 #@! TF.FilePolarity,Positive*
G04*
G01*
G75*
%ADD44C,2.1500*%
%ADD45R,2.1500X2.1500*%
%ADD50R,2.0000X1.6000*%
%ADD51O,2.0000X1.6000*%
%ADD52C,3.5560*%
%ADD53C,2.0320*%
%ADD54O,3.7000X5.7000*%
%ADD55C,1.5080*%
%ADD56R,1.5080X1.5080*%
%ADD57C,3.0500*%
%ADD58C,2.7750*%
%ADD59R,2.7750X2.7750*%
%ADD60C,1.3500*%
%ADD61R,1.3500X1.3500*%
D44*
X479100Y93300D02*
D03*
Y51300D02*
D03*
X424100Y93300D02*
D03*
D45*
Y51300D02*
D03*
D50*
X200500Y239600D02*
D03*
X59530D02*
D03*
D51*
X200500Y265000D02*
D03*
Y290400D02*
D03*
Y468200D02*
D03*
Y493600D02*
D03*
X59530Y519000D02*
D03*
X200500Y341200D02*
D03*
X59530Y595200D02*
D03*
Y569800D02*
D03*
Y544400D02*
D03*
Y493600D02*
D03*
Y468200D02*
D03*
Y442800D02*
D03*
Y417400D02*
D03*
Y392000D02*
D03*
Y366600D02*
D03*
Y341200D02*
D03*
Y315800D02*
D03*
Y290400D02*
D03*
Y265000D02*
D03*
X200500Y595200D02*
D03*
Y569800D02*
D03*
Y544400D02*
D03*
Y519000D02*
D03*
Y442800D02*
D03*
Y417400D02*
D03*
Y392000D02*
D03*
Y366600D02*
D03*
Y315800D02*
D03*
D52*
X90345Y197400D02*
D03*
Y142400D02*
D03*
D53*
Y69400D02*
D03*
D54*
X22900Y581700D02*
D03*
X642800Y38400D02*
D03*
X645100Y582000D02*
D03*
X23000Y32300D02*
D03*
D55*
X227000Y60700D02*
D03*
X201600D02*
D03*
D56*
X176200D02*
D03*
D57*
X597300Y419500D02*
D03*
D58*
X469300Y398500D02*
D03*
Y440500D02*
D03*
X524300Y398500D02*
D03*
D59*
Y440500D02*
D03*
D60*
X364300Y156800D02*
D03*
X454400Y156800D02*
D03*
X554199Y156800D02*
D03*
D61*
X364300Y246800D02*
D03*
X454400Y246800D02*
D03*
X554199Y246800D02*
D03*
M02*
