G04*
G04 #@! TF.GenerationSoftware,Altium Limited,Altium Designer,23.6.0 (18)*
G04*
G04 Layer_Physical_Order=2*
G04 Layer_Color=16711680*
%FSLAX44Y44*%
%MOMM*%
G71*
G04*
G04 #@! TF.SameCoordinates,002E3AE9-4B00-44C7-B55F-2903AD9EE070*
G04*
G04*
G04 #@! TF.FilePolarity,Positive*
G04*
G01*
G75*
%ADD14C,0.2540*%
%ADD35C,1.4140*%
%ADD36R,1.4140X1.4140*%
%ADD40R,2.1500X2.1500*%
%ADD41C,2.1500*%
%ADD51O,3.7000X5.7000*%
%ADD52C,3.5560*%
%ADD53C,2.0320*%
%ADD54C,3.0500*%
%ADD55C,2.7750*%
%ADD56R,2.7750X2.7750*%
%ADD57C,1.5080*%
%ADD58R,1.5080X1.5080*%
%ADD59R,1.3500X1.3500*%
%ADD60C,1.3500*%
%ADD61C,0.6096*%
G36*
X575000Y533000D02*
Y97100D01*
X504494Y19400D01*
X83612D01*
X15272Y87740D01*
Y533000D01*
X55004Y566031D01*
X55181Y565928D01*
X57302Y565360D01*
X59498D01*
X61619Y565928D01*
X63521Y567026D01*
X65074Y568579D01*
X66172Y570481D01*
X66740Y572602D01*
Y574798D01*
X66523Y575607D01*
X90974Y595934D01*
X203014D01*
X203029Y595881D01*
X204126Y593979D01*
X205679Y592426D01*
X207581Y591329D01*
X209702Y590760D01*
X211898D01*
X214019Y591329D01*
X215921Y592426D01*
X217474Y593979D01*
X218572Y595881D01*
X218586Y595934D01*
X509362D01*
X575000Y533000D01*
D02*
G37*
%LPC*%
G36*
X211898Y582040D02*
X209702D01*
X207581Y581472D01*
X205679Y580374D01*
X204126Y578821D01*
X203029Y576919D01*
X202460Y574798D01*
Y572602D01*
X203029Y570481D01*
X204126Y568579D01*
X205679Y567026D01*
X207581Y565928D01*
X209702Y565360D01*
X211898D01*
X214019Y565928D01*
X215921Y567026D01*
X217474Y568579D01*
X218572Y570481D01*
X219140Y572602D01*
Y574798D01*
X218572Y576919D01*
X217474Y578821D01*
X215921Y580374D01*
X214019Y581472D01*
X211898Y582040D01*
D02*
G37*
G36*
Y556640D02*
X209702D01*
X207581Y556072D01*
X205679Y554974D01*
X204126Y553421D01*
X203029Y551519D01*
X202460Y549398D01*
Y547202D01*
X203029Y545081D01*
X204126Y543179D01*
X205679Y541627D01*
X207581Y540528D01*
X209702Y539960D01*
X211898D01*
X214019Y540528D01*
X215921Y541627D01*
X217474Y543179D01*
X218572Y545081D01*
X218740Y545710D01*
X265583D01*
X266654Y544639D01*
X268241Y543982D01*
X269959D01*
X271546Y544639D01*
X272761Y545854D01*
X273418Y547441D01*
Y549159D01*
X272761Y550746D01*
X271546Y551961D01*
X269959Y552618D01*
X268241D01*
X266654Y551961D01*
X265583Y550890D01*
X218741D01*
X218572Y551519D01*
X217474Y553421D01*
X215921Y554974D01*
X214019Y556072D01*
X211898Y556640D01*
D02*
G37*
G36*
X59498D02*
X57302D01*
X55181Y556072D01*
X53279Y554974D01*
X51726Y553421D01*
X50629Y551519D01*
X50060Y549398D01*
Y547202D01*
X50629Y545081D01*
X51726Y543179D01*
X53279Y541627D01*
X55181Y540528D01*
X57302Y539960D01*
X59498D01*
X61619Y540528D01*
X63521Y541627D01*
X65074Y543179D01*
X66172Y545081D01*
X66740Y547202D01*
Y549398D01*
X66172Y551519D01*
X65074Y553421D01*
X63521Y554974D01*
X61619Y556072D01*
X59498Y556640D01*
D02*
G37*
G36*
X517492Y558145D02*
X514508D01*
X511582Y557563D01*
X508826Y556422D01*
X506346Y554764D01*
X504236Y552655D01*
X502579Y550174D01*
X501437Y547418D01*
X500855Y544492D01*
Y541508D01*
X501437Y538582D01*
X502579Y535826D01*
X504236Y533346D01*
X506346Y531236D01*
X508826Y529579D01*
X511582Y528437D01*
X514508Y527855D01*
X517492D01*
X520418Y528437D01*
X523174Y529579D01*
X525654Y531236D01*
X527764Y533346D01*
X529421Y535826D01*
X530563Y538582D01*
X531145Y541508D01*
Y544492D01*
X530563Y547418D01*
X529421Y550174D01*
X527764Y552655D01*
X525654Y554764D01*
X523174Y556422D01*
X520418Y557563D01*
X517492Y558145D01*
D02*
G37*
G36*
X489145D02*
X458855D01*
Y527855D01*
X489145D01*
Y558145D01*
D02*
G37*
G36*
X211898Y531240D02*
X209702D01*
X207581Y530672D01*
X205679Y529574D01*
X204126Y528021D01*
X203029Y526119D01*
X202460Y523998D01*
Y521802D01*
X203029Y519681D01*
X204126Y517779D01*
X205679Y516227D01*
X207581Y515129D01*
X209702Y514560D01*
X211898D01*
X214019Y515129D01*
X215921Y516227D01*
X217474Y517779D01*
X218572Y519681D01*
X219140Y521802D01*
Y523998D01*
X218572Y526119D01*
X217474Y528021D01*
X215921Y529574D01*
X214019Y530672D01*
X211898Y531240D01*
D02*
G37*
G36*
X59498D02*
X57302D01*
X55181Y530672D01*
X53279Y529574D01*
X51726Y528021D01*
X50629Y526119D01*
X50060Y523998D01*
Y521802D01*
X50629Y519681D01*
X51726Y517779D01*
X53279Y516227D01*
X55181Y515129D01*
X57302Y514560D01*
X59498D01*
X61619Y515129D01*
X63521Y516227D01*
X65074Y517779D01*
X66172Y519681D01*
X66740Y521802D01*
Y523998D01*
X66172Y526119D01*
X65074Y528021D01*
X63521Y529574D01*
X61619Y530672D01*
X59498Y531240D01*
D02*
G37*
G36*
X211898Y505840D02*
X209702D01*
X207581Y505272D01*
X205679Y504174D01*
X204126Y502621D01*
X203029Y500719D01*
X202460Y498598D01*
Y496402D01*
X203029Y494281D01*
X204126Y492379D01*
X205679Y490826D01*
X207581Y489729D01*
X209702Y489160D01*
X211898D01*
X214019Y489729D01*
X215921Y490826D01*
X217474Y492379D01*
X218572Y494281D01*
X219140Y496402D01*
Y498598D01*
X218572Y500719D01*
X217474Y502621D01*
X215921Y504174D01*
X214019Y505272D01*
X211898Y505840D01*
D02*
G37*
G36*
X59498D02*
X57302D01*
X55181Y505272D01*
X53279Y504174D01*
X51726Y502621D01*
X50629Y500719D01*
X50060Y498598D01*
Y496402D01*
X50629Y494281D01*
X51726Y492379D01*
X53279Y490826D01*
X55181Y489729D01*
X57302Y489160D01*
X59498D01*
X61619Y489729D01*
X63521Y490826D01*
X65074Y492379D01*
X66172Y494281D01*
X66740Y496402D01*
Y498598D01*
X66172Y500719D01*
X65074Y502621D01*
X63521Y504174D01*
X61619Y505272D01*
X59498Y505840D01*
D02*
G37*
G36*
X272355Y480218D02*
X270638D01*
X269051Y479560D01*
X267980Y478489D01*
X261217D01*
X260146Y479560D01*
X258559Y480218D01*
X256841D01*
X255254Y479560D01*
X254039Y478346D01*
X253382Y476759D01*
Y475041D01*
X254039Y473454D01*
X255254Y472239D01*
X256841Y471582D01*
X258559D01*
X260146Y472239D01*
X261217Y473310D01*
X267980D01*
X269051Y472239D01*
X270638Y471582D01*
X272355D01*
X273943Y472239D01*
X275157Y473454D01*
X275814Y475041D01*
Y476759D01*
X275157Y478346D01*
X273943Y479560D01*
X272355Y480218D01*
D02*
G37*
G36*
X517492Y503145D02*
X514508D01*
X511582Y502563D01*
X508826Y501421D01*
X506346Y499764D01*
X504236Y497654D01*
X502579Y495174D01*
X501437Y492418D01*
X500855Y489492D01*
Y486508D01*
X501437Y483582D01*
X502579Y480826D01*
X504236Y478346D01*
X506346Y476236D01*
X508826Y474579D01*
X511582Y473437D01*
X514508Y472855D01*
X517492D01*
X520418Y473437D01*
X523174Y474579D01*
X525654Y476236D01*
X527764Y478346D01*
X529421Y480826D01*
X530563Y483582D01*
X531145Y486508D01*
Y489492D01*
X530563Y492418D01*
X529421Y495174D01*
X527764Y497654D01*
X525654Y499764D01*
X523174Y501421D01*
X520418Y502563D01*
X517492Y503145D01*
D02*
G37*
G36*
X475492D02*
X472508D01*
X469582Y502563D01*
X466826Y501421D01*
X464346Y499764D01*
X462236Y497654D01*
X460579Y495174D01*
X459437Y492418D01*
X458855Y489492D01*
Y486508D01*
X459437Y483582D01*
X460579Y480826D01*
X462236Y478346D01*
X464346Y476236D01*
X466826Y474579D01*
X469582Y473437D01*
X472508Y472855D01*
X475492D01*
X478418Y473437D01*
X481174Y474579D01*
X483655Y476236D01*
X485764Y478346D01*
X487421Y480826D01*
X488563Y483582D01*
X489145Y486508D01*
Y489492D01*
X488563Y492418D01*
X487421Y495174D01*
X485764Y497654D01*
X483655Y499764D01*
X481174Y501421D01*
X478418Y502563D01*
X475492Y503145D01*
D02*
G37*
G36*
X211898Y480440D02*
X209702D01*
X207581Y479872D01*
X205679Y478774D01*
X204126Y477221D01*
X203029Y475319D01*
X202460Y473198D01*
Y471002D01*
X203029Y468881D01*
X204126Y466979D01*
X205679Y465426D01*
X207581Y464328D01*
X209702Y463760D01*
X211898D01*
X214019Y464328D01*
X215921Y465426D01*
X217474Y466979D01*
X218572Y468881D01*
X219140Y471002D01*
Y473198D01*
X218572Y475319D01*
X217474Y477221D01*
X215921Y478774D01*
X214019Y479872D01*
X211898Y480440D01*
D02*
G37*
G36*
X59498D02*
X57302D01*
X55181Y479872D01*
X53279Y478774D01*
X51726Y477221D01*
X50629Y475319D01*
X50060Y473198D01*
Y471002D01*
X50629Y468881D01*
X51726Y466979D01*
X53279Y465426D01*
X55181Y464328D01*
X57302Y463760D01*
X59498D01*
X61619Y464328D01*
X63521Y465426D01*
X65074Y466979D01*
X66172Y468881D01*
X66740Y471002D01*
Y473198D01*
X66172Y475319D01*
X65074Y477221D01*
X63521Y478774D01*
X61619Y479872D01*
X59498Y480440D01*
D02*
G37*
G36*
X211898Y455040D02*
X209702D01*
X207581Y454472D01*
X205679Y453374D01*
X204126Y451821D01*
X203029Y449919D01*
X202460Y447798D01*
Y445602D01*
X203029Y443481D01*
X204126Y441579D01*
X205679Y440027D01*
X207581Y438928D01*
X209702Y438360D01*
X211898D01*
X214019Y438928D01*
X215921Y440027D01*
X217474Y441579D01*
X218572Y443481D01*
X219140Y445602D01*
Y447798D01*
X218572Y449919D01*
X217474Y451821D01*
X215921Y453374D01*
X214019Y454472D01*
X211898Y455040D01*
D02*
G37*
G36*
X59498D02*
X57302D01*
X55181Y454472D01*
X53279Y453374D01*
X51726Y451821D01*
X50629Y449919D01*
X50060Y447798D01*
Y445602D01*
X50629Y443481D01*
X51726Y441579D01*
X53279Y440027D01*
X55181Y438928D01*
X57302Y438360D01*
X59498D01*
X61619Y438928D01*
X63521Y440027D01*
X65074Y441579D01*
X66172Y443481D01*
X66740Y445602D01*
Y447798D01*
X66172Y449919D01*
X65074Y451821D01*
X63521Y453374D01*
X61619Y454472D01*
X59498Y455040D01*
D02*
G37*
G36*
X328117Y468518D02*
X326399D01*
X324812Y467861D01*
X323597Y466646D01*
X322940Y465059D01*
Y463674D01*
X285985Y426718D01*
X284341D01*
X282754Y426061D01*
X281539Y424846D01*
X280882Y423259D01*
Y421541D01*
X281539Y419954D01*
X282754Y418739D01*
X284341Y418082D01*
X286059D01*
X287646Y418739D01*
X288861Y419954D01*
X289170Y420701D01*
X289519Y420741D01*
X290492Y420575D01*
X291039Y419254D01*
X292254Y418039D01*
X293841Y417382D01*
X295559D01*
X297146Y418039D01*
X298361Y419254D01*
X298812Y420344D01*
X299835Y420261D01*
X300113Y420166D01*
X300739Y418654D01*
X301954Y417439D01*
X303541Y416782D01*
X305259D01*
X306846Y417439D01*
X308061Y418654D01*
X308139Y418843D01*
X309513D01*
X309881Y417954D01*
X311096Y416739D01*
X312683Y416082D01*
X314401D01*
X315988Y416739D01*
X317203Y417954D01*
X317860Y419541D01*
Y421259D01*
X317420Y422322D01*
X317478Y422613D01*
X326707Y431842D01*
X328221D01*
X329808Y432499D01*
X331023Y433714D01*
X331680Y435301D01*
Y437019D01*
X331023Y438605D01*
X329808Y439820D01*
X329488Y439953D01*
Y441327D01*
X329742Y441432D01*
X330957Y442647D01*
X331614Y444234D01*
Y445952D01*
X330957Y447539D01*
X329742Y448754D01*
X329468Y448867D01*
Y450242D01*
X329704Y450339D01*
X330919Y451554D01*
X331576Y453141D01*
Y454859D01*
X330919Y456446D01*
X329704Y457661D01*
X328117Y458318D01*
X327816D01*
X327070Y459588D01*
X327220Y459856D01*
X327263Y459882D01*
X328117D01*
X329704Y460539D01*
X330919Y461754D01*
X331576Y463341D01*
Y465059D01*
X330919Y466646D01*
X329704Y467861D01*
X328117Y468518D01*
D02*
G37*
G36*
X211898Y429640D02*
X209702D01*
X207581Y429072D01*
X205679Y427974D01*
X204126Y426421D01*
X203029Y424519D01*
X202460Y422398D01*
Y420202D01*
X203029Y418081D01*
X204126Y416179D01*
X205679Y414627D01*
X207581Y413529D01*
X209702Y412960D01*
X211898D01*
X214019Y413529D01*
X215921Y414627D01*
X217474Y416179D01*
X218572Y418081D01*
X219140Y420202D01*
Y422398D01*
X218572Y424519D01*
X217474Y426421D01*
X215921Y427974D01*
X214019Y429072D01*
X211898Y429640D01*
D02*
G37*
G36*
X59498D02*
X57302D01*
X55181Y429072D01*
X53279Y427974D01*
X51726Y426421D01*
X50629Y424519D01*
X50060Y422398D01*
Y420202D01*
X50629Y418081D01*
X51726Y416179D01*
X53279Y414627D01*
X55181Y413529D01*
X57302Y412960D01*
X59498D01*
X61619Y413529D01*
X63521Y414627D01*
X65074Y416179D01*
X66172Y418081D01*
X66740Y420202D01*
Y422398D01*
X66172Y424519D01*
X65074Y426421D01*
X63521Y427974D01*
X61619Y429072D01*
X59498Y429640D01*
D02*
G37*
G36*
X211898Y404240D02*
X209702D01*
X207581Y403672D01*
X205679Y402574D01*
X204126Y401021D01*
X203029Y399119D01*
X202460Y396998D01*
Y394802D01*
X203029Y392681D01*
X204126Y390779D01*
X205679Y389226D01*
X207581Y388129D01*
X209702Y387560D01*
X211898D01*
X214019Y388129D01*
X215921Y389226D01*
X217474Y390779D01*
X218572Y392681D01*
X219140Y394802D01*
Y396998D01*
X218572Y399119D01*
X217474Y401021D01*
X215921Y402574D01*
X214019Y403672D01*
X211898Y404240D01*
D02*
G37*
G36*
X59498D02*
X57302D01*
X55181Y403672D01*
X53279Y402574D01*
X51726Y401021D01*
X50629Y399119D01*
X50060Y396998D01*
Y394802D01*
X50629Y392681D01*
X51726Y390779D01*
X53279Y389226D01*
X55181Y388129D01*
X57302Y387560D01*
X59498D01*
X61619Y388129D01*
X63521Y389226D01*
X65074Y390779D01*
X66172Y392681D01*
X66740Y394802D01*
Y396998D01*
X66172Y399119D01*
X65074Y401021D01*
X63521Y402574D01*
X61619Y403672D01*
X59498Y404240D01*
D02*
G37*
G36*
X211898Y378840D02*
X209702D01*
X207581Y378272D01*
X205679Y377174D01*
X204126Y375621D01*
X203029Y373719D01*
X202460Y371598D01*
Y369402D01*
X203029Y367281D01*
X204126Y365379D01*
X205679Y363826D01*
X207581Y362729D01*
X209702Y362160D01*
X211898D01*
X214019Y362729D01*
X215921Y363826D01*
X217474Y365379D01*
X218572Y367281D01*
X219140Y369402D01*
Y371598D01*
X218572Y373719D01*
X217474Y375621D01*
X215921Y377174D01*
X214019Y378272D01*
X211898Y378840D01*
D02*
G37*
G36*
X59498D02*
X57302D01*
X55181Y378272D01*
X53279Y377174D01*
X51726Y375621D01*
X50629Y373719D01*
X50060Y371598D01*
Y369402D01*
X50629Y367281D01*
X51726Y365379D01*
X53279Y363826D01*
X55181Y362729D01*
X57302Y362160D01*
X59498D01*
X61619Y362729D01*
X63521Y363826D01*
X65074Y365379D01*
X66172Y367281D01*
X66740Y369402D01*
Y371598D01*
X66172Y373719D01*
X65074Y375621D01*
X63521Y377174D01*
X61619Y378272D01*
X59498Y378840D01*
D02*
G37*
G36*
Y353440D02*
X57302D01*
X55181Y352872D01*
X53279Y351774D01*
X51726Y350221D01*
X50629Y348319D01*
X50060Y346198D01*
Y344002D01*
X50629Y341881D01*
X51726Y339979D01*
X53279Y338427D01*
X55181Y337328D01*
X57302Y336760D01*
X59498D01*
X61619Y337328D01*
X63521Y338427D01*
X65074Y339979D01*
X66172Y341881D01*
X66740Y344002D01*
Y346198D01*
X66172Y348319D01*
X65074Y350221D01*
X63521Y351774D01*
X61619Y352872D01*
X59498Y353440D01*
D02*
G37*
G36*
X211898Y328040D02*
X209702D01*
X207581Y327472D01*
X205679Y326374D01*
X204126Y324821D01*
X203029Y322919D01*
X202460Y320798D01*
Y318602D01*
X203029Y316481D01*
X204126Y314579D01*
X205679Y313027D01*
X207581Y311929D01*
X209702Y311360D01*
X211898D01*
X214019Y311929D01*
X215921Y313027D01*
X217474Y314579D01*
X218572Y316481D01*
X219140Y318602D01*
Y320798D01*
X218572Y322919D01*
X217474Y324821D01*
X215921Y326374D01*
X214019Y327472D01*
X211898Y328040D01*
D02*
G37*
G36*
X59498D02*
X57302D01*
X55181Y327472D01*
X53279Y326374D01*
X51726Y324821D01*
X50629Y322919D01*
X50060Y320798D01*
Y318602D01*
X50629Y316481D01*
X51726Y314579D01*
X53279Y313027D01*
X55181Y311929D01*
X57302Y311360D01*
X59498D01*
X61619Y311929D01*
X63521Y313027D01*
X65074Y314579D01*
X66172Y316481D01*
X66740Y318602D01*
Y320798D01*
X66172Y322919D01*
X65074Y324821D01*
X63521Y326374D01*
X61619Y327472D01*
X59498Y328040D01*
D02*
G37*
G36*
X211898Y302640D02*
X209702D01*
X207581Y302072D01*
X205679Y300974D01*
X204126Y299421D01*
X203029Y297519D01*
X202460Y295398D01*
Y293202D01*
X203029Y291081D01*
X204126Y289179D01*
X205679Y287626D01*
X207581Y286528D01*
X209702Y285960D01*
X211898D01*
X214019Y286528D01*
X215921Y287626D01*
X217474Y289179D01*
X218572Y291081D01*
X219140Y293202D01*
Y295398D01*
X218572Y297519D01*
X217474Y299421D01*
X215921Y300974D01*
X214019Y302072D01*
X211898Y302640D01*
D02*
G37*
G36*
X219140Y277240D02*
X202460D01*
Y260560D01*
X219140D01*
Y277240D01*
D02*
G37*
G36*
X59498D02*
X57302D01*
X55181Y276672D01*
X53279Y275574D01*
X51726Y274021D01*
X50629Y272119D01*
X50060Y269998D01*
Y267802D01*
X50629Y265681D01*
X51726Y263779D01*
X53279Y262227D01*
X55181Y261129D01*
X57302Y260560D01*
X59498D01*
X61619Y261129D01*
X63521Y262227D01*
X65074Y263779D01*
X66172Y265681D01*
X66740Y267802D01*
Y269998D01*
X66172Y272119D01*
X65074Y274021D01*
X63521Y275574D01*
X61619Y276672D01*
X59498Y277240D01*
D02*
G37*
G36*
X509220Y254820D02*
X493180D01*
Y238780D01*
X509220D01*
Y254820D01*
D02*
G37*
G36*
X420420D02*
X404380D01*
Y238780D01*
X420420D01*
Y254820D01*
D02*
G37*
G36*
X330320D02*
X314280D01*
Y238780D01*
X330320D01*
Y254820D01*
D02*
G37*
G36*
X92221Y216450D02*
X88469D01*
X84788Y215718D01*
X81321Y214282D01*
X78201Y212197D01*
X75548Y209544D01*
X73463Y206424D01*
X72027Y202957D01*
X71295Y199276D01*
Y195524D01*
X72027Y191843D01*
X73463Y188377D01*
X75548Y185257D01*
X78201Y182603D01*
X81321Y180518D01*
X84788Y179082D01*
X88469Y178350D01*
X92221D01*
X95901Y179082D01*
X99368Y180518D01*
X102488Y182603D01*
X105142Y185257D01*
X107227Y188377D01*
X108663Y191843D01*
X109395Y195524D01*
Y199276D01*
X108663Y202957D01*
X107227Y206424D01*
X105142Y209544D01*
X102488Y212197D01*
X99368Y214282D01*
X95901Y215718D01*
X92221Y216450D01*
D02*
G37*
G36*
X502256Y164820D02*
X500144D01*
X498104Y164274D01*
X496275Y163218D01*
X494782Y161725D01*
X493726Y159896D01*
X493180Y157856D01*
Y155744D01*
X493726Y153705D01*
X494782Y151876D01*
X496275Y150383D01*
X498104Y149327D01*
X500144Y148780D01*
X502256D01*
X504295Y149327D01*
X506124Y150383D01*
X507617Y151876D01*
X508673Y153705D01*
X509220Y155744D01*
Y157856D01*
X508673Y159896D01*
X507617Y161725D01*
X506124Y163218D01*
X504295Y164274D01*
X502256Y164820D01*
D02*
G37*
G36*
X413456D02*
X411344D01*
X409304Y164274D01*
X407476Y163218D01*
X405982Y161725D01*
X404926Y159896D01*
X404380Y157856D01*
Y155744D01*
X404926Y153705D01*
X405982Y151876D01*
X407476Y150383D01*
X409304Y149327D01*
X411344Y148780D01*
X413456D01*
X415496Y149327D01*
X417324Y150383D01*
X418818Y151876D01*
X419874Y153705D01*
X420420Y155744D01*
Y157856D01*
X419874Y159896D01*
X418818Y161725D01*
X417324Y163218D01*
X415496Y164274D01*
X413456Y164820D01*
D02*
G37*
G36*
X323356D02*
X321244D01*
X319205Y164274D01*
X317376Y163218D01*
X315882Y161725D01*
X314827Y159896D01*
X314280Y157856D01*
Y155744D01*
X314827Y153705D01*
X315882Y151876D01*
X317376Y150383D01*
X319205Y149327D01*
X321244Y148780D01*
X323356D01*
X325396Y149327D01*
X327225Y150383D01*
X328718Y151876D01*
X329774Y153705D01*
X330320Y155744D01*
Y157856D01*
X329774Y159896D01*
X328718Y161725D01*
X327225Y163218D01*
X325396Y164274D01*
X323356Y164820D01*
D02*
G37*
G36*
X405802Y121701D02*
X402637D01*
X399580Y120882D01*
X396839Y119300D01*
X394602Y117062D01*
X393019Y114321D01*
X392200Y111264D01*
Y108099D01*
X393019Y105042D01*
X394602Y102301D01*
X396839Y100063D01*
X399580Y98480D01*
X402637Y97661D01*
X405802D01*
X408859Y98480D01*
X411600Y100063D01*
X413838Y102301D01*
X415421Y105042D01*
X416240Y108099D01*
Y111264D01*
X415421Y114321D01*
X413838Y117062D01*
X411600Y119300D01*
X408859Y120882D01*
X405802Y121701D01*
D02*
G37*
G36*
X350803D02*
X347638D01*
X344581Y120882D01*
X341840Y119300D01*
X339602Y117062D01*
X338019Y114321D01*
X337200Y111264D01*
Y108099D01*
X338019Y105042D01*
X339602Y102301D01*
X341840Y100063D01*
X344581Y98480D01*
X347638Y97661D01*
X350803D01*
X353860Y98480D01*
X356601Y100063D01*
X358839Y102301D01*
X360421Y105042D01*
X361240Y108099D01*
Y111264D01*
X360421Y114321D01*
X358839Y117062D01*
X356601Y119300D01*
X353860Y120882D01*
X350803Y121701D01*
D02*
G37*
G36*
X230460Y75510D02*
X228140D01*
X225900Y74910D01*
X223891Y73750D01*
X222250Y72110D01*
X221090Y70101D01*
X220490Y67860D01*
Y65540D01*
X221090Y63300D01*
X222250Y61291D01*
X223891Y59650D01*
X225900Y58491D01*
X228140Y57890D01*
X230460D01*
X232701Y58491D01*
X234709Y59650D01*
X236350Y61291D01*
X237510Y63300D01*
X238110Y65540D01*
Y67860D01*
X237510Y70101D01*
X236350Y72110D01*
X234709Y73750D01*
X232701Y74910D01*
X230460Y75510D01*
D02*
G37*
G36*
X187310D02*
X169690D01*
Y57890D01*
X187310D01*
Y75510D01*
D02*
G37*
G36*
X405802Y79701D02*
X402637D01*
X399580Y78882D01*
X396839Y77300D01*
X394602Y75062D01*
X393019Y72321D01*
X392200Y69264D01*
Y66099D01*
X393019Y63042D01*
X394602Y60301D01*
X396839Y58063D01*
X399580Y56480D01*
X402637Y55661D01*
X405802D01*
X408859Y56480D01*
X411600Y58063D01*
X413838Y60301D01*
X415421Y63042D01*
X416240Y66099D01*
Y69264D01*
X415421Y72321D01*
X413838Y75062D01*
X411600Y77300D01*
X408859Y78882D01*
X405802Y79701D01*
D02*
G37*
G36*
X361240D02*
X337200D01*
Y55661D01*
X361240D01*
Y79701D01*
D02*
G37*
G36*
X92072Y86940D02*
X88617D01*
X85229Y86266D01*
X82037Y84944D01*
X79164Y83025D01*
X76720Y80582D01*
X74801Y77709D01*
X73479Y74517D01*
X72805Y71128D01*
Y67673D01*
X73479Y64284D01*
X74801Y61092D01*
X76720Y58219D01*
X79164Y55776D01*
X82037Y53857D01*
X85229Y52534D01*
X88617Y51860D01*
X92072D01*
X95461Y52534D01*
X98653Y53857D01*
X101526Y55776D01*
X103969Y58219D01*
X105889Y61092D01*
X107211Y64284D01*
X107885Y67673D01*
Y71128D01*
X107211Y74517D01*
X105889Y77709D01*
X103969Y80582D01*
X101526Y83025D01*
X98653Y84944D01*
X95461Y86266D01*
X92072Y86940D01*
D02*
G37*
%LPD*%
D14*
X210800Y548300D02*
X269100D01*
X269100Y548300D01*
X313542Y420400D02*
Y421362D01*
X314912Y422732D01*
Y423709D01*
X327362Y436160D01*
X326171Y442871D02*
Y443005D01*
X327296Y444131D02*
Y445093D01*
X326171Y443005D02*
X327296Y444131D01*
X304400Y421100D02*
X326171Y442871D01*
X327129Y454000D02*
X327258D01*
X294829Y421700D02*
X327129Y454000D01*
X294700Y421700D02*
X294829D01*
X285200Y422400D02*
X285329D01*
X327129Y464200D01*
X327258D01*
X210800Y548300D02*
X210800Y548300D01*
X257700Y475900D02*
X271497D01*
D35*
X210800Y472100D02*
D03*
Y497500D02*
D03*
Y522900D02*
D03*
Y548300D02*
D03*
Y599100D02*
D03*
Y624500D02*
D03*
X58400D02*
D03*
X210800Y573700D02*
D03*
X58400Y345100D02*
D03*
Y268900D02*
D03*
Y294300D02*
D03*
Y319700D02*
D03*
Y370500D02*
D03*
Y395900D02*
D03*
Y421300D02*
D03*
Y446700D02*
D03*
Y472100D02*
D03*
Y497500D02*
D03*
Y522900D02*
D03*
Y548300D02*
D03*
Y573700D02*
D03*
Y599100D02*
D03*
X210800Y446700D02*
D03*
Y421300D02*
D03*
Y395900D02*
D03*
Y370500D02*
D03*
Y345100D02*
D03*
Y319700D02*
D03*
Y294300D02*
D03*
D36*
Y268900D02*
D03*
D40*
X349220Y67681D02*
D03*
D41*
Y109681D02*
D03*
X404220Y67681D02*
D03*
Y109681D02*
D03*
D51*
X23000Y652200D02*
D03*
X566300D02*
D03*
X566300Y32300D02*
D03*
X23000D02*
D03*
D52*
X90345Y197400D02*
D03*
Y142400D02*
D03*
D53*
Y69400D02*
D03*
D54*
X495000Y616000D02*
D03*
D55*
X516000Y488000D02*
D03*
X474000D02*
D03*
X516000Y543000D02*
D03*
D56*
X474000D02*
D03*
D57*
X229300Y66700D02*
D03*
X203900D02*
D03*
D58*
X178500D02*
D03*
D59*
X501200Y246800D02*
D03*
X322300D02*
D03*
X412400D02*
D03*
D60*
X501200Y156800D02*
D03*
X322300D02*
D03*
X412400D02*
D03*
D61*
X383017Y488414D02*
D03*
X433200Y508500D02*
D03*
X456700Y338315D02*
D03*
X348871Y495471D02*
D03*
X493900Y414300D02*
D03*
X253599Y495243D02*
D03*
X406659Y542669D02*
D03*
X269100Y548300D02*
D03*
X313542Y420400D02*
D03*
X327362Y436160D02*
D03*
X327296Y445093D02*
D03*
X304400Y421100D02*
D03*
X327258Y454000D02*
D03*
X294700Y421700D02*
D03*
X327258Y464200D02*
D03*
X285200Y422400D02*
D03*
X277665Y338315D02*
D03*
X271497Y475900D02*
D03*
X276229Y467391D02*
D03*
X257700Y475900D02*
D03*
X342664Y418848D02*
D03*
X207300Y43600D02*
D03*
Y34100D02*
D03*
Y25300D02*
D03*
X367900Y338315D02*
D03*
M02*
