G04*
G04 #@! TF.GenerationSoftware,Altium Limited,Altium Designer,23.6.0 (18)*
G04*
G04 Layer_Color=32768*
%FSLAX44Y44*%
%MOMM*%
G71*
G04*
G04 #@! TF.SameCoordinates,002E3AE9-4B00-44C7-B55F-2903AD9EE070*
G04*
G04*
G04 #@! TF.FilePolarity,Positive*
G04*
G01*
G75*
%ADD10C,0.2000*%
D10*
X224500Y229800D02*
Y682650D01*
X44700D02*
X224500D01*
X44700Y229800D02*
Y682650D01*
Y229800D02*
X224500D01*
X382832Y485400D02*
Y523400D01*
X412332D01*
Y485400D02*
Y523400D01*
X382832Y485400D02*
X412332D01*
X323720Y32682D02*
Y146681D01*
X439720D01*
Y32682D02*
Y146681D01*
X323720Y32682D02*
X439720D01*
X519900Y258940D02*
Y288360D01*
X482500Y258940D02*
X519900D01*
X482500D02*
Y288360D01*
X519900D01*
X173629Y28069D02*
Y43131D01*
Y28069D02*
X203691D01*
Y43131D01*
X173629D02*
X203691D01*
X209963Y28069D02*
X240025D01*
X209963D02*
Y43131D01*
X240025D01*
Y28069D02*
Y43131D01*
X341300Y260090D02*
Y289510D01*
X303900Y260090D02*
X341300D01*
X303900D02*
Y289510D01*
X341300D01*
X393700Y288360D02*
X431100D01*
X393700Y258940D02*
Y288360D01*
Y258940D02*
X431100D01*
Y288360D01*
M02*
