G04*
G04 #@! TF.GenerationSoftware,Altium Limited,Altium Designer,23.6.0 (18)*
G04*
G04 Layer_Color=8388736*
%FSLAX44Y44*%
%MOMM*%
G71*
G04*
G04 #@! TF.SameCoordinates,002E3AE9-4B00-44C7-B55F-2903AD9EE070*
G04*
G04*
G04 #@! TF.FilePolarity,Positive*
G04*
G01*
G75*
%ADD10C,0.2000*%
D10*
X223500Y230800D02*
Y681650D01*
X45700D02*
X223500D01*
X45700Y230800D02*
Y681650D01*
Y230800D02*
X223500D01*
X384332Y487650D02*
Y521150D01*
X410832D01*
Y487650D02*
Y521150D01*
X384332Y487650D02*
X410832D01*
X324720Y33681D02*
Y139682D01*
X438720D01*
Y33681D02*
Y139682D01*
X324720Y33681D02*
X438720D01*
X516400Y266650D02*
Y280650D01*
X486000Y266650D02*
X516400D01*
X486000D02*
Y280650D01*
X516400D01*
X180660Y31600D02*
Y39600D01*
Y31600D02*
X196660D01*
Y39600D01*
X180660D02*
X196660D01*
X216994Y31600D02*
X232994D01*
X216994D02*
Y39600D01*
X232994D01*
Y31600D02*
Y39600D01*
X337800Y267800D02*
Y281800D01*
X307400Y267800D02*
X337800D01*
X307400D02*
Y281800D01*
X337800D01*
X397200Y280650D02*
X427600D01*
X397200Y266650D02*
Y280650D01*
Y266650D02*
X427600D01*
Y280650D01*
M02*
