G04*
G04 #@! TF.GenerationSoftware,Altium Limited,Altium Designer,23.6.0 (18)*
G04*
G04 Layer_Color=32768*
%FSLAX44Y44*%
%MOMM*%
G71*
G04*
G04 #@! TF.SameCoordinates,002E3AE9-4B00-44C7-B55F-2903AD9EE070*
G04*
G04*
G04 #@! TF.FilePolarity,Positive*
G04*
G01*
G75*
%ADD12C,0.1524*%
%ADD64C,0.1000*%
%ADD65C,0.0500*%
G36*
X511463Y450291D02*
Y427685D01*
X498763D01*
Y417906D01*
X488603D01*
Y427685D01*
X475903D01*
Y450291D01*
X479104D01*
Y460070D01*
X508263D01*
Y450291D01*
X511463D01*
D02*
G37*
D12*
X479103Y460070D02*
X508263D01*
Y450291D02*
Y460070D01*
X479103Y450291D02*
Y460070D01*
X508263Y450291D02*
X511463D01*
X475903D02*
X479103D01*
X475903Y427685D02*
Y450291D01*
Y427685D02*
X488603D01*
Y417906D02*
Y427685D01*
Y417906D02*
X498763D01*
Y427685D01*
X511463D01*
Y450291D01*
D64*
X496200Y201800D02*
X506200D01*
X501200Y196800D02*
Y206800D01*
X466200Y303950D02*
Y313950D01*
X461200Y308950D02*
X471200D01*
X287600Y305100D02*
Y315100D01*
X282600Y310100D02*
X292600D01*
X322300Y196800D02*
Y206800D01*
X317300Y201800D02*
X327300D01*
X372400Y308950D02*
X382400D01*
X377400Y303950D02*
Y313950D01*
X407400Y201800D02*
X417400D01*
X412400Y196800D02*
Y206800D01*
D65*
X299387Y424567D02*
X360387D01*
X299387D02*
Y432367D01*
X282787D02*
X299387D01*
X282787D02*
Y526767D01*
X299387D01*
Y534567D01*
X360387D01*
Y526767D02*
Y534567D01*
Y526767D02*
X376987D01*
Y432367D02*
Y526767D01*
X360387Y432367D02*
X376987D01*
X360387Y424567D02*
Y432367D01*
X545500Y471600D02*
Y684500D01*
X444500D02*
X545500D01*
X444500Y471600D02*
Y684500D01*
Y471600D02*
X545500D01*
X143900Y44200D02*
Y134200D01*
Y44200D02*
X264900D01*
Y134200D01*
X143900D02*
X264900D01*
X488200Y149050D02*
X514200D01*
Y254550D01*
X488200Y149050D02*
Y254550D01*
X514200D01*
X446200Y290950D02*
X486200D01*
X446200Y326950D02*
X486200D01*
Y290950D02*
Y326950D01*
X446200Y290950D02*
Y326950D01*
X123363Y158850D02*
X138163D01*
X123363Y188550D02*
X138163D01*
Y158850D02*
Y188550D01*
X123363Y158850D02*
Y188550D01*
X267600Y292100D02*
X307600D01*
X267600Y328100D02*
X307600D01*
Y292100D02*
Y328100D01*
X267600Y292100D02*
Y328100D01*
X309300Y254550D02*
X335300D01*
X309300Y149050D02*
Y254550D01*
X335300Y149050D02*
Y254550D01*
X309300Y149050D02*
X335300D01*
X357400Y290950D02*
Y326950D01*
X397400Y290950D02*
Y326950D01*
X357400D02*
X397400D01*
X357400Y290950D02*
X397400D01*
X399400Y149050D02*
X425400D01*
Y254550D01*
X399400Y149050D02*
Y254550D01*
X425400D01*
M02*
