G04*
G04 #@! TF.GenerationSoftware,Altium Limited,Altium Designer,23.6.0 (18)*
G04*
G04 Layer_Color=2752767*
%FSLAX44Y44*%
%MOMM*%
G71*
G04*
G04 #@! TF.SameCoordinates,002E3AE9-4B00-44C7-B55F-2903AD9EE070*
G04*
G04*
G04 #@! TF.FilePolarity,Positive*
G04*
G01*
G75*
%ADD13C,0.1270*%
%ADD66C,0.1693*%
%ADD67C,0.1016*%
D13*
X85265Y192320D02*
Y202480D01*
X95425D01*
Y192320D01*
X85265D01*
X90345Y64320D02*
X85265Y74480D01*
X95425D01*
X90345Y64320D01*
X85265Y137320D02*
Y147480D01*
X95425D01*
Y137320D01*
X85265D01*
X205720Y472100D02*
X210800Y477180D01*
X215880Y472100D01*
X210800Y467020D01*
X205720Y472100D01*
Y497500D02*
X210800Y502580D01*
X215880Y497500D01*
X210800Y492420D01*
X205720Y497500D01*
Y522900D02*
X210800Y527980D01*
X215880Y522900D01*
X210800Y517820D01*
X205720Y522900D01*
Y548300D02*
X210800Y553380D01*
X215880Y548300D01*
X210800Y543220D01*
X205720Y548300D01*
Y599100D02*
X210800Y604180D01*
X215880Y599100D01*
X210800Y594020D01*
X205720Y599100D01*
Y624500D02*
X210800Y629580D01*
X215880Y624500D01*
X210800Y619420D01*
X205720Y624500D01*
X53320D02*
X58400Y629580D01*
X63480Y624500D01*
X58400Y619420D01*
X53320Y624500D01*
X205720Y573700D02*
X210800Y578780D01*
X215880Y573700D01*
X210800Y568620D01*
X205720Y573700D01*
X53320Y345100D02*
X58400Y350180D01*
X63480Y345100D01*
X58400Y340020D01*
X53320Y345100D01*
Y268900D02*
X58400Y273980D01*
X63480Y268900D01*
X58400Y263820D01*
X53320Y268900D01*
Y294300D02*
X58400Y299380D01*
X63480Y294300D01*
X58400Y289220D01*
X53320Y294300D01*
Y319700D02*
X58400Y324780D01*
X63480Y319700D01*
X58400Y314620D01*
X53320Y319700D01*
Y370500D02*
X58400Y375580D01*
X63480Y370500D01*
X58400Y365420D01*
X53320Y370500D01*
Y395900D02*
X58400Y400980D01*
X63480Y395900D01*
X58400Y390820D01*
X53320Y395900D01*
Y421300D02*
X58400Y426380D01*
X63480Y421300D01*
X58400Y416220D01*
X53320Y421300D01*
Y446700D02*
X58400Y451780D01*
X63480Y446700D01*
X58400Y441620D01*
X53320Y446700D01*
Y472100D02*
X58400Y477180D01*
X63480Y472100D01*
X58400Y467020D01*
X53320Y472100D01*
Y497500D02*
X58400Y502580D01*
X63480Y497500D01*
X58400Y492420D01*
X53320Y497500D01*
Y522900D02*
X58400Y527980D01*
X63480Y522900D01*
X58400Y517820D01*
X53320Y522900D01*
Y548300D02*
X58400Y553380D01*
X63480Y548300D01*
X58400Y543220D01*
X53320Y548300D01*
Y573700D02*
X58400Y578780D01*
X63480Y573700D01*
X58400Y568620D01*
X53320Y573700D01*
Y599100D02*
X58400Y604180D01*
X63480Y599100D01*
X58400Y594020D01*
X53320Y599100D01*
X205720Y446700D02*
X210800Y451780D01*
X215880Y446700D01*
X210800Y441620D01*
X205720Y446700D01*
Y421300D02*
X210800Y426380D01*
X215880Y421300D01*
X210800Y416220D01*
X205720Y421300D01*
Y395900D02*
X210800Y400980D01*
X215880Y395900D01*
X210800Y390820D01*
X205720Y395900D01*
Y370500D02*
X210800Y375580D01*
X215880Y370500D01*
X210800Y365420D01*
X205720Y370500D01*
Y345100D02*
X210800Y350180D01*
X215880Y345100D01*
X210800Y340020D01*
X205720Y345100D01*
Y319700D02*
X210800Y324780D01*
X215880Y319700D01*
X210800Y314620D01*
X205720Y319700D01*
Y294300D02*
X210800Y299380D01*
X215880Y294300D01*
X210800Y289220D01*
X205720Y294300D01*
Y268900D02*
X210800Y273980D01*
X215880Y268900D01*
X210800Y263820D01*
X205720Y268900D01*
X492460Y613460D02*
Y610920D01*
X497540D01*
Y613460D01*
X500080D01*
Y618540D01*
X497540D01*
Y621080D01*
X492460D01*
Y618540D01*
X489920D01*
Y613460D01*
X492460D01*
X510920Y482920D02*
X513460D01*
X516000Y485460D01*
X518540Y482920D01*
X521080D01*
Y485460D01*
X518540Y488000D01*
X521080Y490540D01*
Y493080D01*
X518540D01*
X516000Y490540D01*
X513460Y493080D01*
X510920D01*
Y490540D01*
X513460Y488000D01*
X510920Y485460D01*
Y482920D01*
X468920D02*
X471460D01*
X474000Y485460D01*
X476540Y482920D01*
X479080D01*
Y485460D01*
X476540Y488000D01*
X479080Y490540D01*
Y493080D01*
X476540D01*
X474000Y490540D01*
X471460Y493080D01*
X468920D01*
Y490540D01*
X471460Y488000D01*
X468920Y485460D01*
Y482920D01*
X510920Y537920D02*
X513460D01*
X516000Y540460D01*
X518540Y537920D01*
X521080D01*
Y540460D01*
X518540Y543000D01*
X521080Y545540D01*
Y548080D01*
X518540D01*
X516000Y545540D01*
X513460Y548080D01*
X510920D01*
Y545540D01*
X513460Y543000D01*
X510920Y540460D01*
Y537920D01*
X468920D02*
X471460D01*
X474000Y540460D01*
X476540Y537920D01*
X479080D01*
Y540460D01*
X476540Y543000D01*
X479080Y545540D01*
Y548080D01*
X476540D01*
X474000Y545540D01*
X471460Y548080D01*
X468920D01*
Y545540D01*
X471460Y543000D01*
X468920Y540460D01*
Y537920D01*
X349220Y62601D02*
X351760Y65141D01*
X354300D01*
X351760Y67681D01*
X354300Y70221D01*
X351760D01*
X349220Y72761D01*
X346680Y70221D01*
X344140D01*
X346680Y67681D01*
X344140Y65141D01*
X346680D01*
X349220Y62601D01*
Y104601D02*
X351760Y107141D01*
X354300D01*
X351760Y109681D01*
X354300Y112221D01*
X351760D01*
X349220Y114761D01*
X346680Y112221D01*
X344140D01*
X346680Y109681D01*
X344140Y107141D01*
X346680D01*
X349220Y104601D01*
X404220Y62601D02*
X406760Y65141D01*
X409300D01*
X406760Y67681D01*
X409300Y70221D01*
X406760D01*
X404220Y72761D01*
X401680Y70221D01*
X399140D01*
X401680Y67681D01*
X399140Y65141D01*
X401680D01*
X404220Y62601D01*
Y104601D02*
X406760Y107141D01*
X409300D01*
X406760Y109681D01*
X409300Y112221D01*
X406760D01*
X404220Y114761D01*
X401680Y112221D01*
X399140D01*
X401680Y109681D01*
X399140Y107141D01*
X401680D01*
X404220Y104601D01*
X224220Y61620D02*
X226760Y66700D01*
X224220Y71780D01*
X229300Y69240D01*
X234380Y71780D01*
X231840Y66700D01*
X234380Y61620D01*
X229300Y64160D01*
X224220Y61620D01*
X198820D02*
X201360Y66700D01*
X198820Y71780D01*
X203900Y69240D01*
X208980Y71780D01*
X206440Y66700D01*
X208980Y61620D01*
X203900Y64160D01*
X198820Y61620D01*
X173420D02*
X175960Y66700D01*
X173420Y71780D01*
X178500Y69240D01*
X183580Y71780D01*
X181040Y66700D01*
X183580Y61620D01*
X178500Y64160D01*
X173420Y61620D01*
X383017Y483334D02*
X377937Y493494D01*
X388097D01*
X383017Y483334D01*
Y485366D02*
X379968Y491462D01*
X386064D01*
X383017Y485366D01*
X433200Y503420D02*
X428120Y513580D01*
X438280D01*
X433200Y503420D01*
Y505452D02*
X430152Y511548D01*
X436248D01*
X433200Y505452D01*
X456700Y333235D02*
X451620Y343395D01*
X461780D01*
X456700Y333235D01*
Y335267D02*
X453652Y341363D01*
X459748D01*
X456700Y335267D01*
X348871Y490391D02*
X343791Y500550D01*
X353951D01*
X348871Y490391D01*
Y492422D02*
X345823Y498518D01*
X351919D01*
X348871Y492422D01*
X493900Y409220D02*
X488820Y419380D01*
X498980D01*
X493900Y409220D01*
Y411252D02*
X490852Y417348D01*
X496948D01*
X493900Y411252D01*
X253599Y490163D02*
X248519Y500323D01*
X258679D01*
X253599Y490163D01*
Y492195D02*
X250551Y498291D01*
X256647D01*
X253599Y492195D01*
X406659Y537589D02*
X401579Y547749D01*
X411739D01*
X406659Y537589D01*
Y539622D02*
X403611Y545718D01*
X409707D01*
X406659Y539622D01*
X269100Y543220D02*
X264020Y553380D01*
X274180D01*
X269100Y543220D01*
Y545252D02*
X266052Y551348D01*
X272148D01*
X269100Y545252D01*
X313542Y415320D02*
X308462Y425480D01*
X318622D01*
X313542Y415320D01*
Y417352D02*
X310494Y423448D01*
X316590D01*
X313542Y417352D01*
X327362Y431080D02*
X322282Y441240D01*
X332442D01*
X327362Y431080D01*
Y433112D02*
X324314Y439208D01*
X330410D01*
X327362Y433112D01*
X327296Y440013D02*
X322216Y450173D01*
X332376D01*
X327296Y440013D01*
Y442045D02*
X324248Y448141D01*
X330344D01*
X327296Y442045D01*
X304400Y416020D02*
X299320Y426180D01*
X309480D01*
X304400Y416020D01*
Y418052D02*
X301352Y424148D01*
X307448D01*
X304400Y418052D01*
X327258Y448920D02*
X322178Y459080D01*
X332338D01*
X327258Y448920D01*
Y450952D02*
X324210Y457048D01*
X330306D01*
X327258Y450952D01*
X294700Y416620D02*
X289620Y426780D01*
X299780D01*
X294700Y416620D01*
Y418652D02*
X291652Y424748D01*
X297748D01*
X294700Y418652D01*
X327258Y459120D02*
X322178Y469280D01*
X332338D01*
X327258Y459120D01*
Y461152D02*
X324210Y467248D01*
X330306D01*
X327258Y461152D01*
X285200Y417320D02*
X280120Y427480D01*
X290280D01*
X285200Y417320D01*
Y419352D02*
X282152Y425448D01*
X288248D01*
X285200Y419352D01*
X277665Y333235D02*
X272585Y343395D01*
X282745D01*
X277665Y333235D01*
Y335267D02*
X274617Y341363D01*
X280713D01*
X277665Y335267D01*
X271497Y470820D02*
X266416Y480980D01*
X276576D01*
X271497Y470820D01*
Y472852D02*
X268449Y478948D01*
X274545D01*
X271497Y472852D01*
X276229Y462311D02*
X271149Y472471D01*
X281309D01*
X276229Y462311D01*
Y464343D02*
X273181Y470439D01*
X279277D01*
X276229Y464343D01*
X257700Y470820D02*
X252620Y480980D01*
X262780D01*
X257700Y470820D01*
Y472852D02*
X254652Y478948D01*
X260748D01*
X257700Y472852D01*
X342664Y413768D02*
X337584Y423928D01*
X347744D01*
X342664Y413768D01*
Y415800D02*
X339616Y421896D01*
X345712D01*
X342664Y415800D01*
X207300Y38520D02*
X202220Y48680D01*
X212380D01*
X207300Y38520D01*
Y40552D02*
X204252Y46648D01*
X210348D01*
X207300Y40552D01*
Y29020D02*
X202220Y39180D01*
X212380D01*
X207300Y29020D01*
Y31052D02*
X204252Y37148D01*
X210348D01*
X207300Y31052D01*
Y20220D02*
X202220Y30380D01*
X212380D01*
X207300Y20220D01*
Y22252D02*
X204252Y28348D01*
X210348D01*
X207300Y22252D01*
X367900Y333235D02*
X362820Y343395D01*
X372980D01*
X367900Y333235D01*
Y335267D02*
X364852Y341363D01*
X370948D01*
X367900Y335267D01*
D66*
X28080Y652200D02*
G03*
X28080Y652200I-5080J0D01*
G01*
X571380D02*
G03*
X571380Y652200I-5080J0D01*
G01*
X506280Y246800D02*
G03*
X506280Y246800I-5080J0D01*
G01*
Y156800D02*
G03*
X506280Y156800I-5080J0D01*
G01*
X327380D02*
G03*
X327380Y156800I-5080J0D01*
G01*
Y246800D02*
G03*
X327380Y246800I-5080J0D01*
G01*
X571380Y32300D02*
G03*
X571380Y32300I-5080J0D01*
G01*
X417480Y156800D02*
G03*
X417480Y156800I-5080J0D01*
G01*
Y246800D02*
G03*
X417480Y246800I-5080J0D01*
G01*
X28080Y32300D02*
G03*
X28080Y32300I-5080J0D01*
G01*
D67*
X504248Y246800D02*
G03*
X504248Y246800I-3048J0D01*
G01*
Y156800D02*
G03*
X504248Y156800I-3048J0D01*
G01*
X325348D02*
G03*
X325348Y156800I-3048J0D01*
G01*
Y246800D02*
G03*
X325348Y246800I-3048J0D01*
G01*
X415448Y156800D02*
G03*
X415448Y156800I-3048J0D01*
G01*
Y246800D02*
G03*
X415448Y246800I-3048J0D01*
G01*
M02*
