G04*
G04 #@! TF.GenerationSoftware,Altium Limited,Altium Designer,24.0.1 (36)*
G04*
G04 Layer_Physical_Order=2*
G04 Layer_Color=16711680*
%FSLAX44Y44*%
%MOMM*%
G71*
G04*
G04 #@! TF.SameCoordinates,5AFC8AEE-83C9-459C-A775-606236EE25F6*
G04*
G04*
G04 #@! TF.FilePolarity,Positive*
G04*
G01*
G75*
%ADD13C,0.2540*%
%ADD44C,2.1500*%
%ADD45R,2.1500X2.1500*%
%ADD50R,2.0000X1.6000*%
%ADD51O,2.0000X1.6000*%
%ADD52C,3.5560*%
%ADD53C,2.0320*%
%ADD54O,3.7000X5.7000*%
%ADD55C,1.5080*%
%ADD56R,1.5080X1.5080*%
%ADD57C,3.0500*%
%ADD58C,2.7750*%
%ADD59R,2.7750X2.7750*%
%ADD60C,1.3500*%
%ADD61R,1.3500X1.3500*%
%ADD62C,0.6096*%
G36*
X613278Y499203D02*
X612966Y430261D01*
X611750Y429895D01*
X611118Y430840D01*
X608641Y433318D01*
X605727Y435265D01*
X602489Y436606D01*
X599052Y437290D01*
X595548D01*
X592111Y436606D01*
X588873Y435265D01*
X585960Y433318D01*
X583482Y430840D01*
X581535Y427927D01*
X580194Y424689D01*
X579510Y421252D01*
Y417748D01*
X580194Y414311D01*
X581535Y411073D01*
X583482Y408159D01*
X585960Y405682D01*
X588873Y403735D01*
X592111Y402394D01*
X595548Y401710D01*
X599052D01*
X602489Y402394D01*
X605727Y403735D01*
X608641Y405682D01*
X611118Y408159D01*
X611654Y408961D01*
X612868Y408590D01*
X612843Y402947D01*
X611717Y153705D01*
X611390Y81290D01*
X535800Y5700D01*
X113450D01*
X40508Y72878D01*
X40593Y510773D01*
X47325Y516620D01*
X48688Y516122D01*
X49433Y514325D01*
X50919Y512389D01*
X52855Y510903D01*
X55110Y509969D01*
X57530Y509650D01*
X61530D01*
X63950Y509969D01*
X66205Y510903D01*
X68141Y512389D01*
X69627Y514325D01*
X70561Y516580D01*
X70880Y519000D01*
X70561Y521420D01*
X69627Y523675D01*
X68141Y525611D01*
X66205Y527097D01*
X63950Y528031D01*
X62604Y528209D01*
X62202Y529542D01*
X91281Y554800D01*
X196746D01*
X196829Y553530D01*
X196080Y553431D01*
X193825Y552497D01*
X191889Y551011D01*
X190403Y549075D01*
X189469Y546820D01*
X189150Y544400D01*
X189469Y541980D01*
X190403Y539725D01*
X191889Y537789D01*
X193825Y536303D01*
X196080Y535369D01*
X198500Y535050D01*
X202500D01*
X204920Y535369D01*
X207175Y536303D01*
X209111Y537789D01*
X210597Y539725D01*
X211531Y541980D01*
X211850Y544400D01*
X211531Y546820D01*
X210597Y549075D01*
X209111Y551011D01*
X207175Y552497D01*
X204920Y553431D01*
X204171Y553530D01*
X204254Y554800D01*
X548125D01*
X613278Y499203D01*
D02*
G37*
%LPC*%
G36*
X292959Y523718D02*
X291241D01*
X289654Y523061D01*
X288439Y521846D01*
X288395Y521740D01*
X226267D01*
X225446Y522561D01*
X223859Y523218D01*
X222141D01*
X220554Y522561D01*
X219339Y521346D01*
X218682Y519759D01*
Y518041D01*
X219339Y516454D01*
X220554Y515239D01*
X222141Y514582D01*
X223859D01*
X225446Y515239D01*
X226661Y516454D01*
X226705Y516560D01*
X288833D01*
X289654Y515739D01*
X291241Y515082D01*
X292959D01*
X294546Y515739D01*
X295761Y516954D01*
X296418Y518541D01*
Y520259D01*
X295761Y521846D01*
X294546Y523061D01*
X292959Y523718D01*
D02*
G37*
G36*
X202500Y528350D02*
X198500D01*
X196080Y528031D01*
X193825Y527097D01*
X191889Y525611D01*
X190403Y523675D01*
X189469Y521420D01*
X189150Y519000D01*
X189469Y516580D01*
X190403Y514325D01*
X191889Y512389D01*
X193825Y510903D01*
X196080Y509969D01*
X198500Y509650D01*
X202500D01*
X204920Y509969D01*
X207175Y510903D01*
X209111Y512389D01*
X210597Y514325D01*
X211531Y516580D01*
X211850Y519000D01*
X211531Y521420D01*
X210597Y523675D01*
X209111Y525611D01*
X207175Y527097D01*
X204920Y528031D01*
X202500Y528350D01*
D02*
G37*
G36*
Y502950D02*
X198500D01*
X196080Y502631D01*
X193825Y501697D01*
X191889Y500211D01*
X190403Y498275D01*
X189469Y496020D01*
X189150Y493600D01*
X189469Y491180D01*
X190403Y488925D01*
X191889Y486989D01*
X193825Y485503D01*
X196080Y484569D01*
X198500Y484250D01*
X202500D01*
X204920Y484569D01*
X207175Y485503D01*
X209111Y486989D01*
X210597Y488925D01*
X211531Y491180D01*
X211850Y493600D01*
X211531Y496020D01*
X210597Y498275D01*
X209111Y500211D01*
X207175Y501697D01*
X204920Y502631D01*
X202500Y502950D01*
D02*
G37*
G36*
X61530D02*
X57530D01*
X55110Y502631D01*
X52855Y501697D01*
X50919Y500211D01*
X49433Y498275D01*
X48499Y496020D01*
X48180Y493600D01*
X48499Y491180D01*
X49433Y488925D01*
X50919Y486989D01*
X52855Y485503D01*
X55110Y484569D01*
X57530Y484250D01*
X61530D01*
X63950Y484569D01*
X66205Y485503D01*
X68141Y486989D01*
X69627Y488925D01*
X70561Y491180D01*
X70880Y493600D01*
X70561Y496020D01*
X69627Y498275D01*
X68141Y500211D01*
X66205Y501697D01*
X63950Y502631D01*
X61530Y502950D01*
D02*
G37*
G36*
X202500Y477550D02*
X198500D01*
X196080Y477231D01*
X193825Y476297D01*
X191889Y474811D01*
X190403Y472875D01*
X189469Y470620D01*
X189150Y468200D01*
X189469Y465780D01*
X190403Y463525D01*
X191889Y461589D01*
X193825Y460103D01*
X196080Y459169D01*
X198500Y458850D01*
X202500D01*
X204920Y459169D01*
X207175Y460103D01*
X209111Y461589D01*
X210597Y463525D01*
X211531Y465780D01*
X211850Y468200D01*
X211531Y470620D01*
X210597Y472875D01*
X209111Y474811D01*
X207175Y476297D01*
X204920Y477231D01*
X202500Y477550D01*
D02*
G37*
G36*
X61530D02*
X57530D01*
X55110Y477231D01*
X52855Y476297D01*
X50919Y474811D01*
X49433Y472875D01*
X48499Y470620D01*
X48180Y468200D01*
X48499Y465780D01*
X49433Y463525D01*
X50919Y461589D01*
X52855Y460103D01*
X55110Y459169D01*
X57530Y458850D01*
X61530D01*
X63950Y459169D01*
X66205Y460103D01*
X68141Y461589D01*
X69627Y463525D01*
X70561Y465780D01*
X70880Y468200D01*
X70561Y470620D01*
X69627Y472875D01*
X68141Y474811D01*
X66205Y476297D01*
X63950Y477231D01*
X61530Y477550D01*
D02*
G37*
G36*
X272356Y457218D02*
X270638D01*
X269051Y456561D01*
X267980Y455490D01*
X261217D01*
X260146Y456561D01*
X258559Y457218D01*
X256841D01*
X255254Y456561D01*
X254039Y455346D01*
X253382Y453759D01*
Y452041D01*
X254039Y450454D01*
X255254Y449239D01*
X256841Y448582D01*
X258559D01*
X260146Y449239D01*
X261217Y450310D01*
X267980D01*
X269051Y449239D01*
X270638Y448582D01*
X272356D01*
X273943Y449239D01*
X275157Y450454D01*
X275815Y452041D01*
Y453759D01*
X275157Y455346D01*
X273943Y456561D01*
X272356Y457218D01*
D02*
G37*
G36*
X202500Y452150D02*
X198500D01*
X196080Y451831D01*
X193825Y450897D01*
X191889Y449411D01*
X190403Y447475D01*
X189469Y445220D01*
X189150Y442800D01*
X189469Y440380D01*
X190403Y438125D01*
X191889Y436189D01*
X193825Y434703D01*
X196080Y433769D01*
X198500Y433450D01*
X202500D01*
X204920Y433769D01*
X207175Y434703D01*
X209111Y436189D01*
X210597Y438125D01*
X211531Y440380D01*
X211850Y442800D01*
X211531Y445220D01*
X210597Y447475D01*
X209111Y449411D01*
X207175Y450897D01*
X204920Y451831D01*
X202500Y452150D01*
D02*
G37*
G36*
X61530D02*
X57530D01*
X55110Y451831D01*
X52855Y450897D01*
X50919Y449411D01*
X49433Y447475D01*
X48499Y445220D01*
X48180Y442800D01*
X48499Y440380D01*
X49433Y438125D01*
X50919Y436189D01*
X52855Y434703D01*
X55110Y433769D01*
X57530Y433450D01*
X61530D01*
X63950Y433769D01*
X66205Y434703D01*
X68141Y436189D01*
X69627Y438125D01*
X70561Y440380D01*
X70880Y442800D01*
X70561Y445220D01*
X69627Y447475D01*
X68141Y449411D01*
X66205Y450897D01*
X63950Y451831D01*
X61530Y452150D01*
D02*
G37*
G36*
X539445Y455645D02*
X509155D01*
Y425355D01*
X539445D01*
Y455645D01*
D02*
G37*
G36*
X470792D02*
X467808D01*
X464882Y455063D01*
X462126Y453921D01*
X459646Y452264D01*
X457536Y450154D01*
X455879Y447674D01*
X454737Y444918D01*
X454155Y441992D01*
Y439008D01*
X454737Y436082D01*
X455879Y433326D01*
X457536Y430846D01*
X459646Y428736D01*
X462126Y427079D01*
X464882Y425937D01*
X467808Y425355D01*
X470792D01*
X473718Y425937D01*
X476474Y427079D01*
X478954Y428736D01*
X481064Y430846D01*
X482721Y433326D01*
X483863Y436082D01*
X484445Y439008D01*
Y441992D01*
X483863Y444918D01*
X482721Y447674D01*
X481064Y450154D01*
X478954Y452264D01*
X476474Y453921D01*
X473718Y455063D01*
X470792Y455645D01*
D02*
G37*
G36*
X328259Y440518D02*
X326541D01*
X324954Y439861D01*
X323739Y438646D01*
X323410Y437850D01*
X322663Y437351D01*
X288636Y403323D01*
X288623Y403329D01*
X286905D01*
X285318Y402671D01*
X284103Y401457D01*
X283446Y399870D01*
Y398152D01*
X284103Y396565D01*
X285318Y395350D01*
X286905Y394693D01*
X288623D01*
X290210Y395350D01*
X291425Y396565D01*
X292082Y398152D01*
Y399445D01*
X294112Y401475D01*
X295382Y400949D01*
Y400741D01*
X296039Y399154D01*
X297254Y397939D01*
X298841Y397282D01*
X300559D01*
X300825Y397392D01*
X301404Y396957D01*
X301874Y396452D01*
Y394887D01*
X302531Y393300D01*
X303746Y392085D01*
X305333Y391428D01*
X307051D01*
X308031Y391834D01*
X308705Y391011D01*
X308813Y390783D01*
X308182Y389259D01*
Y387541D01*
X308839Y385954D01*
X310054Y384739D01*
X311641Y384082D01*
X313359D01*
X314946Y384739D01*
X316161Y385954D01*
X316818Y387541D01*
Y388806D01*
X330108Y402096D01*
X330141Y402082D01*
X331859D01*
X333446Y402739D01*
X334661Y403954D01*
X335318Y405541D01*
Y407259D01*
X334661Y408846D01*
X333446Y410061D01*
X331859Y410718D01*
X330141D01*
X328554Y410061D01*
X327339Y408846D01*
X326682Y407259D01*
Y405994D01*
X313392Y392704D01*
X313359Y392718D01*
X311641D01*
X310660Y392312D01*
X309987Y393135D01*
X309878Y393363D01*
X310510Y394887D01*
Y396124D01*
X327289Y412904D01*
X327341Y412882D01*
X329059D01*
X330646Y413539D01*
X331861Y414754D01*
X332518Y416341D01*
Y418059D01*
X331861Y419646D01*
X330646Y420861D01*
X329059Y421518D01*
X327341D01*
X325754Y420861D01*
X324539Y419646D01*
X323882Y418059D01*
Y416822D01*
X307103Y400042D01*
X307051Y400064D01*
X305333D01*
X305066Y399953D01*
X304487Y400388D01*
X304018Y400894D01*
Y402256D01*
X325587Y423824D01*
X325764Y423647D01*
X327351Y422989D01*
X329069D01*
X330656Y423647D01*
X331871Y424861D01*
X332528Y426448D01*
Y428166D01*
X331871Y429753D01*
X330656Y430968D01*
X330013Y431234D01*
X329917Y431988D01*
X329944Y432637D01*
X331061Y433754D01*
X331718Y435341D01*
Y437059D01*
X331061Y438646D01*
X329846Y439861D01*
X328259Y440518D01*
D02*
G37*
G36*
X202500Y426750D02*
X198500D01*
X196080Y426431D01*
X193825Y425497D01*
X191889Y424011D01*
X190403Y422075D01*
X189469Y419820D01*
X189150Y417400D01*
X189469Y414980D01*
X190403Y412725D01*
X191889Y410789D01*
X193825Y409303D01*
X196080Y408369D01*
X198500Y408050D01*
X202500D01*
X204920Y408369D01*
X207175Y409303D01*
X209111Y410789D01*
X210597Y412725D01*
X211531Y414980D01*
X211850Y417400D01*
X211531Y419820D01*
X210597Y422075D01*
X209111Y424011D01*
X207175Y425497D01*
X204920Y426431D01*
X202500Y426750D01*
D02*
G37*
G36*
X61530D02*
X57530D01*
X55110Y426431D01*
X52855Y425497D01*
X50919Y424011D01*
X49433Y422075D01*
X48499Y419820D01*
X48180Y417400D01*
X48499Y414980D01*
X49433Y412725D01*
X50919Y410789D01*
X52855Y409303D01*
X55110Y408369D01*
X57530Y408050D01*
X61530D01*
X63950Y408369D01*
X66205Y409303D01*
X68141Y410789D01*
X69627Y412725D01*
X70561Y414980D01*
X70880Y417400D01*
X70561Y419820D01*
X69627Y422075D01*
X68141Y424011D01*
X66205Y425497D01*
X63950Y426431D01*
X61530Y426750D01*
D02*
G37*
G36*
X525792Y413645D02*
X522808D01*
X519882Y413063D01*
X517126Y411921D01*
X514646Y410264D01*
X512536Y408154D01*
X510879Y405674D01*
X509737Y402918D01*
X509155Y399992D01*
Y397008D01*
X509737Y394082D01*
X510879Y391326D01*
X512536Y388846D01*
X514646Y386736D01*
X517126Y385079D01*
X519882Y383937D01*
X522808Y383355D01*
X525792D01*
X528718Y383937D01*
X531474Y385079D01*
X533954Y386736D01*
X536064Y388846D01*
X537721Y391326D01*
X538863Y394082D01*
X539445Y397008D01*
Y399992D01*
X538863Y402918D01*
X537721Y405674D01*
X536064Y408154D01*
X533954Y410264D01*
X531474Y411921D01*
X528718Y413063D01*
X525792Y413645D01*
D02*
G37*
G36*
X470792D02*
X467808D01*
X464882Y413063D01*
X462126Y411921D01*
X459646Y410264D01*
X457536Y408154D01*
X455879Y405674D01*
X454737Y402918D01*
X454155Y399992D01*
Y397008D01*
X454737Y394082D01*
X455879Y391326D01*
X457536Y388846D01*
X459646Y386736D01*
X462126Y385079D01*
X464882Y383937D01*
X467808Y383355D01*
X470792D01*
X473718Y383937D01*
X476474Y385079D01*
X478954Y386736D01*
X481064Y388846D01*
X482721Y391326D01*
X483863Y394082D01*
X484445Y397008D01*
Y399992D01*
X483863Y402918D01*
X482721Y405674D01*
X481064Y408154D01*
X478954Y410264D01*
X476474Y411921D01*
X473718Y413063D01*
X470792Y413645D01*
D02*
G37*
G36*
X202500Y401350D02*
X198500D01*
X196080Y401031D01*
X193825Y400097D01*
X191889Y398611D01*
X190403Y396675D01*
X189469Y394420D01*
X189150Y392000D01*
X189469Y389580D01*
X190403Y387325D01*
X191889Y385389D01*
X193825Y383903D01*
X196080Y382969D01*
X198500Y382650D01*
X202500D01*
X204920Y382969D01*
X207175Y383903D01*
X209111Y385389D01*
X210597Y387325D01*
X211531Y389580D01*
X211850Y392000D01*
X211531Y394420D01*
X210597Y396675D01*
X209111Y398611D01*
X207175Y400097D01*
X204920Y401031D01*
X202500Y401350D01*
D02*
G37*
G36*
X61530D02*
X57530D01*
X55110Y401031D01*
X52855Y400097D01*
X50919Y398611D01*
X49433Y396675D01*
X48499Y394420D01*
X48180Y392000D01*
X48499Y389580D01*
X49433Y387325D01*
X50919Y385389D01*
X52855Y383903D01*
X55110Y382969D01*
X57530Y382650D01*
X61530D01*
X63950Y382969D01*
X66205Y383903D01*
X68141Y385389D01*
X69627Y387325D01*
X70561Y389580D01*
X70880Y392000D01*
X70561Y394420D01*
X69627Y396675D01*
X68141Y398611D01*
X66205Y400097D01*
X63950Y401031D01*
X61530Y401350D01*
D02*
G37*
G36*
X202500Y375950D02*
X198500D01*
X196080Y375631D01*
X193825Y374697D01*
X191889Y373211D01*
X190403Y371275D01*
X189469Y369020D01*
X189150Y366600D01*
X189469Y364180D01*
X190403Y361925D01*
X191889Y359989D01*
X193825Y358503D01*
X196080Y357569D01*
X198500Y357250D01*
X202500D01*
X204920Y357569D01*
X207175Y358503D01*
X209111Y359989D01*
X210597Y361925D01*
X211531Y364180D01*
X211850Y366600D01*
X211531Y369020D01*
X210597Y371275D01*
X209111Y373211D01*
X207175Y374697D01*
X204920Y375631D01*
X202500Y375950D01*
D02*
G37*
G36*
X61530D02*
X57530D01*
X55110Y375631D01*
X52855Y374697D01*
X50919Y373211D01*
X49433Y371275D01*
X48499Y369020D01*
X48180Y366600D01*
X48499Y364180D01*
X49433Y361925D01*
X50919Y359989D01*
X52855Y358503D01*
X55110Y357569D01*
X57530Y357250D01*
X61530D01*
X63950Y357569D01*
X66205Y358503D01*
X68141Y359989D01*
X69627Y361925D01*
X70561Y364180D01*
X70880Y366600D01*
X70561Y369020D01*
X69627Y371275D01*
X68141Y373211D01*
X66205Y374697D01*
X63950Y375631D01*
X61530Y375950D01*
D02*
G37*
G36*
X202500Y350550D02*
X198500D01*
X196080Y350231D01*
X193825Y349297D01*
X191889Y347811D01*
X190403Y345875D01*
X189469Y343620D01*
X189150Y341200D01*
X189469Y338780D01*
X190403Y336525D01*
X191889Y334589D01*
X193825Y333103D01*
X196080Y332169D01*
X198500Y331850D01*
X202500D01*
X204920Y332169D01*
X207175Y333103D01*
X209111Y334589D01*
X210597Y336525D01*
X211531Y338780D01*
X211850Y341200D01*
X211531Y343620D01*
X210597Y345875D01*
X209111Y347811D01*
X207175Y349297D01*
X204920Y350231D01*
X202500Y350550D01*
D02*
G37*
G36*
X61530D02*
X57530D01*
X55110Y350231D01*
X52855Y349297D01*
X50919Y347811D01*
X49433Y345875D01*
X48499Y343620D01*
X48180Y341200D01*
X48499Y338780D01*
X49433Y336525D01*
X50919Y334589D01*
X52855Y333103D01*
X55110Y332169D01*
X57530Y331850D01*
X61530D01*
X63950Y332169D01*
X66205Y333103D01*
X68141Y334589D01*
X69627Y336525D01*
X70561Y338780D01*
X70880Y341200D01*
X70561Y343620D01*
X69627Y345875D01*
X68141Y347811D01*
X66205Y349297D01*
X63950Y350231D01*
X61530Y350550D01*
D02*
G37*
G36*
Y325150D02*
X57530D01*
X55110Y324831D01*
X52855Y323897D01*
X50919Y322411D01*
X49433Y320475D01*
X48499Y318220D01*
X48180Y315800D01*
X48499Y313380D01*
X49433Y311125D01*
X50919Y309189D01*
X52855Y307703D01*
X55110Y306769D01*
X57530Y306450D01*
X61530D01*
X63950Y306769D01*
X66205Y307703D01*
X68141Y309189D01*
X69627Y311125D01*
X70561Y313380D01*
X70880Y315800D01*
X70561Y318220D01*
X69627Y320475D01*
X68141Y322411D01*
X66205Y323897D01*
X63950Y324831D01*
X61530Y325150D01*
D02*
G37*
G36*
X202500Y299750D02*
X198500D01*
X196080Y299431D01*
X193825Y298497D01*
X191889Y297011D01*
X190403Y295075D01*
X189469Y292820D01*
X189150Y290400D01*
X189469Y287980D01*
X190403Y285725D01*
X191889Y283789D01*
X193825Y282303D01*
X196080Y281369D01*
X198500Y281050D01*
X202500D01*
X204920Y281369D01*
X207175Y282303D01*
X209111Y283789D01*
X210597Y285725D01*
X211531Y287980D01*
X211850Y290400D01*
X211531Y292820D01*
X210597Y295075D01*
X209111Y297011D01*
X207175Y298497D01*
X204920Y299431D01*
X202500Y299750D01*
D02*
G37*
G36*
X61530D02*
X57530D01*
X55110Y299431D01*
X52855Y298497D01*
X50919Y297011D01*
X49433Y295075D01*
X48499Y292820D01*
X48180Y290400D01*
X48499Y287980D01*
X49433Y285725D01*
X50919Y283789D01*
X52855Y282303D01*
X55110Y281369D01*
X57530Y281050D01*
X61530D01*
X63950Y281369D01*
X66205Y282303D01*
X68141Y283789D01*
X69627Y285725D01*
X70561Y287980D01*
X70880Y290400D01*
X70561Y292820D01*
X69627Y295075D01*
X68141Y297011D01*
X66205Y298497D01*
X63950Y299431D01*
X61530Y299750D01*
D02*
G37*
G36*
X202500Y274350D02*
X198500D01*
X196080Y274031D01*
X193825Y273097D01*
X191889Y271611D01*
X190403Y269675D01*
X189469Y267420D01*
X189150Y265000D01*
X189469Y262580D01*
X190403Y260325D01*
X191889Y258389D01*
X193825Y256903D01*
X196080Y255969D01*
X198500Y255650D01*
X202500D01*
X204920Y255969D01*
X207175Y256903D01*
X209111Y258389D01*
X210597Y260325D01*
X211531Y262580D01*
X211850Y265000D01*
X211531Y267420D01*
X210597Y269675D01*
X209111Y271611D01*
X207175Y273097D01*
X204920Y274031D01*
X202500Y274350D01*
D02*
G37*
G36*
X372320Y254820D02*
X356280D01*
Y238780D01*
X372320D01*
Y254820D01*
D02*
G37*
G36*
X562220Y254820D02*
X546180D01*
Y238780D01*
X562220D01*
Y254820D01*
D02*
G37*
G36*
X462420Y254820D02*
X446380D01*
Y238780D01*
X462420D01*
Y254820D01*
D02*
G37*
G36*
X211770Y248870D02*
X189230D01*
Y230330D01*
X211770D01*
Y248870D01*
D02*
G37*
G36*
X70800D02*
X48260D01*
Y230330D01*
X70800D01*
Y248870D01*
D02*
G37*
G36*
X92221Y216450D02*
X88469D01*
X84788Y215718D01*
X81321Y214282D01*
X78201Y212197D01*
X75548Y209544D01*
X73463Y206423D01*
X72027Y202957D01*
X71295Y199276D01*
Y195524D01*
X72027Y191843D01*
X73463Y188376D01*
X75548Y185256D01*
X78201Y182603D01*
X81321Y180518D01*
X84788Y179082D01*
X88469Y178350D01*
X92221D01*
X95901Y179082D01*
X99368Y180518D01*
X102488Y182603D01*
X105142Y185256D01*
X107227Y188376D01*
X108663Y191843D01*
X109395Y195524D01*
Y199276D01*
X108663Y202957D01*
X107227Y206423D01*
X105142Y209544D01*
X102488Y212197D01*
X99368Y214282D01*
X95901Y215718D01*
X92221Y216450D01*
D02*
G37*
G36*
X365356Y164820D02*
X363244D01*
X361204Y164274D01*
X359375Y163218D01*
X357882Y161725D01*
X356826Y159896D01*
X356280Y157856D01*
Y155744D01*
X356826Y153705D01*
X357882Y151876D01*
X359375Y150383D01*
X361204Y149327D01*
X363244Y148780D01*
X365356D01*
X367395Y149327D01*
X369224Y150383D01*
X370717Y151876D01*
X371773Y153705D01*
X372320Y155744D01*
Y157856D01*
X371773Y159896D01*
X370717Y161725D01*
X369224Y163218D01*
X367395Y164274D01*
X365356Y164820D01*
D02*
G37*
G36*
X555255Y164820D02*
X553144D01*
X551104Y164274D01*
X549275Y163218D01*
X547782Y161724D01*
X546726Y159896D01*
X546180Y157856D01*
Y155744D01*
X546726Y153705D01*
X547782Y151876D01*
X549275Y150382D01*
X551104Y149327D01*
X553144Y148780D01*
X555255D01*
X557295Y149327D01*
X559124Y150382D01*
X560617Y151876D01*
X561673Y153705D01*
X562220Y155744D01*
Y157856D01*
X561673Y159896D01*
X560617Y161724D01*
X559124Y163218D01*
X557295Y164274D01*
X555255Y164820D01*
D02*
G37*
G36*
X455456Y164820D02*
X453344D01*
X451304Y164273D01*
X449475Y163218D01*
X447982Y161724D01*
X446926Y159896D01*
X446380Y157856D01*
Y155744D01*
X446926Y153705D01*
X447982Y151876D01*
X449475Y150382D01*
X451304Y149327D01*
X453344Y148780D01*
X455456D01*
X457495Y149327D01*
X459324Y150382D01*
X460817Y151876D01*
X461873Y153705D01*
X462420Y155744D01*
Y157856D01*
X461873Y159896D01*
X460817Y161724D01*
X459324Y163218D01*
X457495Y164273D01*
X455456Y164820D01*
D02*
G37*
G36*
X480682Y105320D02*
X477517D01*
X474460Y104501D01*
X471719Y102918D01*
X469481Y100680D01*
X467899Y97939D01*
X467080Y94882D01*
Y91717D01*
X467899Y88660D01*
X469481Y85919D01*
X471719Y83681D01*
X474460Y82099D01*
X477517Y81280D01*
X480682D01*
X483739Y82099D01*
X486480Y83681D01*
X488718Y85919D01*
X490300Y88660D01*
X491120Y91717D01*
Y94882D01*
X490300Y97939D01*
X488718Y100680D01*
X486480Y102918D01*
X483739Y104501D01*
X480682Y105320D01*
D02*
G37*
G36*
X425682D02*
X422518D01*
X419460Y104501D01*
X416720Y102918D01*
X414482Y100680D01*
X412899Y97939D01*
X412080Y94882D01*
Y91717D01*
X412899Y88660D01*
X414482Y85919D01*
X416720Y83681D01*
X419460Y82099D01*
X422518Y81280D01*
X425682D01*
X428740Y82099D01*
X431480Y83681D01*
X433718Y85919D01*
X435301Y88660D01*
X436120Y91717D01*
Y94882D01*
X435301Y97939D01*
X433718Y100680D01*
X431480Y102918D01*
X428740Y104501D01*
X425682Y105320D01*
D02*
G37*
G36*
X228160Y69510D02*
X225840D01*
X223599Y68910D01*
X221590Y67750D01*
X219950Y66109D01*
X218790Y64100D01*
X218190Y61860D01*
Y59540D01*
X218790Y57299D01*
X219950Y55290D01*
X221590Y53650D01*
X223599Y52490D01*
X225840Y51890D01*
X228160D01*
X230400Y52490D01*
X232409Y53650D01*
X234049Y55290D01*
X235209Y57299D01*
X235810Y59540D01*
Y61860D01*
X235209Y64100D01*
X234049Y66109D01*
X232409Y67750D01*
X230400Y68910D01*
X228160Y69510D01*
D02*
G37*
G36*
X185010D02*
X167390D01*
Y51890D01*
X185010D01*
Y69510D01*
D02*
G37*
G36*
X92072Y86940D02*
X88617D01*
X85229Y86266D01*
X82037Y84944D01*
X79164Y83024D01*
X76720Y80581D01*
X74801Y77709D01*
X73479Y74516D01*
X72805Y71128D01*
Y67673D01*
X73479Y64284D01*
X74801Y61092D01*
X76720Y58219D01*
X79164Y55776D01*
X82037Y53856D01*
X85229Y52534D01*
X88617Y51860D01*
X92072D01*
X95461Y52534D01*
X98653Y53856D01*
X101526Y55776D01*
X103969Y58219D01*
X105889Y61092D01*
X107211Y64284D01*
X107885Y67673D01*
Y71128D01*
X107211Y74516D01*
X105889Y77709D01*
X103969Y80581D01*
X101526Y83024D01*
X98653Y84944D01*
X95461Y86266D01*
X92072Y86940D01*
D02*
G37*
G36*
X480682Y63320D02*
X477517D01*
X474460Y62501D01*
X471719Y60918D01*
X469481Y58680D01*
X467899Y55939D01*
X467080Y52882D01*
Y49717D01*
X467899Y46660D01*
X469481Y43919D01*
X471719Y41681D01*
X474460Y40099D01*
X477517Y39280D01*
X480682D01*
X483739Y40099D01*
X486480Y41681D01*
X488718Y43919D01*
X490300Y46660D01*
X491120Y49717D01*
Y52882D01*
X490300Y55939D01*
X488718Y58680D01*
X486480Y60918D01*
X483739Y62501D01*
X480682Y63320D01*
D02*
G37*
G36*
X436120D02*
X412080D01*
Y39280D01*
X436120D01*
Y63320D01*
D02*
G37*
%LPD*%
D13*
X223000Y518900D02*
X223250Y519150D01*
X291850D01*
X292100Y519400D01*
X306469Y395746D02*
X327923Y417200D01*
X306192Y395746D02*
X306469D01*
X327923Y417200D02*
X328200D01*
X312750Y388400D02*
X330750Y406400D01*
X312500Y388400D02*
X312750D01*
X330750Y406400D02*
X331000D01*
X299700Y401600D02*
X324727Y426627D01*
X327529D02*
X328210Y427307D01*
X324727Y426627D02*
X327529D01*
X287985Y399011D02*
X324494Y435520D01*
X287764Y399011D02*
X287985D01*
X326720Y435520D02*
X327400Y436200D01*
X324494Y435520D02*
X326720D01*
X200500Y392000D02*
X200600Y392100D01*
X200500Y519000D02*
X200750Y518750D01*
X257700Y452900D02*
X271497D01*
D44*
X479100Y93300D02*
D03*
Y51300D02*
D03*
X424100Y93300D02*
D03*
D45*
Y51300D02*
D03*
D50*
X200500Y239600D02*
D03*
X59530D02*
D03*
D51*
X200500Y265000D02*
D03*
Y290400D02*
D03*
Y468200D02*
D03*
Y493600D02*
D03*
X59530Y519000D02*
D03*
X200500Y341200D02*
D03*
X59530Y595200D02*
D03*
Y569800D02*
D03*
Y544400D02*
D03*
Y493600D02*
D03*
Y468200D02*
D03*
Y442800D02*
D03*
Y417400D02*
D03*
Y392000D02*
D03*
Y366600D02*
D03*
Y341200D02*
D03*
Y315800D02*
D03*
Y290400D02*
D03*
Y265000D02*
D03*
X200500Y595200D02*
D03*
Y569800D02*
D03*
Y544400D02*
D03*
Y519000D02*
D03*
Y442800D02*
D03*
Y417400D02*
D03*
Y392000D02*
D03*
Y366600D02*
D03*
Y315800D02*
D03*
D52*
X90345Y197400D02*
D03*
Y142400D02*
D03*
D53*
Y69400D02*
D03*
D54*
X22900Y581700D02*
D03*
X642800Y38400D02*
D03*
X645100Y582000D02*
D03*
X23000Y32300D02*
D03*
D55*
X227000Y60700D02*
D03*
X201600D02*
D03*
D56*
X176200D02*
D03*
D57*
X597300Y419500D02*
D03*
D58*
X469300Y398500D02*
D03*
Y440500D02*
D03*
X524300Y398500D02*
D03*
D59*
Y440500D02*
D03*
D60*
X364300Y156800D02*
D03*
X454400Y156800D02*
D03*
X554199Y156800D02*
D03*
D61*
X364300Y246800D02*
D03*
X454400Y246800D02*
D03*
X554199Y246800D02*
D03*
D62*
X292100Y519400D02*
D03*
X223000Y518900D02*
D03*
X423800Y444000D02*
D03*
X509700Y338315D02*
D03*
X409900D02*
D03*
X251486Y472168D02*
D03*
X328200Y417200D02*
D03*
X331000Y406400D02*
D03*
X312500Y388400D02*
D03*
X299700Y401600D02*
D03*
X391985Y399014D02*
D03*
X319665Y338315D02*
D03*
X287764Y399011D02*
D03*
X306192Y395746D02*
D03*
X445400Y463600D02*
D03*
X402600Y497100D02*
D03*
X394063Y478717D02*
D03*
X445400Y420817D02*
D03*
X328210Y427307D02*
D03*
X327400Y436200D02*
D03*
X257700Y452900D02*
D03*
X276229Y444391D02*
D03*
X271497Y452900D02*
D03*
X348400Y472000D02*
D03*
X207300Y12300D02*
D03*
Y21100D02*
D03*
Y30600D02*
D03*
M02*
