G04*
G04 #@! TF.GenerationSoftware,Altium Limited,Altium Designer,23.6.0 (18)*
G04*
G04 Layer_Color=128*
%FSLAX44Y44*%
%MOMM*%
G71*
G04*
G04 #@! TF.SameCoordinates,002E3AE9-4B00-44C7-B55F-2903AD9EE070*
G04*
G04*
G04 #@! TF.FilePolarity,Positive*
G04*
G01*
G75*
%ADD13C,0.1270*%
D13*
X7000Y652200D02*
X39000D01*
X23000Y636200D02*
Y668200D01*
X81328Y197400D02*
X99362D01*
X90345Y188383D02*
Y206417D01*
X75345Y69400D02*
X105345D01*
X90345Y54400D02*
Y84400D01*
X81328Y142400D02*
X99362D01*
X90345Y133383D02*
Y151417D01*
X206230Y472100D02*
X215370D01*
X210800Y467530D02*
Y476670D01*
X206230Y497500D02*
X215370D01*
X210800Y492930D02*
Y502070D01*
X206230Y522900D02*
X215370D01*
X210800Y518330D02*
Y527470D01*
X206230Y548300D02*
X215370D01*
X210800Y543730D02*
Y552870D01*
X206230Y599100D02*
X215370D01*
X210800Y594530D02*
Y603670D01*
X206230Y624500D02*
X215370D01*
X210800Y619930D02*
Y629070D01*
X53830Y624500D02*
X62970D01*
X58400Y619930D02*
Y629070D01*
X206230Y573700D02*
X215370D01*
X210800Y569130D02*
Y578270D01*
X53830Y345100D02*
X62970D01*
X58400Y340530D02*
Y349670D01*
X53830Y268900D02*
X62970D01*
X58400Y264330D02*
Y273470D01*
X53830Y294300D02*
X62970D01*
X58400Y289730D02*
Y298870D01*
X53830Y319700D02*
X62970D01*
X58400Y315130D02*
Y324270D01*
X53830Y370500D02*
X62970D01*
X58400Y365930D02*
Y375070D01*
X53830Y395900D02*
X62970D01*
X58400Y391330D02*
Y400470D01*
X53830Y421300D02*
X62970D01*
X58400Y416730D02*
Y425870D01*
X53830Y446700D02*
X62970D01*
X58400Y442130D02*
Y451270D01*
X53830Y472100D02*
X62970D01*
X58400Y467530D02*
Y476670D01*
X53830Y497500D02*
X62970D01*
X58400Y492930D02*
Y502070D01*
X53830Y522900D02*
X62970D01*
X58400Y518330D02*
Y527470D01*
X53830Y548300D02*
X62970D01*
X58400Y543730D02*
Y552870D01*
X53830Y573700D02*
X62970D01*
X58400Y569130D02*
Y578270D01*
X53830Y599100D02*
X62970D01*
X58400Y594530D02*
Y603670D01*
X206230Y446700D02*
X215370D01*
X210800Y442130D02*
Y451270D01*
X206230Y421300D02*
X215370D01*
X210800Y416730D02*
Y425870D01*
X206230Y395900D02*
X215370D01*
X210800Y391330D02*
Y400470D01*
X206230Y370500D02*
X215370D01*
X210800Y365930D02*
Y375070D01*
X206230Y345100D02*
X215370D01*
X210800Y340530D02*
Y349670D01*
X206230Y319700D02*
X215370D01*
X210800Y315130D02*
Y324270D01*
X206230Y294300D02*
X215370D01*
X210800Y289730D02*
Y298870D01*
X206230Y268900D02*
X215370D01*
X210800Y264330D02*
Y273470D01*
X479750Y616000D02*
X510250D01*
X495000Y600750D02*
Y631250D01*
X506750Y488000D02*
X525250D01*
X516000Y478750D02*
Y497250D01*
X464750Y488000D02*
X483250D01*
X474000Y478750D02*
Y497250D01*
X506750Y543000D02*
X525250D01*
X516000Y533750D02*
Y552250D01*
X464750Y543000D02*
X483250D01*
X474000Y533750D02*
Y552250D01*
X550300Y652200D02*
X582300D01*
X566300Y636200D02*
Y668200D01*
X342220Y67681D02*
X356220D01*
X349220Y60681D02*
Y74681D01*
X342220Y109681D02*
X356220D01*
X349220Y102681D02*
Y116681D01*
X397220Y67681D02*
X411220D01*
X404220Y60681D02*
Y74681D01*
X397220Y109681D02*
X411220D01*
X404220Y102681D02*
Y116681D01*
X224300Y66700D02*
X234300D01*
X229300Y61700D02*
Y71700D01*
X198900Y66700D02*
X208900D01*
X203900Y61700D02*
Y71700D01*
X173500Y66700D02*
X183500D01*
X178500Y61700D02*
Y71700D01*
X496950Y246800D02*
X505450D01*
X501200Y242550D02*
Y251050D01*
X496950Y156800D02*
X505450D01*
X501200Y152550D02*
Y161050D01*
X318050Y156800D02*
X326550D01*
X322300Y152550D02*
Y161050D01*
X318050Y246800D02*
X326550D01*
X322300Y242550D02*
Y251050D01*
X550300Y32300D02*
X582300D01*
X566300Y16300D02*
Y48300D01*
X408150Y156800D02*
X416650D01*
X412400Y152550D02*
Y161050D01*
X408150Y246800D02*
X416650D01*
X412400Y242550D02*
Y251050D01*
X7000Y32300D02*
X39000D01*
X23000Y16300D02*
Y48300D01*
X381493Y488414D02*
X384540D01*
X383017Y486890D02*
Y489938D01*
X431676Y508500D02*
X434724D01*
X433200Y506976D02*
Y510024D01*
X455176Y338315D02*
X458224D01*
X456700Y336791D02*
Y339839D01*
X347347Y495471D02*
X350395D01*
X348871Y493946D02*
Y496995D01*
X492376Y414300D02*
X495424D01*
X493900Y412776D02*
Y415824D01*
X252075Y495243D02*
X255123D01*
X253599Y493719D02*
Y496767D01*
X405135Y542669D02*
X408183D01*
X406659Y541146D02*
Y544193D01*
X267576Y548300D02*
X270624D01*
X269100Y546776D02*
Y549824D01*
X312018Y420400D02*
X315066D01*
X313542Y418876D02*
Y421924D01*
X325838Y436160D02*
X328886D01*
X327362Y434636D02*
Y437684D01*
X325772Y445093D02*
X328820D01*
X327296Y443569D02*
Y446617D01*
X302876Y421100D02*
X305924D01*
X304400Y419576D02*
Y422624D01*
X325734Y454000D02*
X328782D01*
X327258Y452476D02*
Y455524D01*
X293176Y421700D02*
X296224D01*
X294700Y420176D02*
Y423224D01*
X325734Y464200D02*
X328782D01*
X327258Y462676D02*
Y465724D01*
X283676Y422400D02*
X286724D01*
X285200Y420876D02*
Y423924D01*
X276141Y338315D02*
X279189D01*
X277665Y336791D02*
Y339839D01*
X269972Y475900D02*
X273020D01*
X271497Y474376D02*
Y477424D01*
X274705Y467391D02*
X277753D01*
X276229Y465867D02*
Y468915D01*
X256176Y475900D02*
X259224D01*
X257700Y474376D02*
Y477424D01*
X341140Y418848D02*
X344188D01*
X342664Y417324D02*
Y420372D01*
X205776Y43600D02*
X208824D01*
X207300Y42076D02*
Y45124D01*
X205776Y34100D02*
X208824D01*
X207300Y32576D02*
Y35624D01*
X205776Y25300D02*
X208824D01*
X207300Y23776D02*
Y26824D01*
X366376Y338315D02*
X369424D01*
X367900Y336791D02*
Y339839D01*
M02*
