G04*
G04 #@! TF.GenerationSoftware,Altium Limited,Altium Designer,24.0.1 (36)*
G04*
G04 Layer_Color=65535*
%FSLAX44Y44*%
%MOMM*%
G71*
G04*
G04 #@! TF.SameCoordinates,5AFC8AEE-83C9-459C-A775-606236EE25F6*
G04*
G04*
G04 #@! TF.FilePolarity,Positive*
G04*
G01*
G75*
%ADD10C,0.2000*%
%ADD11C,0.2500*%
%ADD12C,0.1524*%
%ADD13C,0.2540*%
%ADD14C,0.1270*%
%ADD15C,0.1778*%
%ADD16R,0.7620X0.2540*%
%ADD17R,0.2540X0.7620*%
D10*
X139700Y60700D02*
G03*
X139700Y60700I-1000J0D01*
G01*
X525300Y474500D02*
G03*
X525300Y474500I-1000J0D01*
G01*
X382487Y414267D02*
G03*
X382487Y414267I-1000J0D01*
G01*
X56990Y607900D02*
X200500D01*
X50640Y226900D02*
X211930D01*
X72230D02*
Y607900D01*
X46830Y245950D02*
Y607900D01*
Y226900D02*
Y245950D01*
Y226900D02*
X72230D01*
X46830Y607900D02*
X72230D01*
X213200Y226900D02*
Y607900D01*
X187800Y245950D02*
Y607900D01*
Y226900D02*
Y245950D01*
Y226900D02*
X213200D01*
X187800Y607900D02*
X213200D01*
X166210Y572340D02*
Y607900D01*
X96360Y572340D02*
X166210D01*
X96360D02*
Y607900D01*
X97630D01*
X154780Y582500D02*
Y607900D01*
X107790Y582500D02*
X154780D01*
X107790D02*
Y607900D01*
X395100Y459917D02*
Y483917D01*
X441100Y459917D02*
Y483917D01*
X379800Y267800D02*
Y275040D01*
X349400Y267800D02*
X356840D01*
X372360D02*
X379800D01*
X349400D02*
Y275040D01*
X362860Y281800D02*
X366340D01*
X332100Y294600D02*
Y325600D01*
X327100Y294600D02*
Y325600D01*
Y294600D02*
X332100D01*
X327100Y325600D02*
X332100D01*
X352300Y233300D02*
X376300D01*
Y170300D02*
Y233300D01*
X352300Y170300D02*
Y233300D01*
Y170300D02*
X376300D01*
X416900Y324450D02*
X421900D01*
X416900Y293450D02*
X421900D01*
X416900D02*
Y324450D01*
X421900Y293450D02*
Y324450D01*
X516700Y324450D02*
X521699D01*
X516700Y293450D02*
X521699D01*
X516700D02*
Y324450D01*
X521699Y293450D02*
Y324450D01*
X452660Y280650D02*
X456140D01*
X439200Y266650D02*
Y273890D01*
X462160Y266650D02*
X469600D01*
X439200D02*
X446640D01*
X469600D02*
Y273890D01*
X552460Y280650D02*
X555940D01*
X539000Y266650D02*
Y273890D01*
X561960Y266650D02*
X569400D01*
X539000D02*
X546440D01*
X569400D02*
Y273890D01*
X399600Y17300D02*
X513600D01*
Y123300D01*
X399600D02*
X513600D01*
X399600Y17300D02*
Y123300D01*
X442400Y170300D02*
X466400D01*
X442400D02*
Y233300D01*
X466400Y170300D02*
Y233300D01*
X442400D02*
X466400D01*
X542200Y233300D02*
X566199D01*
Y170300D02*
Y233300D01*
X542200Y170300D02*
Y233300D01*
Y170300D02*
X566199D01*
X176129Y13569D02*
X201191D01*
X176129Y31631D02*
X201191D01*
X213463Y13569D02*
X238525D01*
X213463Y31631D02*
X238525D01*
D11*
X409600Y452918D02*
G03*
X409600Y452918I-1250J0D01*
G01*
X425350Y11300D02*
G03*
X425350Y11300I-1250J0D01*
G01*
D12*
X447212Y411317D02*
G03*
X447212Y411317I-762J0D01*
G01*
X430321Y417439D02*
Y424195D01*
X410255Y437327D02*
X430321D01*
X410255Y426938D02*
Y437327D01*
Y404307D02*
X430321D01*
X410255D02*
Y414696D01*
D13*
X62151Y3716D02*
X120317D01*
X120571Y3970D01*
Y220378D01*
X62151D02*
X120571D01*
X62151Y3716D02*
Y220378D01*
X629443Y489778D02*
X626904Y492318D01*
X621826D01*
X619287Y489778D01*
Y479622D01*
X621826Y477082D01*
X626904D01*
X629443Y479622D01*
X634522Y477082D02*
Y487239D01*
X639600Y492318D01*
X644678Y487239D01*
Y477082D01*
Y484700D01*
X634522D01*
X649757Y477082D02*
Y492318D01*
X659913Y477082D01*
Y492318D01*
X496940Y583640D02*
Y598875D01*
X504557D01*
X507097Y596336D01*
Y591258D01*
X504557Y588718D01*
X496940D01*
X502018D02*
X507097Y583640D01*
X522332Y596336D02*
X519793Y598875D01*
X514714D01*
X512175Y596336D01*
Y593797D01*
X514714Y591258D01*
X519793D01*
X522332Y588718D01*
Y586179D01*
X519793Y583640D01*
X514714D01*
X512175Y586179D01*
X527410Y598875D02*
X537567Y583640D01*
Y598875D02*
X527410Y583640D01*
X481840Y530840D02*
Y546075D01*
X489458D01*
X491997Y543536D01*
Y538457D01*
X489458Y535918D01*
X481840D01*
X486918D02*
X491997Y530840D01*
X507232Y546075D02*
X497075D01*
Y530840D01*
X507232D01*
X497075Y538457D02*
X502153D01*
X512310Y546075D02*
Y535918D01*
X517388Y530840D01*
X522467Y535918D01*
Y546075D01*
X552937Y543536D02*
X550398Y546075D01*
X545320D01*
X542780Y543536D01*
Y533379D01*
X545320Y530840D01*
X550398D01*
X552937Y533379D01*
X558015Y530840D02*
Y533379D01*
X560555D01*
Y530840D01*
X558015D01*
X409840Y556340D02*
Y571575D01*
X417458D01*
X419997Y569036D01*
Y563957D01*
X417458Y561418D01*
X409840D01*
X435232Y571575D02*
X425075D01*
Y556340D01*
X435232D01*
X425075Y563957D02*
X430153D01*
X440310Y556340D02*
Y571575D01*
X447928D01*
X450467Y569036D01*
Y563957D01*
X447928Y561418D01*
X440310D01*
X445388D02*
X450467Y556340D01*
X455545Y571575D02*
X460624D01*
X458084D01*
Y556340D01*
X455545D01*
X460624D01*
X468241D02*
Y571575D01*
X475859D01*
X478398Y569036D01*
Y563957D01*
X475859Y561418D01*
X468241D01*
X483476Y571575D02*
Y556340D01*
Y563957D01*
X493633D01*
Y571575D01*
Y556340D01*
X508868Y571575D02*
X498711D01*
Y556340D01*
X508868D01*
X498711Y563957D02*
X503790D01*
X513946Y556340D02*
Y571575D01*
X521564D01*
X524103Y569036D01*
Y563957D01*
X521564Y561418D01*
X513946D01*
X519025D02*
X524103Y556340D01*
X529181D02*
Y566497D01*
X534260Y571575D01*
X539338Y566497D01*
Y556340D01*
Y563957D01*
X529181D01*
X544417Y571575D02*
Y556340D01*
X554573D01*
X574887D02*
Y571575D01*
X582504D01*
X585043Y569036D01*
Y563957D01*
X582504Y561418D01*
X574887D01*
X600278Y569036D02*
X597739Y571575D01*
X592661D01*
X590122Y569036D01*
Y558879D01*
X592661Y556340D01*
X597739D01*
X600278Y558879D01*
X605357Y571575D02*
Y556340D01*
X612974D01*
X615513Y558879D01*
Y561418D01*
X612974Y563957D01*
X605357D01*
X612974D01*
X615513Y566497D01*
Y569036D01*
X612974Y571575D01*
X605357D01*
D14*
X209260Y177510D02*
X214340D01*
X209260Y169890D02*
X214340D01*
X22290Y167260D02*
Y172340D01*
X29910Y167260D02*
Y172340D01*
X144100Y40700D02*
X260100D01*
X144100D02*
Y125700D01*
X260100D01*
Y40700D02*
Y125700D01*
X535300Y457600D02*
Y467500D01*
X663300D01*
Y371500D02*
Y467500D01*
X535300Y371500D02*
X663300D01*
X535300D02*
Y381400D01*
X301887Y504067D02*
Y509067D01*
X357887D01*
Y504067D02*
Y509067D01*
X301887Y404067D02*
Y409067D01*
Y404067D02*
X357887D01*
Y409067D01*
X403812Y447810D02*
X408892D01*
X403812Y440190D02*
X408892D01*
X525560Y339711D02*
X530640D01*
X525560Y347331D02*
X530640D01*
X525560Y336860D02*
X530640D01*
X525560Y329240D02*
X530640D01*
X425760Y329240D02*
X430840D01*
X425760Y336860D02*
X430840D01*
X425760Y347331D02*
X430840D01*
X425760Y339711D02*
X430840D01*
X335960Y348481D02*
X341040D01*
X335960Y340861D02*
X341040D01*
X335960Y330390D02*
X341040D01*
X335960Y338010D02*
X341040D01*
X417360Y500910D02*
X422440D01*
X417360Y493290D02*
X422440D01*
X360660Y291490D02*
X365740D01*
X360660Y299110D02*
X365740D01*
X371960Y402810D02*
X377040D01*
X371960Y395190D02*
X377040D01*
X394798Y418277D02*
Y423357D01*
X387178Y418277D02*
Y423357D01*
X280226Y426584D02*
Y431664D01*
X272605Y426584D02*
Y431664D01*
X266660Y468490D02*
X271740D01*
X266660Y476110D02*
X271740D01*
X450460Y297960D02*
X455540D01*
X450460Y290340D02*
X455540D01*
X550260Y297960D02*
X555340D01*
X550260Y290340D02*
X555340D01*
X489416Y382036D02*
X488358Y383094D01*
X486242D01*
X485184Y382036D01*
Y377804D01*
X486242Y376746D01*
X488358D01*
X489416Y377804D01*
X491532Y376746D02*
Y380978D01*
X493648Y383094D01*
X495764Y380978D01*
Y376746D01*
Y379920D01*
X491532D01*
X497880Y376746D02*
Y383094D01*
X502112Y376746D01*
Y383094D01*
X504228D02*
Y376746D01*
X508460D01*
X489543Y464586D02*
X488485Y465644D01*
X486369D01*
X485311Y464586D01*
Y460354D01*
X486369Y459296D01*
X488485D01*
X489543Y460354D01*
X491659Y459296D02*
Y463528D01*
X493775Y465644D01*
X495891Y463528D01*
Y459296D01*
Y462470D01*
X491659D01*
X498007Y459296D02*
Y465644D01*
X502239Y459296D01*
Y465644D01*
X504355D02*
Y459296D01*
Y462470D01*
X508587D01*
Y465644D01*
Y459296D01*
D15*
X217022Y608109D02*
Y601761D01*
X218291Y600491D01*
X220830D01*
X222100Y601761D01*
Y608109D01*
X224639Y600491D02*
X227178D01*
X225909D01*
Y608109D01*
X224639Y606839D01*
X49700Y209909D02*
X47161D01*
X48430D01*
Y203561D01*
X47161Y202291D01*
X45891D01*
X44622Y203561D01*
X52239Y202291D02*
X54778D01*
X53509D01*
Y209909D01*
X52239Y208639D01*
X148200Y179709D02*
X143122D01*
Y175900D01*
X145661D01*
X143122D01*
Y172091D01*
X150739D02*
X153278D01*
X152009D01*
Y179709D01*
X150739Y178439D01*
X194026Y184461D02*
Y192078D01*
X197835D01*
X199104Y190809D01*
Y188270D01*
X197835Y187000D01*
X194026D01*
X196565D02*
X199104Y184461D01*
X206722Y192078D02*
X204182D01*
X205452D01*
Y185730D01*
X204182Y184461D01*
X202913D01*
X201643Y185730D01*
X209261Y184461D02*
Y189539D01*
X210530D01*
X211800Y188270D01*
Y184461D01*
Y188270D01*
X213070Y189539D01*
X214339Y188270D01*
Y184461D01*
X216878Y181922D02*
Y189539D01*
X220687D01*
X221957Y188270D01*
Y185730D01*
X220687Y184461D01*
X216878D01*
X229574Y192078D02*
X224496D01*
Y188270D01*
X227035Y189539D01*
X228305D01*
X229574Y188270D01*
Y185730D01*
X228305Y184461D01*
X225765D01*
X224496Y185730D01*
X10126Y138961D02*
Y146578D01*
X13935D01*
X15204Y145309D01*
Y142770D01*
X13935Y141500D01*
X10126D01*
X12665D02*
X15204Y138961D01*
X22822Y146578D02*
X20282D01*
X21552D01*
Y140230D01*
X20282Y138961D01*
X19013D01*
X17743Y140230D01*
X25361Y138961D02*
Y144039D01*
X26630D01*
X27900Y142770D01*
Y138961D01*
Y142770D01*
X29170Y144039D01*
X30439Y142770D01*
Y138961D01*
X32978Y136422D02*
Y144039D01*
X36787D01*
X38057Y142770D01*
Y140230D01*
X36787Y138961D01*
X32978D01*
X45674Y146578D02*
X43135Y145309D01*
X40596Y142770D01*
Y140230D01*
X41866Y138961D01*
X44405D01*
X45674Y140230D01*
Y141500D01*
X44405Y142770D01*
X40596D01*
X152752Y144509D02*
Y138161D01*
X154022Y136891D01*
X156561D01*
X157830Y138161D01*
Y144509D01*
X160370Y143239D02*
X161639Y144509D01*
X164178D01*
X165448Y143239D01*
Y141970D01*
X164178Y140700D01*
X162909D01*
X164178D01*
X165448Y139430D01*
Y138161D01*
X164178Y136891D01*
X161639D01*
X160370Y138161D01*
X547563Y346814D02*
X546293Y348084D01*
X543754D01*
X542484Y346814D01*
Y341736D01*
X543754Y340466D01*
X546293D01*
X547563Y341736D01*
X550102Y346814D02*
X551371Y348084D01*
X553911D01*
X555180Y346814D01*
Y345545D01*
X553911Y344275D01*
X555180Y343006D01*
Y341736D01*
X553911Y340466D01*
X551371D01*
X550102Y341736D01*
Y343006D01*
X551371Y344275D01*
X550102Y345545D01*
Y346814D01*
X551371Y344275D02*
X553911D01*
X547530Y335039D02*
X546261Y336309D01*
X543721D01*
X542452Y335039D01*
Y329961D01*
X543721Y328691D01*
X546261D01*
X547530Y329961D01*
X550069Y336309D02*
X555148D01*
Y335039D01*
X550069Y329961D01*
Y328691D01*
X447730Y335039D02*
X446461Y336309D01*
X443922D01*
X442652Y335039D01*
Y329961D01*
X443922Y328691D01*
X446461D01*
X447730Y329961D01*
X455348Y336309D02*
X450270D01*
Y332500D01*
X452809Y333770D01*
X454078D01*
X455348Y332500D01*
Y329961D01*
X454078Y328691D01*
X451539D01*
X450270Y329961D01*
X447763Y346814D02*
X446493Y348084D01*
X443954D01*
X442684Y346814D01*
Y341736D01*
X443954Y340466D01*
X446493D01*
X447763Y341736D01*
X455380Y348084D02*
X452841Y346814D01*
X450302Y344275D01*
Y341736D01*
X451572Y340466D01*
X454111D01*
X455380Y341736D01*
Y343006D01*
X454111Y344275D01*
X450302D01*
X483852Y318809D02*
Y312461D01*
X485122Y311191D01*
X487661D01*
X488930Y312461D01*
Y318809D01*
X491470D02*
Y311191D01*
X495278D01*
X496548Y312461D01*
Y313730D01*
X495278Y315000D01*
X491470D01*
X495278D01*
X496548Y316270D01*
Y317539D01*
X495278Y318809D01*
X491470D01*
X548352Y307541D02*
Y315159D01*
X552161D01*
X553430Y313889D01*
Y311350D01*
X552161Y310081D01*
X548352D01*
X550891D02*
X553430Y307541D01*
X555969Y313889D02*
X557239Y315159D01*
X559778D01*
X561048Y313889D01*
Y312620D01*
X559778Y311350D01*
X558509D01*
X559778D01*
X561048Y310081D01*
Y308811D01*
X559778Y307541D01*
X557239D01*
X555969Y308811D01*
X518130Y268511D02*
Y273589D01*
X516861Y274859D01*
X514321D01*
X513052Y273589D01*
Y268511D01*
X514321Y267241D01*
X516861D01*
X515591Y269781D02*
X518130Y267241D01*
X516861D02*
X518130Y268511D01*
X520669Y274859D02*
Y267241D01*
X524478D01*
X525748Y268511D01*
Y269781D01*
X524478Y271050D01*
X520669D01*
X524478D01*
X525748Y272320D01*
Y273589D01*
X524478Y274859D01*
X520669D01*
X357963Y347964D02*
X356693Y349234D01*
X354154D01*
X352884Y347964D01*
Y342886D01*
X354154Y341616D01*
X356693D01*
X357963Y342886D01*
X364311Y341616D02*
Y349234D01*
X360502Y345425D01*
X365580D01*
X418330Y268511D02*
Y273589D01*
X417061Y274859D01*
X414521D01*
X413252Y273589D01*
Y268511D01*
X414521Y267241D01*
X417061D01*
X415791Y269781D02*
X418330Y267241D01*
X417061D02*
X418330Y268511D01*
X425948Y273589D02*
X424678Y274859D01*
X422139D01*
X420869Y273589D01*
Y268511D01*
X422139Y267241D01*
X424678D01*
X425948Y268511D01*
Y271050D01*
X423409D01*
X448552Y307541D02*
Y315159D01*
X452361D01*
X453630Y313889D01*
Y311350D01*
X452361Y310081D01*
X448552D01*
X451091D02*
X453630Y307541D01*
X461248D02*
X456170D01*
X461248Y312620D01*
Y313889D01*
X459978Y315159D01*
X457439D01*
X456170Y313889D01*
X383452Y324009D02*
Y317661D01*
X384722Y316391D01*
X387261D01*
X388530Y317661D01*
Y324009D01*
X396148Y322739D02*
X394878Y324009D01*
X392339D01*
X391070Y322739D01*
Y317661D01*
X392339Y316391D01*
X394878D01*
X396148Y317661D01*
Y320200D01*
X393609D01*
X415825Y399433D02*
Y393085D01*
X417095Y391815D01*
X419634D01*
X420904Y393085D01*
Y399433D01*
X427252Y391815D02*
Y399433D01*
X423443Y395624D01*
X428521D01*
X435622Y496626D02*
Y495357D01*
X438161Y492817D01*
X440700Y495357D01*
Y496626D01*
X438161Y492817D02*
Y489009D01*
X443239D02*
X445778D01*
X444509D01*
Y496626D01*
X443239Y495357D01*
X300352Y521609D02*
Y515261D01*
X301622Y513991D01*
X304161D01*
X305430Y515261D01*
Y521609D01*
X313048Y513991D02*
X307970D01*
X313048Y519070D01*
Y520339D01*
X311778Y521609D01*
X309239D01*
X307970Y520339D01*
X379652Y225291D02*
Y232909D01*
X383461D01*
X384730Y231639D01*
Y229100D01*
X383461Y227830D01*
X379652D01*
X382191D02*
X384730Y225291D01*
X387270D02*
Y232909D01*
X391078D01*
X392348Y231639D01*
Y229100D01*
X391078Y227830D01*
X387270D01*
X389809D02*
X392348Y225291D01*
X531630Y114309D02*
X529091D01*
X530361D01*
Y107961D01*
X529091Y106691D01*
X527821D01*
X526552Y107961D01*
X539248Y106691D02*
X534169D01*
X539248Y111770D01*
Y113039D01*
X537978Y114309D01*
X535439D01*
X534169Y113039D01*
X294452Y326309D02*
Y319961D01*
X295722Y318691D01*
X298261D01*
X299530Y319961D01*
Y326309D01*
X302070Y318691D02*
Y326309D01*
X305878D01*
X307148Y325039D01*
Y322500D01*
X305878Y321230D01*
X302070D01*
X304609D02*
X307148Y318691D01*
X470152Y224191D02*
Y231809D01*
X473961D01*
X475230Y230539D01*
Y228000D01*
X473961Y226730D01*
X470152D01*
X472691D02*
X475230Y224191D01*
X482848Y230539D02*
X481578Y231809D01*
X479039D01*
X477770Y230539D01*
Y225461D01*
X479039Y224191D01*
X481578D01*
X482848Y225461D01*
Y228000D01*
X480309D01*
X572152Y223691D02*
Y231309D01*
X575961D01*
X577230Y230039D01*
Y227500D01*
X575961Y226230D01*
X572152D01*
X574691D02*
X577230Y223691D01*
X579770Y231309D02*
Y223691D01*
X583578D01*
X584848Y224961D01*
Y226230D01*
X583578Y227500D01*
X579770D01*
X583578D01*
X584848Y228770D01*
Y230039D01*
X583578Y231309D01*
X579770D01*
X379552Y435691D02*
Y443309D01*
X383361D01*
X384630Y442039D01*
Y439500D01*
X383361Y438230D01*
X379552D01*
X382091D02*
X384630Y435691D01*
X390978D02*
Y443309D01*
X387170Y439500D01*
X392248D01*
X359521Y305141D02*
Y312759D01*
X363330D01*
X364600Y311489D01*
Y308950D01*
X363330Y307680D01*
X359521D01*
X362061D02*
X364600Y305141D01*
X367139D02*
X369678D01*
X368409D01*
Y312759D01*
X367139Y311489D01*
X328530Y269661D02*
Y274739D01*
X327261Y276009D01*
X324721D01*
X323452Y274739D01*
Y269661D01*
X324721Y268391D01*
X327261D01*
X325991Y270930D02*
X328530Y268391D01*
X327261D02*
X328530Y269661D01*
X331069Y268391D02*
Y276009D01*
X334878D01*
X336148Y274739D01*
Y272200D01*
X334878Y270930D01*
X331069D01*
X333609D02*
X336148Y268391D01*
X413756Y511139D02*
X412487Y512409D01*
X409948D01*
X408678Y511139D01*
Y506061D01*
X409948Y504791D01*
X412487D01*
X413756Y506061D01*
X416296Y504791D02*
X418835D01*
X417565D01*
Y512409D01*
X416296Y511139D01*
X427722Y504791D02*
X422644D01*
X427722Y509870D01*
Y511139D01*
X426452Y512409D01*
X423913D01*
X422644Y511139D01*
X434456Y451339D02*
X433187Y452609D01*
X430648D01*
X429378Y451339D01*
Y446261D01*
X430648Y444991D01*
X433187D01*
X434456Y446261D01*
X436996Y444991D02*
X439535D01*
X438265D01*
Y452609D01*
X436996Y451339D01*
X443344D02*
X444613Y452609D01*
X447152D01*
X448422Y451339D01*
Y450070D01*
X447152Y448800D01*
X445883D01*
X447152D01*
X448422Y447530D01*
Y446261D01*
X447152Y444991D01*
X444613D01*
X443344Y446261D01*
X372326Y390839D02*
X371057Y392109D01*
X368517D01*
X367248Y390839D01*
Y385761D01*
X368517Y384491D01*
X371057D01*
X372326Y385761D01*
X374865Y384491D02*
X377404D01*
X376135D01*
Y392109D01*
X374865Y390839D01*
X381213Y384491D02*
X383752D01*
X382483D01*
Y392109D01*
X381213Y390839D01*
X267473Y485652D02*
X266204Y486922D01*
X263665D01*
X262395Y485652D01*
Y480574D01*
X263665Y479304D01*
X266204D01*
X267473Y480574D01*
X270013Y479304D02*
X272552D01*
X271282D01*
Y486922D01*
X270013Y485652D01*
X276361D02*
X277630Y486922D01*
X280169D01*
X281439Y485652D01*
Y480574D01*
X280169Y479304D01*
X277630D01*
X276361Y480574D01*
Y485652D01*
X260730Y426639D02*
X259461Y427909D01*
X256922D01*
X255652Y426639D01*
Y421561D01*
X256922Y420291D01*
X259461D01*
X260730Y421561D01*
X263270D02*
X264539Y420291D01*
X267078D01*
X268348Y421561D01*
Y426639D01*
X267078Y427909D01*
X264539D01*
X263270Y426639D01*
Y425370D01*
X264539Y424100D01*
X268348D01*
X357930Y336189D02*
X356661Y337459D01*
X354122D01*
X352852Y336189D01*
Y331111D01*
X354122Y329841D01*
X356661D01*
X357930Y331111D01*
X360469Y336189D02*
X361739Y337459D01*
X364278D01*
X365548Y336189D01*
Y334920D01*
X364278Y333650D01*
X363009D01*
X364278D01*
X365548Y332380D01*
Y331111D01*
X364278Y329841D01*
X361739D01*
X360469Y331111D01*
X255930Y25439D02*
X254661Y26709D01*
X252122D01*
X250852Y25439D01*
Y20361D01*
X252122Y19091D01*
X254661D01*
X255930Y20361D01*
X263548Y19091D02*
X258470D01*
X263548Y24170D01*
Y25439D01*
X262278Y26709D01*
X259739D01*
X258470Y25439D01*
X157900Y25639D02*
X156630Y26909D01*
X154091D01*
X152822Y25639D01*
Y20561D01*
X154091Y19291D01*
X156630D01*
X157900Y20561D01*
X160439Y19291D02*
X162978D01*
X161709D01*
Y26909D01*
X160439Y25639D01*
D16*
X114475Y197391D02*
D03*
X114348Y142400D02*
D03*
D17*
X114475Y197391D02*
D03*
M02*
