G04*
G04 #@! TF.GenerationSoftware,Altium Limited,Altium Designer,23.6.0 (18)*
G04*
G04 Layer_Color=8388736*
%FSLAX44Y44*%
%MOMM*%
G71*
G04*
G04 #@! TF.SameCoordinates,002E3AE9-4B00-44C7-B55F-2903AD9EE070*
G04*
G04*
G04 #@! TF.FilePolarity,Negative*
G04*
G01*
G75*
%ADD20R,1.1500X1.4000*%
%ADD22R,0.5588X1.3208*%
%ADD24R,0.8020X0.9720*%
%ADD26R,1.1051X1.0062*%
%ADD27R,2.1540X0.7340*%
%ADD28R,0.7112X0.8890*%
%ADD29R,0.8890X0.7112*%
%ADD30R,1.2016X0.7516*%
%ADD31R,1.0816X0.9716*%
%ADD32O,3.8016X5.8016*%
%ADD33C,3.6576*%
%ADD34C,2.1336*%
%ADD35C,1.4140*%
%ADD36R,1.4140X1.4140*%
%ADD37C,3.1516*%
%ADD38C,2.8766*%
%ADD39R,2.8766X2.8766*%
%ADD40R,2.1500X2.1500*%
%ADD41C,2.1500*%
%ADD42C,1.6096*%
%ADD43R,1.6096X1.6096*%
%ADD44R,1.4516X1.4516*%
%ADD45C,1.4516*%
%ADD46C,0.7112*%
D20*
X405583Y493400D02*
D03*
Y515400D02*
D03*
X389583D02*
D03*
Y493400D02*
D03*
D22*
X493683Y427050D02*
D03*
X484183Y450926D02*
D03*
X503183D02*
D03*
D24*
X501200Y264800D02*
D03*
X510700Y282500D02*
D03*
X491700D02*
D03*
X322600Y265950D02*
D03*
X332100Y283650D02*
D03*
X313100D02*
D03*
X402900Y282500D02*
D03*
X421900D02*
D03*
X412400Y264800D02*
D03*
D26*
X195665Y35600D02*
D03*
X181654D02*
D03*
X232000D02*
D03*
X217989D02*
D03*
D27*
X294837Y515317D02*
D03*
Y469817D02*
D03*
Y521817D02*
D03*
Y495817D02*
D03*
X364937Y476317D02*
D03*
Y437317D02*
D03*
X294837Y443817D02*
D03*
Y502317D02*
D03*
X364937Y443817D02*
D03*
Y521817D02*
D03*
X294837Y463317D02*
D03*
X364937Y469817D02*
D03*
Y508817D02*
D03*
X294837Y437317D02*
D03*
Y482817D02*
D03*
Y476317D02*
D03*
X364937Y495817D02*
D03*
X294837Y450317D02*
D03*
X364937Y456817D02*
D03*
Y463317D02*
D03*
Y515317D02*
D03*
Y482817D02*
D03*
Y489317D02*
D03*
X294837Y456817D02*
D03*
Y508817D02*
D03*
X364937Y502317D02*
D03*
Y450317D02*
D03*
X294837Y489317D02*
D03*
D28*
X349208Y418602D02*
D03*
X366226D02*
D03*
X491291Y294150D02*
D03*
X508309D02*
D03*
X466591Y343521D02*
D03*
X483609D02*
D03*
X466591Y333050D02*
D03*
X483609D02*
D03*
X406509Y535300D02*
D03*
X389491D02*
D03*
X277709Y495300D02*
D03*
X260691D02*
D03*
X211791Y191600D02*
D03*
X228809D02*
D03*
X377791Y333050D02*
D03*
Y343521D02*
D03*
X394809Y333050D02*
D03*
Y343521D02*
D03*
X305009Y344671D02*
D03*
X287991D02*
D03*
Y334200D02*
D03*
X305009D02*
D03*
X312691Y295300D02*
D03*
X329709D02*
D03*
X419509Y294150D02*
D03*
X402491D02*
D03*
D29*
X425291Y490891D02*
D03*
Y507909D02*
D03*
X425725Y468204D02*
D03*
Y451186D02*
D03*
X276416Y460633D02*
D03*
Y443615D02*
D03*
X38100Y161291D02*
D03*
Y178309D02*
D03*
D30*
X454200Y318450D02*
D03*
Y308950D02*
D03*
Y299450D02*
D03*
X478200D02*
D03*
Y318450D02*
D03*
X275600Y319600D02*
D03*
Y310100D02*
D03*
Y300600D02*
D03*
X299600D02*
D03*
Y319600D02*
D03*
X389400Y318450D02*
D03*
Y299450D02*
D03*
X365400D02*
D03*
Y308950D02*
D03*
Y318450D02*
D03*
D31*
X130763Y165700D02*
D03*
Y181700D02*
D03*
D32*
X23000Y652200D02*
D03*
X566300D02*
D03*
X566300Y32300D02*
D03*
X23000D02*
D03*
D33*
X90345Y197400D02*
D03*
Y142400D02*
D03*
D34*
Y69400D02*
D03*
D35*
X210800Y472100D02*
D03*
Y497500D02*
D03*
Y522900D02*
D03*
Y548300D02*
D03*
Y599100D02*
D03*
Y624500D02*
D03*
X58400D02*
D03*
X210800Y573700D02*
D03*
X58400Y345100D02*
D03*
Y268900D02*
D03*
Y294300D02*
D03*
Y319700D02*
D03*
Y370500D02*
D03*
Y395900D02*
D03*
Y421300D02*
D03*
Y446700D02*
D03*
Y472100D02*
D03*
Y497500D02*
D03*
Y522900D02*
D03*
Y548300D02*
D03*
Y573700D02*
D03*
Y599100D02*
D03*
X210800Y446700D02*
D03*
Y421300D02*
D03*
Y395900D02*
D03*
Y370500D02*
D03*
Y345100D02*
D03*
Y319700D02*
D03*
Y294300D02*
D03*
D36*
Y268900D02*
D03*
D37*
X495000Y616000D02*
D03*
D38*
X516000Y488000D02*
D03*
X474000D02*
D03*
X516000Y543000D02*
D03*
D39*
X474000D02*
D03*
D40*
X349220Y67681D02*
D03*
D41*
Y109681D02*
D03*
X404220Y67681D02*
D03*
Y109681D02*
D03*
D42*
X229300Y66700D02*
D03*
X203900D02*
D03*
D43*
X178500D02*
D03*
D44*
X501200Y246800D02*
D03*
X322300D02*
D03*
X412400D02*
D03*
D45*
X501200Y156800D02*
D03*
X322300D02*
D03*
X412400D02*
D03*
D46*
X383017Y488414D02*
D03*
X433200Y508500D02*
D03*
X456700Y338315D02*
D03*
X348871Y495471D02*
D03*
X493900Y414300D02*
D03*
X253599Y495243D02*
D03*
X406659Y542669D02*
D03*
X269100Y548300D02*
D03*
X313542Y420400D02*
D03*
X327362Y436160D02*
D03*
X327296Y445093D02*
D03*
X304400Y421100D02*
D03*
X327258Y454000D02*
D03*
X294700Y421700D02*
D03*
X327258Y464200D02*
D03*
X285200Y422400D02*
D03*
X277665Y338315D02*
D03*
X271497Y475900D02*
D03*
X276229Y467391D02*
D03*
X257700Y475900D02*
D03*
X342664Y418848D02*
D03*
X207300Y43600D02*
D03*
Y34100D02*
D03*
Y25300D02*
D03*
X367900Y338315D02*
D03*
M02*
