G04*
G04 #@! TF.GenerationSoftware,Altium Limited,Altium Designer,23.6.0 (18)*
G04*
G04 Layer_Color=16711935*
%FSLAX44Y44*%
%MOMM*%
G71*
G04*
G04 #@! TF.SameCoordinates,002E3AE9-4B00-44C7-B55F-2903AD9EE070*
G04*
G04*
G04 #@! TF.FilePolarity,Positive*
G04*
G01*
G75*
%ADD10C,0.2000*%
%ADD13C,0.1270*%
%ADD62C,0.0000*%
%ADD63C,0.0254*%
%ADD64C,0.1000*%
D10*
X382487Y437267D02*
G03*
X382487Y437267I-1000J0D01*
G01*
X441000Y543000D02*
G03*
X441000Y543000I-1000J0D01*
G01*
X142000Y66700D02*
G03*
X142000Y66700I-1000J0D01*
G01*
D13*
X458192Y294951D02*
G03*
X458950Y294200I762J11D01*
G01*
X473437D02*
G03*
X474194Y294951I-4J762D01*
G01*
X458950Y323410D02*
G03*
X458192Y322659I5J-762D01*
G01*
X474194D02*
G03*
X473437Y323410I-762J-10D01*
G01*
X279592Y296101D02*
G03*
X280350Y295350I762J11D01*
G01*
X294837D02*
G03*
X295595Y296101I-4J762D01*
G01*
X280350Y324560D02*
G03*
X279592Y323808I5J-762D01*
G01*
X295595D02*
G03*
X294837Y324560I-762J-10D01*
G01*
X385395Y322659D02*
G03*
X384637Y323410I-762J-10D01*
G01*
X370150D02*
G03*
X369393Y322659I5J-762D01*
G01*
X384637Y294200D02*
G03*
X385395Y294951I-4J762D01*
G01*
X369393D02*
G03*
X370150Y294200I762J11D01*
G01*
X357887Y427067D02*
Y532067D01*
X301887Y427067D02*
X357887D01*
X301887D02*
Y532067D01*
X357887D01*
X543000Y554000D02*
Y682000D01*
X447000D02*
X543000D01*
X447000Y554000D02*
Y682000D01*
Y554000D02*
X543000D01*
X146400Y46700D02*
Y131700D01*
Y46700D02*
X262400D01*
Y131700D01*
X146400D02*
X262400D01*
X474195Y322648D02*
Y322658D01*
X458193Y294951D02*
Y294962D01*
Y322648D02*
Y322658D01*
X474195Y294951D02*
Y294962D01*
X458950Y323410D02*
X458955D01*
X473433Y294200D02*
X473438D01*
X458955D02*
X473433D01*
Y323410D02*
X473438D01*
X458950Y294200D02*
X458955D01*
X458193Y294962D02*
Y322648D01*
X458955Y323410D02*
X473433D01*
X474195Y294962D02*
Y322648D01*
X455315Y297280D02*
X457852D01*
X451970Y301280D02*
X454210D01*
X455154D02*
X455315D01*
X454210D02*
X455154D01*
Y297280D02*
X455315D01*
X454210D02*
X455154D01*
X455315Y301280D02*
X457852D01*
X458193D01*
X457852Y297280D02*
X458193D01*
Y301280D01*
X451970Y297280D02*
Y301280D01*
Y297280D02*
X454210D01*
X455315Y306805D02*
X457852D01*
X451970Y310805D02*
X454210D01*
X455154D02*
X455315D01*
X454210D02*
X455154D01*
Y306805D02*
X455315D01*
X454210D02*
X455154D01*
X455315Y310805D02*
X457852D01*
X458193D01*
X457852Y306805D02*
X458193D01*
Y310805D01*
X451970Y306805D02*
Y310805D01*
Y306805D02*
X454210D01*
X455315Y316330D02*
X457852D01*
X451970Y320330D02*
X454210D01*
X455154D02*
X455315D01*
X454210D02*
X455154D01*
Y316330D02*
X455315D01*
X454210D02*
X455154D01*
X455315Y320330D02*
X457852D01*
X458193D01*
X457852Y316330D02*
X458193D01*
Y320330D01*
X451970Y316330D02*
Y320330D01*
Y316330D02*
X454210D01*
X474536Y301280D02*
X477072D01*
X478178Y297280D02*
X480418D01*
X477072D02*
X477234D01*
X478178D01*
X477072Y301280D02*
X477234D01*
X478178D01*
X474536Y297280D02*
X477072D01*
X474195D02*
X474536D01*
X474195Y301280D02*
X474536D01*
X474195Y297280D02*
Y301280D01*
X480418Y297280D02*
Y301280D01*
X478178D02*
X480418D01*
X474536Y320330D02*
X477072D01*
X478178Y316330D02*
X480418D01*
X477072D02*
X477234D01*
X478178D01*
X477072Y320330D02*
X477234D01*
X478178D01*
X474536Y316330D02*
X477072D01*
X474195D02*
X474536D01*
X474195Y320330D02*
X474536D01*
X474195Y316330D02*
Y320330D01*
X480418Y316330D02*
Y320330D01*
X478178D02*
X480418D01*
X126763Y181700D02*
X134763D01*
X126763Y165700D02*
X134763D01*
Y181700D01*
X126763Y165700D02*
Y181700D01*
X295595Y323798D02*
Y323808D01*
X279592Y296101D02*
Y296112D01*
Y323798D02*
Y323808D01*
X295595Y296101D02*
Y296112D01*
X280350Y324560D02*
X280354D01*
X294832Y295350D02*
X294837D01*
X280354D02*
X294832D01*
Y324560D02*
X294837D01*
X280350Y295350D02*
X280354D01*
X279592Y296112D02*
Y323798D01*
X280354Y324560D02*
X294832D01*
X295595Y296112D02*
Y323798D01*
X276715Y298430D02*
X279252D01*
X273370Y302430D02*
X275610D01*
X276553D02*
X276715D01*
X275610D02*
X276553D01*
Y298430D02*
X276715D01*
X275610D02*
X276553D01*
X276715Y302430D02*
X279252D01*
X279592D01*
X279252Y298430D02*
X279592D01*
Y302430D01*
X273370Y298430D02*
Y302430D01*
Y298430D02*
X275610D01*
X276715Y307955D02*
X279252D01*
X273370Y311955D02*
X275610D01*
X276553D02*
X276715D01*
X275610D02*
X276553D01*
Y307955D02*
X276715D01*
X275610D02*
X276553D01*
X276715Y311955D02*
X279252D01*
X279592D01*
X279252Y307955D02*
X279592D01*
Y311955D01*
X273370Y307955D02*
Y311955D01*
Y307955D02*
X275610D01*
X276715Y317480D02*
X279252D01*
X273370Y321480D02*
X275610D01*
X276553D02*
X276715D01*
X275610D02*
X276553D01*
Y317480D02*
X276715D01*
X275610D02*
X276553D01*
X276715Y321480D02*
X279252D01*
X279592D01*
X279252Y317480D02*
X279592D01*
Y321480D01*
X273370Y317480D02*
Y321480D01*
Y317480D02*
X275610D01*
X295935Y302430D02*
X298472D01*
X299577Y298430D02*
X301817D01*
X298472D02*
X298633D01*
X299577D01*
X298472Y302430D02*
X298633D01*
X299577D01*
X295935Y298430D02*
X298472D01*
X295595D02*
X295935D01*
X295595Y302430D02*
X295935D01*
X295595Y298430D02*
Y302430D01*
X301817Y298430D02*
Y302430D01*
X299577D02*
X301817D01*
X295935Y321480D02*
X298472D01*
X299577Y317480D02*
X301817D01*
X298472D02*
X298633D01*
X299577D01*
X298472Y321480D02*
X298633D01*
X299577D01*
X295935Y317480D02*
X298472D01*
X295595D02*
X295935D01*
X295595Y321480D02*
X295935D01*
X295595Y317480D02*
Y321480D01*
X301817Y317480D02*
Y321480D01*
X299577D02*
X301817D01*
X389377Y320330D02*
X391618D01*
Y316330D02*
Y320330D01*
X385395Y316330D02*
Y320330D01*
X385736D01*
X385395Y316330D02*
X385736D01*
X388272D01*
X388434Y320330D02*
X389377D01*
X388272D02*
X388434D01*
Y316330D02*
X389377D01*
X388272D02*
X388434D01*
X389377D02*
X391618D01*
X385736Y320330D02*
X388272D01*
X389377Y301280D02*
X391618D01*
Y297280D02*
Y301280D01*
X385395Y297280D02*
Y301280D01*
X385736D01*
X385395Y297280D02*
X385736D01*
X388272D01*
X388434Y301280D02*
X389377D01*
X388272D02*
X388434D01*
Y297280D02*
X389377D01*
X388272D02*
X388434D01*
X389377D02*
X391618D01*
X385736Y301280D02*
X388272D01*
X363170Y316330D02*
X365410D01*
X363170D02*
Y320330D01*
X369393Y316330D02*
Y320330D01*
X369052Y316330D02*
X369393D01*
X369052Y320330D02*
X369393D01*
X366515D02*
X369052D01*
X365410Y316330D02*
X366353D01*
X366515D01*
X365410Y320330D02*
X366353D01*
X366515D01*
X363170D02*
X365410D01*
X366515Y316330D02*
X369052D01*
X363170Y306805D02*
X365410D01*
X363170D02*
Y310805D01*
X369393Y306805D02*
Y310805D01*
X369052Y306805D02*
X369393D01*
X369052Y310805D02*
X369393D01*
X366515D02*
X369052D01*
X365410Y306805D02*
X366353D01*
X366515D01*
X365410Y310805D02*
X366353D01*
X366515D01*
X363170D02*
X365410D01*
X366515Y306805D02*
X369052D01*
X363170Y297280D02*
X365410D01*
X363170D02*
Y301280D01*
X369393Y297280D02*
Y301280D01*
X369052Y297280D02*
X369393D01*
X369052Y301280D02*
X369393D01*
X366515D02*
X369052D01*
X365410Y297280D02*
X366353D01*
X366515D01*
X365410Y301280D02*
X366353D01*
X366515D01*
X363170D02*
X365410D01*
X366515Y297280D02*
X369052D01*
X385395Y294962D02*
Y322648D01*
X370155Y323410D02*
X384633D01*
X369393Y294962D02*
Y322648D01*
X370150Y294200D02*
X370155D01*
X384633Y323410D02*
X384637D01*
X370155Y294200D02*
X384633D01*
X384637D01*
X370150Y323410D02*
X370155D01*
X385395Y294951D02*
Y294962D01*
X369393Y322648D02*
Y322658D01*
Y294951D02*
Y294962D01*
X385395Y322648D02*
Y322658D01*
D62*
X503945Y445211D02*
G03*
X503945Y445211I-762J0D01*
G01*
D63*
X508923Y430225D02*
Y447751D01*
X478443Y430225D02*
X508923D01*
X478443D02*
Y447751D01*
X508923D01*
X496223Y424002D02*
Y430225D01*
X491143Y424002D02*
X496223D01*
X491143D02*
Y430225D01*
X496223D01*
X481643Y447751D02*
Y453974D01*
X486723D01*
Y447751D02*
Y453974D01*
X481643Y447751D02*
X486723D01*
X500643D02*
Y453974D01*
X505723D01*
Y447751D02*
Y453974D01*
X500643Y447751D02*
X505723D01*
D64*
X489200Y233300D02*
X513200D01*
Y170300D02*
Y233300D01*
X489200Y170300D02*
Y233300D01*
Y170300D02*
X513200D01*
X310300Y170300D02*
X334300D01*
X310300D02*
Y233300D01*
X334300Y170300D02*
Y233300D01*
X310300D02*
X334300D01*
X400400D02*
X424400D01*
Y170300D02*
Y233300D01*
X400400Y170300D02*
Y233300D01*
Y170300D02*
X424400D01*
M02*
