G04*
G04 #@! TF.GenerationSoftware,Altium Limited,Altium Designer,23.6.0 (18)*
G04*
G04 Layer_Color=65535*
%FSLAX44Y44*%
%MOMM*%
G71*
G04*
G04 #@! TF.SameCoordinates,002E3AE9-4B00-44C7-B55F-2903AD9EE070*
G04*
G04*
G04 #@! TF.FilePolarity,Positive*
G04*
G01*
G75*
%ADD10C,0.2000*%
%ADD11C,0.2500*%
%ADD12C,0.1524*%
%ADD13C,0.1270*%
%ADD14C,0.2540*%
%ADD15C,0.1778*%
%ADD16R,0.7620X0.2540*%
%ADD17R,0.2540X0.7620*%
G36*
X301333Y671850D02*
X302754D01*
Y671566D01*
X303323D01*
Y671281D01*
X303607D01*
Y670997D01*
X303892D01*
Y670713D01*
X304460D01*
Y670428D01*
X304745D01*
Y670144D01*
X305029D01*
Y669860D01*
X305313D01*
Y669575D01*
X305598D01*
Y669291D01*
X305882D01*
Y669007D01*
X306166D01*
Y668722D01*
X306451D01*
Y668438D01*
X306735D01*
Y668154D01*
X307019D01*
Y667869D01*
X307304D01*
Y667585D01*
X307588D01*
Y667301D01*
X307872D01*
Y667016D01*
X308157D01*
Y666732D01*
X308441D01*
Y666448D01*
X308725D01*
Y666163D01*
X309010D01*
Y665879D01*
X309294D01*
Y665595D01*
X309578D01*
Y665310D01*
X309863D01*
Y665026D01*
X310147D01*
Y664742D01*
X310431D01*
Y664457D01*
X310716D01*
Y664173D01*
X311000D01*
Y663889D01*
X311284D01*
Y663605D01*
X311569D01*
Y663320D01*
X311853D01*
Y663036D01*
X312137D01*
Y662751D01*
X312422D01*
Y662467D01*
X312706D01*
Y662183D01*
X312990D01*
Y661898D01*
X313275D01*
Y661614D01*
X313559D01*
Y661330D01*
X313843D01*
Y661046D01*
X314128D01*
Y660761D01*
X314412D01*
Y660477D01*
X314696D01*
Y660192D01*
X314981D01*
Y659908D01*
X315265D01*
Y659624D01*
X315549D01*
Y659340D01*
X316118D01*
Y659055D01*
X316402D01*
Y658771D01*
X316687D01*
Y658487D01*
X316971D01*
Y658202D01*
X317255D01*
Y657918D01*
X317540D01*
Y657634D01*
X317824D01*
Y657349D01*
X318108D01*
Y657065D01*
X318393D01*
Y656781D01*
X318677D01*
Y656496D01*
X318961D01*
Y656212D01*
X319245D01*
Y655928D01*
X319530D01*
Y655643D01*
X319814D01*
Y655359D01*
X320098D01*
Y655075D01*
X320383D01*
Y654790D01*
X320667D01*
Y654506D01*
X320951D01*
Y654222D01*
X321236D01*
Y653937D01*
X321520D01*
Y653653D01*
X321805D01*
Y653369D01*
X322089D01*
Y653084D01*
X322373D01*
Y652800D01*
X322657D01*
Y652516D01*
X322942D01*
Y652231D01*
X323226D01*
Y651947D01*
X323510D01*
Y651663D01*
X323795D01*
Y651378D01*
X324079D01*
Y651094D01*
X324363D01*
Y650810D01*
X324648D01*
Y650525D01*
X324932D01*
Y650241D01*
X325216D01*
Y649957D01*
X325501D01*
Y649672D01*
X325785D01*
Y649388D01*
X326069D01*
Y649104D01*
X326354D01*
Y648819D01*
X326638D01*
Y648535D01*
X326922D01*
Y648251D01*
X327491D01*
Y647966D01*
X327775D01*
Y647682D01*
X328060D01*
Y647398D01*
X328344D01*
Y647113D01*
X328628D01*
Y646829D01*
X328913D01*
Y646545D01*
X329197D01*
Y646260D01*
X329481D01*
Y645976D01*
X329766D01*
Y645692D01*
X330050D01*
Y645407D01*
X330334D01*
Y645123D01*
X330619D01*
Y644839D01*
X330903D01*
Y644555D01*
X331187D01*
Y644270D01*
X331472D01*
Y643986D01*
X331756D01*
Y643701D01*
X332040D01*
Y643417D01*
X332325D01*
Y643133D01*
X332609D01*
Y642849D01*
X332893D01*
Y642564D01*
X333178D01*
Y642280D01*
X333462D01*
Y641995D01*
X333746D01*
Y641711D01*
X334031D01*
Y641427D01*
X334315D01*
Y641143D01*
X334599D01*
Y640858D01*
X334884D01*
Y640574D01*
X335168D01*
Y640290D01*
X335452D01*
Y640005D01*
X335737D01*
Y639721D01*
X336021D01*
Y639437D01*
X341423D01*
Y639152D01*
X342560D01*
Y638868D01*
X342845D01*
Y638584D01*
X343129D01*
Y638299D01*
X343413D01*
Y637446D01*
X343698D01*
Y633466D01*
X343413D01*
Y632613D01*
X367581D01*
Y632328D01*
X372984D01*
Y643986D01*
X372699D01*
Y644270D01*
X372131D01*
Y644555D01*
X371846D01*
Y644839D01*
X371562D01*
Y645123D01*
X370993D01*
Y645407D01*
X370709D01*
Y645692D01*
X370425D01*
Y645976D01*
X370140D01*
Y646260D01*
X369856D01*
Y646545D01*
X369572D01*
Y646829D01*
X369287D01*
Y647113D01*
X369003D01*
Y647398D01*
X368719D01*
Y647682D01*
X368434D01*
Y648251D01*
X368150D01*
Y648535D01*
X367866D01*
Y648819D01*
X367581D01*
Y649388D01*
X367297D01*
Y649672D01*
X367013D01*
Y650241D01*
X366728D01*
Y650810D01*
X366444D01*
Y651378D01*
X366160D01*
Y651947D01*
X365875D01*
Y652516D01*
X365591D01*
Y653084D01*
X365307D01*
Y653937D01*
X365022D01*
Y654790D01*
X364738D01*
Y655928D01*
X364454D01*
Y657349D01*
X364169D01*
Y659908D01*
X363885D01*
Y662183D01*
X364169D01*
Y664742D01*
X364454D01*
Y666448D01*
X364738D01*
Y667585D01*
X365022D01*
Y668438D01*
X365307D01*
Y669291D01*
X365591D01*
Y670144D01*
X365875D01*
Y670428D01*
X366160D01*
Y670997D01*
X366728D01*
Y671281D01*
X367297D01*
Y671566D01*
X368150D01*
Y671281D01*
X369003D01*
Y670997D01*
X369287D01*
Y670713D01*
X369572D01*
Y670144D01*
X369856D01*
Y669860D01*
X370140D01*
Y669575D01*
X370425D01*
Y669291D01*
X370993D01*
Y669007D01*
X371278D01*
Y668722D01*
X371846D01*
Y668438D01*
X372131D01*
Y668154D01*
X372699D01*
Y667869D01*
X372984D01*
Y667585D01*
X373552D01*
Y667301D01*
X373837D01*
Y667016D01*
X374405D01*
Y666732D01*
X374689D01*
Y666448D01*
X375258D01*
Y666163D01*
X375542D01*
Y665879D01*
X376111D01*
Y665595D01*
X376395D01*
Y665310D01*
X376964D01*
Y665026D01*
X377248D01*
Y664742D01*
X377817D01*
Y664457D01*
X378102D01*
Y664173D01*
X378670D01*
Y663889D01*
X378955D01*
Y663605D01*
X379523D01*
Y663320D01*
X379807D01*
Y663036D01*
X380376D01*
Y662751D01*
X380660D01*
Y662467D01*
X381229D01*
Y662183D01*
X381513D01*
Y661898D01*
X382082D01*
Y661614D01*
X382366D01*
Y661330D01*
X382935D01*
Y661046D01*
X383219D01*
Y660761D01*
X383788D01*
Y661046D01*
X384072D01*
Y661898D01*
X383788D01*
Y662183D01*
X383504D01*
Y662751D01*
X383219D01*
Y663889D01*
X382935D01*
Y665879D01*
X383219D01*
Y667016D01*
X383504D01*
Y667585D01*
X383788D01*
Y668154D01*
X384072D01*
Y668438D01*
X384357D01*
Y668722D01*
X384641D01*
Y669007D01*
X384925D01*
Y669291D01*
X385210D01*
Y669575D01*
X385494D01*
Y669860D01*
X386063D01*
Y670144D01*
X386631D01*
Y670428D01*
X387484D01*
Y670713D01*
X388622D01*
Y670997D01*
X390612D01*
Y670713D01*
X391749D01*
Y670428D01*
X392602D01*
Y670144D01*
X393171D01*
Y669860D01*
X393740D01*
Y669575D01*
X394024D01*
Y669291D01*
X394593D01*
Y669007D01*
X394877D01*
Y668722D01*
X395161D01*
Y668154D01*
X395446D01*
Y667869D01*
X395730D01*
Y667301D01*
X396014D01*
Y666732D01*
X396298D01*
Y665879D01*
X396583D01*
Y663605D01*
X396298D01*
Y662467D01*
X396014D01*
Y661898D01*
X395730D01*
Y661614D01*
X395446D01*
Y661046D01*
X395161D01*
Y660761D01*
X394877D01*
Y660477D01*
X394593D01*
Y660192D01*
X394024D01*
Y659908D01*
X393740D01*
Y659624D01*
X393171D01*
Y659340D01*
X392602D01*
Y659055D01*
X391749D01*
Y658771D01*
X388053D01*
Y659055D01*
X387200D01*
Y658202D01*
X387484D01*
Y657918D01*
X388053D01*
Y657634D01*
X388337D01*
Y657349D01*
X388906D01*
Y657065D01*
X389190D01*
Y656781D01*
X389759D01*
Y656496D01*
X390043D01*
Y656212D01*
X390612D01*
Y655928D01*
X390896D01*
Y655643D01*
X391465D01*
Y655359D01*
X391749D01*
Y655075D01*
X392318D01*
Y654790D01*
X392602D01*
Y654506D01*
X393171D01*
Y654222D01*
X393455D01*
Y653937D01*
X394024D01*
Y653653D01*
X394308D01*
Y653369D01*
X394877D01*
Y653084D01*
X395161D01*
Y652800D01*
X395730D01*
Y652516D01*
X396014D01*
Y652231D01*
X396583D01*
Y651947D01*
X396867D01*
Y651663D01*
X397436D01*
Y651378D01*
X397720D01*
Y651094D01*
X398289D01*
Y650810D01*
X398573D01*
Y650525D01*
X399142D01*
Y650241D01*
X399426D01*
Y649957D01*
X399710D01*
Y649672D01*
X400279D01*
Y649388D01*
X400848D01*
Y649104D01*
X401132D01*
Y648819D01*
X401416D01*
Y648535D01*
X401701D01*
Y648251D01*
X401985D01*
Y647966D01*
X402269D01*
Y647398D01*
X402554D01*
Y647113D01*
X402269D01*
Y646260D01*
X401985D01*
Y645692D01*
X401701D01*
Y645407D01*
X401416D01*
Y645123D01*
X401132D01*
Y644839D01*
X400563D01*
Y644555D01*
X400279D01*
Y644270D01*
X399710D01*
Y643986D01*
X399142D01*
Y643701D01*
X398573D01*
Y643417D01*
X398004D01*
Y643133D01*
X397436D01*
Y642849D01*
X396867D01*
Y642564D01*
X396014D01*
Y642280D01*
X395446D01*
Y641995D01*
X394593D01*
Y641711D01*
X393740D01*
Y641427D01*
X392602D01*
Y641143D01*
X391465D01*
Y640858D01*
X390043D01*
Y640574D01*
X387769D01*
Y640290D01*
X383219D01*
Y640574D01*
X380945D01*
Y640858D01*
X379807D01*
Y641143D01*
X378670D01*
Y641427D01*
X377817D01*
Y641711D01*
X377533D01*
Y641427D01*
X377248D01*
Y641143D01*
X377533D01*
Y632328D01*
X388053D01*
Y632044D01*
X389759D01*
Y631760D01*
X390612D01*
Y631475D01*
X391181D01*
Y631191D01*
X391749D01*
Y630907D01*
X392318D01*
Y630622D01*
X392602D01*
Y630338D01*
X393171D01*
Y630054D01*
X393455D01*
Y629769D01*
X393740D01*
Y629485D01*
X394024D01*
Y629201D01*
X394308D01*
Y628916D01*
X394593D01*
Y628632D01*
X394877D01*
Y628063D01*
X395161D01*
Y627779D01*
X395446D01*
Y627210D01*
X395730D01*
Y626642D01*
X396014D01*
Y626073D01*
X396298D01*
Y625220D01*
X396583D01*
Y624367D01*
X396867D01*
Y622661D01*
X397151D01*
Y618965D01*
X396867D01*
Y607876D01*
X397151D01*
Y600199D01*
X397436D01*
Y599915D01*
X397151D01*
Y598778D01*
X397436D01*
Y598209D01*
X397151D01*
Y597925D01*
X398289D01*
Y597640D01*
X399426D01*
Y597356D01*
X400279D01*
Y597072D01*
X400848D01*
Y596787D01*
X401701D01*
Y596503D01*
X402269D01*
Y596219D01*
X402554D01*
Y596503D01*
X403122D01*
Y596219D01*
X402838D01*
Y595934D01*
X403122D01*
Y595650D01*
X403691D01*
Y595366D01*
X404260D01*
Y595081D01*
X404544D01*
Y594797D01*
X404828D01*
Y594513D01*
X405397D01*
Y594228D01*
X405681D01*
Y593944D01*
X405966D01*
Y593660D01*
X406819D01*
Y592522D01*
X407956D01*
Y592238D01*
X408240D01*
Y591954D01*
X408525D01*
Y591101D01*
X409378D01*
Y590532D01*
X409662D01*
Y590248D01*
X409946D01*
Y589963D01*
X410231D01*
Y589395D01*
X410515D01*
Y589110D01*
X410799D01*
Y588826D01*
X410515D01*
Y588542D01*
X411084D01*
Y588257D01*
X411368D01*
Y587689D01*
X411652D01*
Y587405D01*
X411368D01*
Y587120D01*
X411937D01*
Y586836D01*
X412221D01*
Y586267D01*
X411937D01*
Y585983D01*
X412505D01*
Y585414D01*
X412789D01*
Y584561D01*
X413074D01*
Y583708D01*
X413358D01*
Y582855D01*
X413643D01*
Y581434D01*
X413927D01*
Y580012D01*
X413358D01*
Y579728D01*
X413643D01*
Y579159D01*
X413927D01*
Y577453D01*
X413643D01*
Y576600D01*
X413927D01*
Y575178D01*
X413643D01*
Y574041D01*
X413358D01*
Y573188D01*
X413074D01*
Y572904D01*
X412789D01*
Y572619D01*
X413074D01*
Y572051D01*
X412789D01*
Y571482D01*
X412505D01*
Y570913D01*
X412221D01*
Y570060D01*
X411937D01*
Y569776D01*
X411368D01*
Y569492D01*
X411652D01*
Y569207D01*
X411084D01*
Y568923D01*
X411368D01*
Y568639D01*
X411084D01*
Y568354D01*
X410515D01*
Y568070D01*
X410799D01*
Y567786D01*
X410515D01*
Y567217D01*
X410231D01*
Y566933D01*
X409946D01*
Y566648D01*
X409662D01*
Y566364D01*
X409093D01*
Y565796D01*
X408809D01*
Y565511D01*
X408240D01*
Y565227D01*
X408525D01*
Y564943D01*
X408240D01*
Y564658D01*
X407956D01*
Y564374D01*
X407672D01*
Y564090D01*
X407103D01*
Y563805D01*
X406819D01*
Y563521D01*
X405966D01*
Y562952D01*
X405681D01*
Y562668D01*
X405397D01*
Y562952D01*
X405113D01*
Y562384D01*
X403691D01*
Y562099D01*
X403407D01*
Y561815D01*
X402838D01*
Y561531D01*
X402269D01*
Y561246D01*
X401416D01*
Y560962D01*
X400563D01*
Y560678D01*
X399710D01*
Y560393D01*
X398289D01*
Y560109D01*
X396867D01*
Y559825D01*
X394308D01*
Y559540D01*
X392034D01*
Y559825D01*
X390043D01*
Y560109D01*
X388622D01*
Y560393D01*
X387769D01*
Y560678D01*
X386916D01*
Y560962D01*
X385494D01*
Y561246D01*
X384925D01*
Y561531D01*
X384072D01*
Y561815D01*
X383219D01*
Y562099D01*
X382935D01*
Y562384D01*
X383219D01*
Y562668D01*
X382366D01*
Y563237D01*
X381798D01*
Y563521D01*
X381229D01*
Y563805D01*
X380945D01*
Y564090D01*
X380660D01*
Y564374D01*
X380376D01*
Y564658D01*
X380092D01*
Y564943D01*
X379807D01*
Y565227D01*
X379523D01*
Y565511D01*
X379807D01*
Y565796D01*
X379523D01*
Y566080D01*
X379239D01*
Y565796D01*
X378955D01*
Y566080D01*
X378670D01*
Y566364D01*
X378955D01*
Y566933D01*
X378670D01*
Y566648D01*
X378386D01*
Y566933D01*
X378102D01*
Y567217D01*
X377817D01*
Y567786D01*
X377533D01*
Y568070D01*
X377817D01*
Y568354D01*
X377248D01*
Y568639D01*
X376964D01*
Y569207D01*
X376680D01*
Y569492D01*
X376964D01*
Y569776D01*
X376395D01*
Y570345D01*
X376111D01*
Y571198D01*
X375827D01*
Y571766D01*
X375542D01*
Y572619D01*
X375258D01*
Y573472D01*
X375542D01*
Y573757D01*
X375258D01*
Y574041D01*
X374974D01*
Y574894D01*
X374689D01*
Y576031D01*
X372984D01*
Y574325D01*
X372699D01*
Y574041D01*
X372415D01*
Y573757D01*
X372131D01*
Y573472D01*
X372699D01*
Y572619D01*
X372415D01*
Y571482D01*
X372131D01*
Y570913D01*
X371846D01*
Y570629D01*
X371562D01*
Y570345D01*
X371846D01*
Y569776D01*
X371562D01*
Y569207D01*
X371278D01*
Y568639D01*
X370993D01*
Y568070D01*
X370709D01*
Y567501D01*
X370425D01*
Y566933D01*
X370140D01*
Y566648D01*
X369856D01*
Y566080D01*
X369572D01*
Y565796D01*
X369287D01*
Y565227D01*
X369003D01*
Y564943D01*
X368719D01*
Y564658D01*
X368434D01*
Y564090D01*
X367866D01*
Y563521D01*
X367581D01*
Y563237D01*
X367297D01*
Y562952D01*
X367013D01*
Y562668D01*
X366728D01*
Y562384D01*
X366444D01*
Y562099D01*
X366160D01*
Y561815D01*
X365875D01*
Y562099D01*
X365591D01*
Y561246D01*
X365022D01*
Y560962D01*
X364738D01*
Y560678D01*
X364454D01*
Y560393D01*
X363601D01*
Y560109D01*
X363032D01*
Y559540D01*
X362463D01*
Y559256D01*
X361895D01*
Y558972D01*
X361610D01*
Y558687D01*
X361042D01*
Y558972D01*
X360757D01*
Y558687D01*
X360189D01*
Y558119D01*
X359905D01*
Y558403D01*
X359620D01*
Y558119D01*
X359052D01*
Y557834D01*
X358483D01*
Y557550D01*
X357630D01*
Y557266D01*
X355639D01*
Y556981D01*
X351659D01*
Y557550D01*
X349669D01*
Y557834D01*
X348531D01*
Y558119D01*
X347678D01*
Y558403D01*
X346825D01*
Y558687D01*
X345972D01*
Y558972D01*
X345404D01*
Y559256D01*
X344551D01*
Y559540D01*
X344266D01*
Y559825D01*
X343698D01*
Y560109D01*
X343129D01*
Y560393D01*
X342845D01*
Y560678D01*
X342276D01*
Y560962D01*
X341992D01*
Y561246D01*
X341423D01*
Y561531D01*
X341139D01*
Y561815D01*
X340854D01*
Y562099D01*
X340570D01*
Y562384D01*
X340286D01*
Y562668D01*
X339717D01*
Y562952D01*
X339433D01*
Y563521D01*
X338864D01*
Y564090D01*
X338580D01*
Y564374D01*
X338296D01*
Y564658D01*
X338011D01*
Y564943D01*
X337727D01*
Y565227D01*
X337443D01*
Y565796D01*
X337158D01*
Y566080D01*
X336874D01*
Y566648D01*
X336590D01*
Y566933D01*
X336305D01*
Y567501D01*
X336021D01*
Y568070D01*
X335737D01*
Y568639D01*
X335452D01*
Y569207D01*
X335168D01*
Y569776D01*
X334884D01*
Y570629D01*
X334599D01*
Y571198D01*
X334315D01*
Y572335D01*
X334031D01*
Y573472D01*
X333746D01*
Y574610D01*
X333462D01*
Y576600D01*
X332040D01*
Y575747D01*
X331756D01*
Y574041D01*
X331472D01*
Y573188D01*
X331187D01*
Y572335D01*
X330903D01*
Y571482D01*
X330619D01*
Y570913D01*
X330334D01*
Y570345D01*
X330050D01*
Y569776D01*
X329766D01*
Y569207D01*
X329481D01*
Y568923D01*
X329197D01*
Y568354D01*
X328913D01*
Y568070D01*
X328628D01*
Y567501D01*
X328344D01*
Y567217D01*
X328060D01*
Y566933D01*
X327775D01*
Y566364D01*
X327491D01*
Y566080D01*
X327207D01*
Y565796D01*
X326922D01*
Y565511D01*
X326638D01*
Y565227D01*
X326354D01*
Y564943D01*
X326069D01*
Y564658D01*
X325501D01*
Y564374D01*
X325216D01*
Y564090D01*
X324932D01*
Y563805D01*
X324648D01*
Y563521D01*
X324079D01*
Y563237D01*
X323795D01*
Y562952D01*
X323510D01*
Y562668D01*
X323226D01*
Y562384D01*
X322942D01*
Y562099D01*
X323226D01*
Y561815D01*
X322942D01*
Y562099D01*
X322657D01*
Y561815D01*
X322373D01*
Y561531D01*
X322089D01*
Y561246D01*
X321520D01*
Y560962D01*
X321236D01*
Y560678D01*
X320951D01*
Y560393D01*
X320383D01*
Y560109D01*
X317255D01*
Y559825D01*
X316118D01*
Y559540D01*
X314412D01*
Y559256D01*
X311569D01*
Y559540D01*
X309294D01*
Y559825D01*
X308157D01*
Y560109D01*
X307019D01*
Y560393D01*
X306166D01*
Y560678D01*
X305598D01*
Y560962D01*
X305029D01*
Y561246D01*
X304460D01*
Y561531D01*
X303892D01*
Y561815D01*
X303323D01*
Y562099D01*
X303039D01*
Y562384D01*
X302470D01*
Y562668D01*
X302186D01*
Y562952D01*
X301901D01*
Y563237D01*
X301333D01*
Y563521D01*
X301049D01*
Y563805D01*
X300764D01*
Y564090D01*
X300480D01*
Y564374D01*
X300196D01*
Y564658D01*
X299911D01*
Y564943D01*
X299627D01*
Y565227D01*
X299342D01*
Y565511D01*
X299058D01*
Y565796D01*
X298774D01*
Y566080D01*
X298489D01*
Y566648D01*
X298205D01*
Y566933D01*
X297921D01*
Y567217D01*
X297637D01*
Y567786D01*
X297352D01*
Y568354D01*
X297068D01*
Y568639D01*
X296784D01*
Y569207D01*
X296499D01*
Y569776D01*
X296215D01*
Y570345D01*
X295931D01*
Y571198D01*
X295646D01*
Y572051D01*
X295362D01*
Y572904D01*
X295078D01*
Y574041D01*
X294793D01*
Y575747D01*
X294509D01*
Y579728D01*
X294225D01*
Y579443D01*
X293656D01*
Y579159D01*
X293087D01*
Y579728D01*
X293372D01*
Y580012D01*
X293940D01*
Y580581D01*
X294509D01*
Y581434D01*
X294225D01*
Y582571D01*
X294509D01*
Y583708D01*
X294793D01*
Y584561D01*
X295362D01*
Y584846D01*
X295078D01*
Y585414D01*
X295362D01*
Y585983D01*
X295646D01*
Y586552D01*
X296215D01*
Y586836D01*
X295931D01*
Y587120D01*
X296499D01*
Y587405D01*
X296215D01*
Y587689D01*
X296499D01*
Y588257D01*
X296784D01*
Y588826D01*
X297068D01*
Y589110D01*
X297637D01*
Y589395D01*
X297352D01*
Y589679D01*
X297637D01*
Y589963D01*
X297921D01*
Y590248D01*
X298205D01*
Y590816D01*
X298489D01*
Y591101D01*
X298774D01*
Y591385D01*
X299058D01*
Y591954D01*
X299342D01*
Y592238D01*
X299627D01*
Y592522D01*
X299911D01*
Y592807D01*
X300196D01*
Y593091D01*
X300480D01*
Y593375D01*
X300764D01*
Y593660D01*
X301333D01*
Y593944D01*
X301617D01*
Y594513D01*
X301901D01*
Y594797D01*
X302470D01*
Y595081D01*
X302754D01*
Y595366D01*
X303039D01*
Y595650D01*
X303892D01*
Y596219D01*
X304176D01*
Y596503D01*
X304745D01*
Y596787D01*
X305598D01*
Y597072D01*
X305882D01*
Y597356D01*
X306166D01*
Y597640D01*
X306735D01*
Y597925D01*
X307872D01*
Y598209D01*
X308157D01*
Y597925D01*
X308441D01*
Y598493D01*
X308725D01*
Y598778D01*
X309010D01*
Y609013D01*
X309294D01*
Y614700D01*
X309010D01*
Y615269D01*
X308725D01*
Y615553D01*
X309294D01*
Y615269D01*
X309578D01*
Y620387D01*
X309294D01*
Y620671D01*
X309578D01*
Y620955D01*
X309294D01*
Y622093D01*
X309578D01*
Y622661D01*
X309294D01*
Y625504D01*
X309578D01*
Y626357D01*
X309863D01*
Y627495D01*
X310147D01*
Y628063D01*
X310431D01*
Y628632D01*
X310716D01*
Y628916D01*
X311284D01*
Y629201D01*
X311569D01*
Y629485D01*
X311853D01*
Y629769D01*
X312137D01*
Y630054D01*
X312422D01*
Y630338D01*
X312706D01*
Y630622D01*
X313275D01*
Y630907D01*
X313559D01*
Y631191D01*
X313843D01*
Y631475D01*
X314412D01*
Y631760D01*
X314981D01*
Y632044D01*
X315549D01*
Y632328D01*
X316402D01*
Y632613D01*
X317824D01*
Y632897D01*
X324079D01*
Y636309D01*
Y636593D01*
X324363D01*
Y638299D01*
X324648D01*
Y638868D01*
X324932D01*
Y639152D01*
X325216D01*
Y639437D01*
X325501D01*
Y639721D01*
X326638D01*
Y640005D01*
X328060D01*
Y639721D01*
X329481D01*
Y640005D01*
X329197D01*
Y640290D01*
X328913D01*
Y640574D01*
X328628D01*
Y640858D01*
X328344D01*
Y641143D01*
X328060D01*
Y641427D01*
X327775D01*
Y641711D01*
X327491D01*
Y641995D01*
X327207D01*
Y642280D01*
X326922D01*
Y642564D01*
X326638D01*
Y642849D01*
X326354D01*
Y643133D01*
X326069D01*
Y643417D01*
X325785D01*
Y643701D01*
X325501D01*
Y643986D01*
X325216D01*
Y644270D01*
X324932D01*
Y644555D01*
X324648D01*
Y644839D01*
X324363D01*
Y645123D01*
X324079D01*
Y645407D01*
X323510D01*
Y645692D01*
X323226D01*
Y645976D01*
X322942D01*
Y646260D01*
X322657D01*
Y646545D01*
X322373D01*
Y646829D01*
X322089D01*
Y647113D01*
X321805D01*
Y647398D01*
X321520D01*
Y647682D01*
X321236D01*
Y647966D01*
X320951D01*
Y648251D01*
X320667D01*
Y648535D01*
X320383D01*
Y648819D01*
X320098D01*
Y649104D01*
X319814D01*
Y649388D01*
X319530D01*
Y649672D01*
X319245D01*
Y649957D01*
X318961D01*
Y650241D01*
X318677D01*
Y650525D01*
X318393D01*
Y650810D01*
X318108D01*
Y651094D01*
X317824D01*
Y651378D01*
X317540D01*
Y651663D01*
X317255D01*
Y651947D01*
X316971D01*
Y652231D01*
X316687D01*
Y652516D01*
X316402D01*
Y652800D01*
X316118D01*
Y653084D01*
X315834D01*
Y653369D01*
X315549D01*
Y653653D01*
X315265D01*
Y653937D01*
X314981D01*
Y654222D01*
X314696D01*
Y654506D01*
X314412D01*
Y654790D01*
X314128D01*
Y655075D01*
X313843D01*
Y655359D01*
X313559D01*
Y655643D01*
X313275D01*
Y655928D01*
X312990D01*
Y656212D01*
X312706D01*
Y656496D01*
X312422D01*
Y656781D01*
X312137D01*
Y657065D01*
X311853D01*
Y657349D01*
X311284D01*
Y657634D01*
X311000D01*
Y657918D01*
X310716D01*
Y658202D01*
X310431D01*
Y658487D01*
X310147D01*
Y658771D01*
X309863D01*
Y659055D01*
X309578D01*
Y659340D01*
X309294D01*
Y659624D01*
X309010D01*
Y659908D01*
X308725D01*
Y660192D01*
X308441D01*
Y660477D01*
X308157D01*
Y660761D01*
X307872D01*
Y661046D01*
X307588D01*
Y661330D01*
X307304D01*
Y661614D01*
X307019D01*
Y661898D01*
X306735D01*
Y662183D01*
X306451D01*
Y662467D01*
X306166D01*
Y662751D01*
X305882D01*
Y663036D01*
X305598D01*
Y663320D01*
X305313D01*
Y663605D01*
X305029D01*
Y663889D01*
X304745D01*
Y664173D01*
X304460D01*
Y664457D01*
X304176D01*
Y664742D01*
X303892D01*
Y665026D01*
X303607D01*
Y665310D01*
X303323D01*
Y665595D01*
X303039D01*
Y665879D01*
X302754D01*
Y666163D01*
X302470D01*
Y666448D01*
X302186D01*
Y666732D01*
X301901D01*
Y667016D01*
X301617D01*
Y667301D01*
X301049D01*
Y667016D01*
X300764D01*
Y666732D01*
X300480D01*
Y666448D01*
X300196D01*
Y666163D01*
X299911D01*
Y665879D01*
X299627D01*
Y665595D01*
X299342D01*
Y665310D01*
X299058D01*
Y665026D01*
X298774D01*
Y664742D01*
X298489D01*
Y664173D01*
X298205D01*
Y663889D01*
X297921D01*
Y663605D01*
X297637D01*
Y663320D01*
X297352D01*
Y663036D01*
X297068D01*
Y662751D01*
X296784D01*
Y662467D01*
X296499D01*
Y662183D01*
X296215D01*
Y661898D01*
X295931D01*
Y661614D01*
X295646D01*
Y661046D01*
X295362D01*
Y660761D01*
X295078D01*
Y660477D01*
X294793D01*
Y660192D01*
X294509D01*
Y659908D01*
X294225D01*
Y659624D01*
X293940D01*
Y659340D01*
X293656D01*
Y659055D01*
X293372D01*
Y658771D01*
X293087D01*
Y658487D01*
X292803D01*
Y658202D01*
X292519D01*
Y657634D01*
X292234D01*
Y657349D01*
X291950D01*
Y657065D01*
X291666D01*
Y656781D01*
X291381D01*
Y656496D01*
X291097D01*
Y656212D01*
X290813D01*
Y655928D01*
X290528D01*
Y655643D01*
X290244D01*
Y655359D01*
X289960D01*
Y655075D01*
X289675D01*
Y654790D01*
X289391D01*
Y654222D01*
X289107D01*
Y653937D01*
X288822D01*
Y653653D01*
X288538D01*
Y653369D01*
X288254D01*
Y653084D01*
X287969D01*
Y652800D01*
X287685D01*
Y652516D01*
X287401D01*
Y652231D01*
X287116D01*
Y651947D01*
X286832D01*
Y651378D01*
X286548D01*
Y651094D01*
X286263D01*
Y650810D01*
X285979D01*
Y650525D01*
X285695D01*
Y650241D01*
X285410D01*
Y649957D01*
X285126D01*
Y649672D01*
X284842D01*
Y649388D01*
X284557D01*
Y649104D01*
X284273D01*
Y648819D01*
X283989D01*
Y648535D01*
X283704D01*
Y647966D01*
X283420D01*
Y647682D01*
X283136D01*
Y647398D01*
X282852D01*
Y647113D01*
X282567D01*
Y646829D01*
X282283D01*
Y646545D01*
X281999D01*
Y646260D01*
X281714D01*
Y645976D01*
X281430D01*
Y645692D01*
X281145D01*
Y644839D01*
X281430D01*
Y643986D01*
X281714D01*
Y643133D01*
X281999D01*
Y642280D01*
X282283D01*
Y641427D01*
X282567D01*
Y640574D01*
X282852D01*
Y639721D01*
X283136D01*
Y638868D01*
X283420D01*
Y638015D01*
X283704D01*
Y637162D01*
X283989D01*
Y636593D01*
X283704D01*
Y635740D01*
X283420D01*
Y635456D01*
X283136D01*
Y635172D01*
X282852D01*
Y634887D01*
X282567D01*
Y634603D01*
X281999D01*
Y634319D01*
X281714D01*
Y634034D01*
X281430D01*
Y633750D01*
X280861D01*
Y633466D01*
X280577D01*
Y633181D01*
X280008D01*
Y632897D01*
X279724D01*
Y632613D01*
X279155D01*
Y632328D01*
X278871D01*
Y632044D01*
X278302D01*
Y631760D01*
X278018D01*
Y631475D01*
X277449D01*
Y631191D01*
X277165D01*
Y630907D01*
X276596D01*
Y630622D01*
X276312D01*
Y630338D01*
X275743D01*
Y630054D01*
X275459D01*
Y629769D01*
X273469D01*
Y630054D01*
X273184D01*
Y630338D01*
X272900D01*
Y630622D01*
X272616D01*
Y630907D01*
X272331D01*
Y633181D01*
X272616D01*
Y633466D01*
X272900D01*
Y633750D01*
X273184D01*
Y634034D01*
X273753D01*
Y634319D01*
X274037D01*
Y634603D01*
X274606D01*
Y634887D01*
X274890D01*
Y635172D01*
X275459D01*
Y635456D01*
X275743D01*
Y635740D01*
X276312D01*
Y636025D01*
X276596D01*
Y636309D01*
X277165D01*
Y636593D01*
X277449D01*
Y636878D01*
X278018D01*
Y637162D01*
X278302D01*
Y637446D01*
X278871D01*
Y638584D01*
X278587D01*
Y639437D01*
X278302D01*
Y640005D01*
X278018D01*
Y641143D01*
X277734D01*
Y641995D01*
X277449D01*
Y642849D01*
X277165D01*
Y643701D01*
X275743D01*
Y643417D01*
X274606D01*
Y643133D01*
X273184D01*
Y642849D01*
X271763D01*
Y642564D01*
X270625D01*
Y642280D01*
X270057D01*
Y641427D01*
X269772D01*
Y640290D01*
X269488D01*
Y639152D01*
X269204D01*
Y638299D01*
X268919D01*
Y637162D01*
X268635D01*
Y636025D01*
X268351D01*
Y635172D01*
X268066D01*
Y634603D01*
X267782D01*
Y634319D01*
X267498D01*
Y634034D01*
X266929D01*
Y633750D01*
X265223D01*
Y634034D01*
X264939D01*
Y634319D01*
X264655D01*
Y634603D01*
X264370D01*
Y634887D01*
X264086D01*
Y637162D01*
X264370D01*
Y638299D01*
X264655D01*
Y639152D01*
X264939D01*
Y640290D01*
X265223D01*
Y641427D01*
X265507D01*
Y642564D01*
X265792D01*
Y643701D01*
X266076D01*
Y644555D01*
X266360D01*
Y645407D01*
X266645D01*
Y645692D01*
X266929D01*
Y645976D01*
X267213D01*
Y646260D01*
X267498D01*
Y646545D01*
X269488D01*
Y646829D01*
X270625D01*
Y647113D01*
X272047D01*
Y647398D01*
X273184D01*
Y647682D01*
X274606D01*
Y647966D01*
X276028D01*
Y648251D01*
X277165D01*
Y648535D01*
X278018D01*
Y648819D01*
X278302D01*
Y649104D01*
X278587D01*
Y649388D01*
X278871D01*
Y649672D01*
X279155D01*
Y649957D01*
X279440D01*
Y650241D01*
X279724D01*
Y650525D01*
X280008D01*
Y650810D01*
X280292D01*
Y651094D01*
X280577D01*
Y651378D01*
X280861D01*
Y651947D01*
X281145D01*
Y652231D01*
X281430D01*
Y652516D01*
X281714D01*
Y652800D01*
X281999D01*
Y653084D01*
X282283D01*
Y653369D01*
X282567D01*
Y653653D01*
X282852D01*
Y653937D01*
X283136D01*
Y654222D01*
X283420D01*
Y654506D01*
X283704D01*
Y654790D01*
X283989D01*
Y655359D01*
X284273D01*
Y655643D01*
X284557D01*
Y655928D01*
X284842D01*
Y656212D01*
X285126D01*
Y656496D01*
X285410D01*
Y656781D01*
X285695D01*
Y657065D01*
X285979D01*
Y657349D01*
X286263D01*
Y657634D01*
X286548D01*
Y657918D01*
X286832D01*
Y658202D01*
X287116D01*
Y658771D01*
X287401D01*
Y659055D01*
X287685D01*
Y659340D01*
X287969D01*
Y659624D01*
X288254D01*
Y659908D01*
X288538D01*
Y660192D01*
X288822D01*
Y660477D01*
X289107D01*
Y660761D01*
X289391D01*
Y661046D01*
X289675D01*
Y661330D01*
X289960D01*
Y661614D01*
X290244D01*
Y662183D01*
X290528D01*
Y662467D01*
X290813D01*
Y662751D01*
X291097D01*
Y663036D01*
X291381D01*
Y663320D01*
X291666D01*
Y663605D01*
X291950D01*
Y663889D01*
X292234D01*
Y664173D01*
X292519D01*
Y664457D01*
X292803D01*
Y664742D01*
X293087D01*
Y665310D01*
X293372D01*
Y665595D01*
X293656D01*
Y665879D01*
X293940D01*
Y666163D01*
X294225D01*
Y666448D01*
X294509D01*
Y666732D01*
X294793D01*
Y667016D01*
X295078D01*
Y667301D01*
X295362D01*
Y667585D01*
X295646D01*
Y667869D01*
X295931D01*
Y668154D01*
X296215D01*
Y668722D01*
X296499D01*
Y669007D01*
X296784D01*
Y669291D01*
X297068D01*
Y669575D01*
X297352D01*
Y669860D01*
X297637D01*
Y670144D01*
X297921D01*
Y670428D01*
X298205D01*
Y670713D01*
X298489D01*
Y670997D01*
X298774D01*
Y671281D01*
X299058D01*
Y671566D01*
X299342D01*
Y671850D01*
X299911D01*
Y672134D01*
X301333D01*
Y671850D01*
D02*
G37*
G36*
X399995Y597640D02*
X399426D01*
Y597925D01*
X399995D01*
Y597640D01*
D02*
G37*
G36*
X400563Y597356D02*
X400279D01*
Y597640D01*
X400563D01*
Y597356D01*
D02*
G37*
G36*
X401985Y596787D02*
X401701D01*
Y597072D01*
X401985D01*
Y596787D01*
D02*
G37*
G36*
X404544Y595366D02*
X404260D01*
Y595650D01*
X404544D01*
Y595366D01*
D02*
G37*
G36*
X405966Y594228D02*
X405681D01*
Y594513D01*
X405966D01*
Y594228D01*
D02*
G37*
G36*
X369572Y563237D02*
X369287D01*
Y563521D01*
X369572D01*
Y563237D01*
D02*
G37*
%LPC*%
G36*
X390896Y666448D02*
X388622D01*
Y666163D01*
X388053D01*
Y665879D01*
X387769D01*
Y665595D01*
X387484D01*
Y664457D01*
X387769D01*
Y664173D01*
X388053D01*
Y663889D01*
X388337D01*
Y663605D01*
X388622D01*
Y663320D01*
X389190D01*
Y663036D01*
X390612D01*
Y663320D01*
X391465D01*
Y663605D01*
X391749D01*
Y663889D01*
X392034D01*
Y664173D01*
Y665310D01*
X391749D01*
Y665879D01*
X391181D01*
Y666163D01*
X390896D01*
Y666448D01*
D02*
G37*
G36*
X369572Y665026D02*
X368719D01*
Y663605D01*
X368434D01*
Y658487D01*
X368719D01*
Y656781D01*
X369003D01*
Y655928D01*
X369287D01*
Y655075D01*
X369572D01*
Y654222D01*
X369856D01*
Y653653D01*
X370140D01*
Y653084D01*
X370425D01*
Y652516D01*
X370709D01*
Y652231D01*
X370993D01*
Y651663D01*
X371278D01*
Y651378D01*
X371562D01*
Y651094D01*
X371846D01*
Y650810D01*
Y650525D01*
X372131D01*
Y650241D01*
X372415D01*
Y649957D01*
X372699D01*
Y649672D01*
X372984D01*
Y649388D01*
X373268D01*
Y649104D01*
X373552D01*
Y648819D01*
X373837D01*
Y648535D01*
X374121D01*
Y648251D01*
X374689D01*
Y647966D01*
X374974D01*
Y647682D01*
X375542D01*
Y647398D01*
X375827D01*
Y647113D01*
X376395D01*
Y646829D01*
X376964D01*
Y646545D01*
X377533D01*
Y646260D01*
X378102D01*
Y645976D01*
X378955D01*
Y645692D01*
X379807D01*
Y645407D01*
X380945D01*
Y645123D01*
X382366D01*
Y644839D01*
X388622D01*
Y645123D01*
X390328D01*
Y645407D01*
X391465D01*
Y645692D01*
X392602D01*
Y645976D01*
X393455D01*
Y646260D01*
X394308D01*
Y646545D01*
X394877D01*
Y646829D01*
X395446D01*
Y647113D01*
X395730D01*
Y647398D01*
X395446D01*
Y647682D01*
X394877D01*
Y647966D01*
X394593D01*
Y648251D01*
X394024D01*
Y648535D01*
X393740D01*
Y648819D01*
X393171D01*
Y649104D01*
X392887D01*
Y649388D01*
X392318D01*
Y649672D01*
X392034D01*
Y649957D01*
X391465D01*
Y650241D01*
X391181D01*
Y650525D01*
X390612D01*
Y650810D01*
X390328D01*
Y651094D01*
X389759D01*
Y651378D01*
X389475D01*
Y651663D01*
X388906D01*
Y651947D01*
X388622D01*
Y652231D01*
X388053D01*
Y652516D01*
X387769D01*
Y652800D01*
X387200D01*
Y653084D01*
X386916D01*
Y653369D01*
X386347D01*
Y653653D01*
X386063D01*
Y653937D01*
X385494D01*
Y654222D01*
X385210D01*
Y654506D01*
X384641D01*
Y654790D01*
X384357D01*
Y655075D01*
X383788D01*
Y655359D01*
X383504D01*
Y655643D01*
X382935D01*
Y655928D01*
X382651D01*
Y656212D01*
X382082D01*
Y656496D01*
X381798D01*
Y656781D01*
X381229D01*
Y657065D01*
X380945D01*
Y657349D01*
X380376D01*
Y657634D01*
X380092D01*
Y657918D01*
X379523D01*
Y658202D01*
X379239D01*
Y658487D01*
X378670D01*
Y658771D01*
X378386D01*
Y659055D01*
X377817D01*
Y659340D01*
X377533D01*
Y659624D01*
X376964D01*
Y659908D01*
X376680D01*
Y660192D01*
X376111D01*
Y660477D01*
X375827D01*
Y660761D01*
X375258D01*
Y661046D01*
X374974D01*
Y661330D01*
X374689D01*
Y661614D01*
X374121D01*
Y661898D01*
X373837D01*
Y662183D01*
X373268D01*
Y662467D01*
X372699D01*
Y662751D01*
X372415D01*
Y663036D01*
X372131D01*
Y663320D01*
X371562D01*
Y663605D01*
X371278D01*
Y663889D01*
X370709D01*
Y664173D01*
X370425D01*
Y664457D01*
X369856D01*
Y664742D01*
X369572D01*
Y665026D01*
D02*
G37*
G36*
X330619Y635456D02*
X328628D01*
Y632613D01*
X339148D01*
Y634887D01*
X338296D01*
Y635172D01*
X330619D01*
Y635456D01*
D02*
G37*
G36*
X337727Y628348D02*
X317824D01*
Y628063D01*
X317255D01*
Y627779D01*
X316687D01*
Y627495D01*
X316118D01*
Y627210D01*
X315549D01*
Y626926D01*
X315265D01*
Y626642D01*
X314981D01*
Y626357D01*
X314696D01*
Y625789D01*
X314412D01*
Y598778D01*
X314696D01*
Y598493D01*
X316971D01*
Y598209D01*
X318393D01*
Y597925D01*
X319245D01*
Y597640D01*
X320098D01*
Y597356D01*
X320667D01*
Y597072D01*
X321520D01*
Y596787D01*
X321805D01*
Y596503D01*
X322373D01*
Y596219D01*
X322942D01*
Y595934D01*
X323226D01*
Y595650D01*
X323795D01*
Y595366D01*
X324079D01*
Y595081D01*
X324648D01*
Y594797D01*
X324932D01*
Y594513D01*
X325216D01*
Y594228D01*
X325501D01*
Y593944D01*
X325785D01*
Y593660D01*
X326069D01*
Y593375D01*
X326354D01*
Y593091D01*
X326638D01*
Y592807D01*
X326922D01*
Y592522D01*
X327207D01*
Y592238D01*
X327491D01*
Y591669D01*
X327775D01*
Y591385D01*
X328060D01*
Y590816D01*
X328344D01*
Y590532D01*
X328628D01*
Y589963D01*
X328913D01*
Y589395D01*
X329197D01*
Y589110D01*
X329481D01*
Y588542D01*
X329766D01*
Y587689D01*
X330050D01*
Y587120D01*
X330334D01*
Y586267D01*
X330619D01*
Y585414D01*
X330903D01*
Y584561D01*
X331187D01*
Y583424D01*
X331472D01*
Y582002D01*
X331756D01*
Y581149D01*
X333746D01*
Y581434D01*
X334031D01*
Y582571D01*
X334315D01*
Y583708D01*
X334599D01*
Y584561D01*
X334884D01*
Y585414D01*
X335168D01*
Y585983D01*
X335452D01*
Y586836D01*
X335737D01*
Y587405D01*
X336021D01*
Y587689D01*
X336305D01*
Y588257D01*
X336590D01*
Y588826D01*
X336874D01*
Y589110D01*
X337158D01*
Y589395D01*
Y589679D01*
X337443D01*
Y589963D01*
X337727D01*
Y590532D01*
X338011D01*
Y590816D01*
X338296D01*
Y591101D01*
X338580D01*
Y591385D01*
X338864D01*
Y591669D01*
X339148D01*
Y591954D01*
X339433D01*
Y592238D01*
X339717D01*
Y592522D01*
X340001D01*
Y592807D01*
X340286D01*
Y593091D01*
X340570D01*
Y593375D01*
X340854D01*
Y593660D01*
X341139D01*
Y593944D01*
X341707D01*
Y594228D01*
X341992D01*
Y594513D01*
X342560D01*
Y594797D01*
X342845D01*
Y595081D01*
X343413D01*
Y595366D01*
X343698D01*
Y595650D01*
X344266D01*
Y595934D01*
X344835D01*
Y596219D01*
X345688D01*
Y596503D01*
X346257D01*
Y596787D01*
X347110D01*
Y597072D01*
X347963D01*
Y597356D01*
X349384D01*
Y597640D01*
X350806D01*
Y597925D01*
X355071D01*
Y597640D01*
X356777D01*
Y597356D01*
X357914D01*
Y597072D01*
X358767D01*
Y596787D01*
X359620D01*
Y596503D01*
X360473D01*
Y596219D01*
X361042D01*
Y595934D01*
X361610D01*
Y595650D01*
X362179D01*
Y595366D01*
X362463D01*
Y595081D01*
X363032D01*
Y594797D01*
X363601D01*
Y594513D01*
X363885D01*
Y594228D01*
X364169D01*
Y593944D01*
X364738D01*
Y593660D01*
X365022D01*
Y593375D01*
X365307D01*
Y593091D01*
X365591D01*
Y592807D01*
X365875D01*
Y592522D01*
X366160D01*
Y592238D01*
X366444D01*
Y591954D01*
X366728D01*
Y591669D01*
X367013D01*
Y591385D01*
X367297D01*
Y591101D01*
X367581D01*
Y590816D01*
X367866D01*
Y590248D01*
X368150D01*
Y589963D01*
X368434D01*
Y589679D01*
X368719D01*
Y589110D01*
X369003D01*
Y588826D01*
X369287D01*
Y588257D01*
X369572D01*
Y587689D01*
X369856D01*
Y587405D01*
X370140D01*
Y586552D01*
X370425D01*
Y585983D01*
X370709D01*
Y585414D01*
X370993D01*
Y584561D01*
X371278D01*
Y583708D01*
X371562D01*
Y582855D01*
X371846D01*
Y581434D01*
X372131D01*
Y581149D01*
X375542D01*
Y582002D01*
X375827D01*
Y583139D01*
X376111D01*
Y584277D01*
X376395D01*
Y585130D01*
X376680D01*
Y585983D01*
X376964D01*
Y586552D01*
X377248D01*
Y587120D01*
X377533D01*
Y587689D01*
X377817D01*
Y588257D01*
X378102D01*
Y588826D01*
X378386D01*
Y589110D01*
X378670D01*
Y589679D01*
X378955D01*
Y589963D01*
X379239D01*
Y590532D01*
X379523D01*
Y590816D01*
X379807D01*
Y591101D01*
X380092D01*
Y591385D01*
X380376D01*
Y591954D01*
X380660D01*
Y592238D01*
X380945D01*
Y592522D01*
X381229D01*
Y592807D01*
X381513D01*
Y593091D01*
X381798D01*
Y593375D01*
X382366D01*
Y593660D01*
X382651D01*
Y593944D01*
X382935D01*
Y594228D01*
X383219D01*
Y594513D01*
X383788D01*
Y594797D01*
X384072D01*
Y595081D01*
X384641D01*
Y595366D01*
X384925D01*
Y595650D01*
X385494D01*
Y595934D01*
X386063D01*
Y596219D01*
X386631D01*
Y596503D01*
X387200D01*
Y596787D01*
X388053D01*
Y597072D01*
X388906D01*
Y597356D01*
X389759D01*
Y597640D01*
X390896D01*
Y597925D01*
X392602D01*
Y609866D01*
X392318D01*
Y624083D01*
X392034D01*
Y624651D01*
X391749D01*
Y625220D01*
X391465D01*
Y625789D01*
X391181D01*
Y626073D01*
X390896D01*
Y626357D01*
X390612D01*
Y626642D01*
X390328D01*
Y626926D01*
X389759D01*
Y627210D01*
X389475D01*
Y627495D01*
X388622D01*
Y627779D01*
X383504D01*
Y628063D01*
X337727D01*
Y628348D01*
D02*
G37*
G36*
X314981Y592807D02*
X311853D01*
Y592522D01*
X310147D01*
Y592238D01*
X309294D01*
Y591954D01*
X308441D01*
Y591669D01*
X307588D01*
Y591385D01*
X307019D01*
Y591101D01*
X306735D01*
Y590816D01*
X306166D01*
Y590532D01*
X305598D01*
Y590248D01*
X305313D01*
Y589963D01*
X305029D01*
Y589679D01*
X304460D01*
Y589395D01*
X304176D01*
Y589110D01*
X303892D01*
Y588826D01*
X303607D01*
Y588542D01*
X303323D01*
Y588257D01*
X303039D01*
Y587973D01*
X302754D01*
Y587405D01*
X302470D01*
Y587120D01*
X302186D01*
Y586836D01*
X301901D01*
Y586267D01*
X301617D01*
Y585699D01*
X301333D01*
Y585414D01*
X301049D01*
Y584561D01*
X300764D01*
Y583993D01*
X300480D01*
Y583424D01*
X300196D01*
Y582287D01*
X299911D01*
Y580581D01*
X299627D01*
Y577453D01*
X299911D01*
Y575747D01*
X300196D01*
Y574610D01*
X300480D01*
Y573757D01*
X300764D01*
Y573188D01*
X301049D01*
Y572619D01*
X301333D01*
Y572051D01*
X301617D01*
Y571482D01*
X301901D01*
Y571198D01*
X302186D01*
Y570629D01*
X302470D01*
Y570345D01*
X302754D01*
Y570060D01*
X303039D01*
Y569492D01*
X303323D01*
Y569207D01*
X303607D01*
Y568923D01*
X303892D01*
Y568639D01*
X304176D01*
Y568354D01*
X304460D01*
Y568070D01*
X305029D01*
Y567786D01*
X305313D01*
Y567501D01*
X305598D01*
Y567217D01*
X306166D01*
Y566933D01*
X306451D01*
Y566648D01*
X307019D01*
Y566364D01*
X307588D01*
Y566080D01*
X308157D01*
Y565796D01*
X309010D01*
Y565511D01*
X309863D01*
Y565227D01*
X311000D01*
Y564943D01*
X312990D01*
Y564658D01*
X314696D01*
Y564943D01*
X316687D01*
Y565227D01*
X317824D01*
Y565511D01*
X318677D01*
Y565796D01*
X319245D01*
Y566080D01*
X320098D01*
Y566364D01*
X320383D01*
Y566648D01*
X320951D01*
Y566933D01*
X321236D01*
Y567217D01*
X321805D01*
Y567786D01*
X322089D01*
Y568070D01*
X322373D01*
Y568354D01*
X322657D01*
Y568639D01*
X322942D01*
Y569207D01*
X323226D01*
Y569492D01*
X323510D01*
Y570060D01*
X323795D01*
Y570629D01*
X324079D01*
Y571198D01*
X324363D01*
Y571766D01*
X324648D01*
Y572335D01*
X324932D01*
Y573188D01*
X325216D01*
Y574041D01*
X325501D01*
Y575178D01*
X325785D01*
Y576884D01*
X326069D01*
Y580012D01*
X325785D01*
Y582002D01*
X325501D01*
Y583139D01*
X325216D01*
Y583993D01*
X324932D01*
Y584561D01*
X324648D01*
Y585414D01*
X324363D01*
Y585983D01*
X324079D01*
Y586552D01*
X323795D01*
Y586836D01*
X323510D01*
Y587405D01*
X323226D01*
Y587973D01*
X322942D01*
Y588257D01*
X322657D01*
Y588542D01*
X322373D01*
Y588826D01*
X322089D01*
Y589395D01*
X321805D01*
Y589679D01*
X321520D01*
Y589963D01*
X321236D01*
Y590248D01*
X320951D01*
Y590532D01*
X320667D01*
Y590816D01*
X320383D01*
Y591101D01*
X319814D01*
Y591385D01*
X319245D01*
Y591669D01*
X318393D01*
Y591954D01*
X317824D01*
Y592238D01*
X316687D01*
Y592522D01*
X314981D01*
Y592807D01*
D02*
G37*
G36*
X396867D02*
X391465D01*
Y592522D01*
X390328D01*
Y592238D01*
X389475D01*
Y591954D01*
X388622D01*
Y591669D01*
X388053D01*
Y591385D01*
X387484D01*
Y591101D01*
X386916D01*
Y590816D01*
X386631D01*
Y590532D01*
X386063D01*
Y590248D01*
X385778D01*
Y589963D01*
X385210D01*
Y589679D01*
X384925D01*
Y589395D01*
X384641D01*
Y589110D01*
X384357D01*
Y588826D01*
X384072D01*
Y588542D01*
X383788D01*
Y588257D01*
X383504D01*
Y587973D01*
X383219D01*
Y587689D01*
X382935D01*
Y587120D01*
X382651D01*
Y586836D01*
X382366D01*
Y586267D01*
X382082D01*
Y585983D01*
X381798D01*
Y585414D01*
X381513D01*
Y584846D01*
X381229D01*
Y583993D01*
X380945D01*
Y583424D01*
X380660D01*
Y582287D01*
X380376D01*
Y580865D01*
X380092D01*
Y577169D01*
X380376D01*
Y575463D01*
X380660D01*
Y574610D01*
X380945D01*
Y573757D01*
X381229D01*
Y573188D01*
X381513D01*
Y572619D01*
X381798D01*
Y572051D01*
X382082D01*
Y571482D01*
X382366D01*
Y571198D01*
X382651D01*
Y570629D01*
X382935D01*
Y570345D01*
X383219D01*
Y570060D01*
X383504D01*
Y569492D01*
X383788D01*
Y569207D01*
X384072D01*
Y568923D01*
X384357D01*
Y568639D01*
X384641D01*
Y568354D01*
X384925D01*
Y568070D01*
X385210D01*
Y567786D01*
X385778D01*
Y567501D01*
X386063D01*
Y567217D01*
X386347D01*
Y566933D01*
X386916D01*
Y566648D01*
X387484D01*
Y566364D01*
X387769D01*
Y566080D01*
X388337D01*
Y565796D01*
X388906D01*
Y565511D01*
X389759D01*
Y565227D01*
X390612D01*
Y564943D01*
X391749D01*
Y564658D01*
X393740D01*
Y564374D01*
X396014D01*
Y564658D01*
X398004D01*
Y564943D01*
X398857D01*
Y565227D01*
X399710D01*
Y565511D01*
X400563D01*
Y565796D01*
X401132D01*
Y566080D01*
X401701D01*
Y566364D01*
X401985D01*
Y566648D01*
X402554D01*
Y566933D01*
X402838D01*
Y567217D01*
X403122D01*
Y567501D01*
X403691D01*
Y567786D01*
X403975D01*
Y568070D01*
X404260D01*
Y568354D01*
X404544D01*
Y568639D01*
X404828D01*
Y569207D01*
X405113D01*
Y569492D01*
X405397D01*
Y569776D01*
X405681D01*
Y570345D01*
X405966D01*
Y570629D01*
X406250D01*
Y571198D01*
X406534D01*
Y571766D01*
X406819D01*
Y572335D01*
X407103D01*
Y573188D01*
X407387D01*
Y574041D01*
X407672D01*
Y575178D01*
X407956D01*
Y577737D01*
X408240D01*
Y579159D01*
X407956D01*
Y581718D01*
X407672D01*
Y582855D01*
X407387D01*
Y583708D01*
X407103D01*
Y584561D01*
X406819D01*
Y585130D01*
X406534D01*
Y585699D01*
X406250D01*
Y586267D01*
X405966D01*
Y586836D01*
X405681D01*
Y587405D01*
X405397D01*
Y587689D01*
X405113D01*
Y587973D01*
X404828D01*
Y588257D01*
X404544D01*
Y588826D01*
X404260D01*
Y589110D01*
X403975D01*
Y589395D01*
X403407D01*
Y589679D01*
X403122D01*
Y589963D01*
X402838D01*
Y590248D01*
X402269D01*
Y590532D01*
X401985D01*
Y590816D01*
X401416D01*
Y591101D01*
X400848D01*
Y591385D01*
X400279D01*
Y591669D01*
X399710D01*
Y591954D01*
X398857D01*
Y592238D01*
X398004D01*
Y592522D01*
X396867D01*
Y592807D01*
D02*
G37*
G36*
X353649Y592522D02*
X351659D01*
Y592238D01*
X349669D01*
Y591954D01*
X348531D01*
Y591669D01*
X347678D01*
Y591385D01*
X347110D01*
Y591101D01*
X346541D01*
Y590816D01*
X345972D01*
Y590532D01*
X345404D01*
Y590248D01*
X345119D01*
Y589963D01*
X344551D01*
Y589679D01*
X344266D01*
Y589395D01*
X343982D01*
Y589110D01*
X343698D01*
Y588826D01*
X343413D01*
Y588542D01*
X343129D01*
Y588257D01*
X342845D01*
Y587973D01*
X342560D01*
Y587689D01*
X342276D01*
Y587405D01*
X341992D01*
Y587120D01*
X341707D01*
Y586836D01*
X341423D01*
Y586267D01*
X341139D01*
Y585983D01*
X340854D01*
Y585414D01*
X340570D01*
Y584846D01*
X340286D01*
Y584277D01*
X340001D01*
Y583708D01*
X339717D01*
Y582855D01*
X339433D01*
Y582002D01*
X339148D01*
Y580581D01*
X338864D01*
Y575463D01*
X339148D01*
Y574041D01*
X339433D01*
Y573188D01*
X339717D01*
Y572335D01*
X340001D01*
Y571766D01*
X340286D01*
Y571198D01*
X340570D01*
Y570629D01*
X340854D01*
Y570060D01*
X341139D01*
Y569492D01*
X341423D01*
Y569207D01*
X341707D01*
Y568923D01*
X341992D01*
Y568354D01*
X342276D01*
Y568070D01*
X342560D01*
Y567786D01*
X342845D01*
Y567501D01*
X343129D01*
Y567217D01*
X343413D01*
Y566933D01*
X343698D01*
Y566648D01*
X343982D01*
Y566364D01*
X344266D01*
Y566080D01*
X344551D01*
Y565796D01*
X344835D01*
Y565511D01*
X345404D01*
Y565227D01*
X345688D01*
Y564943D01*
X346257D01*
Y564658D01*
X346825D01*
Y564374D01*
X347394D01*
Y564090D01*
X347963D01*
Y563805D01*
X348531D01*
Y563521D01*
X349384D01*
Y563237D01*
X350522D01*
Y562952D01*
X353649D01*
Y562668D01*
X353934D01*
Y562952D01*
X356493D01*
Y563237D01*
X357630D01*
Y563521D01*
X358199D01*
Y563805D01*
X359052D01*
Y564090D01*
X359620D01*
Y564374D01*
X360189D01*
Y564658D01*
X360473D01*
Y564943D01*
X361042D01*
Y565227D01*
X361326D01*
Y565511D01*
X361895D01*
Y565796D01*
X362179D01*
Y566080D01*
X362463D01*
Y566364D01*
X362748D01*
Y566648D01*
X363032D01*
Y566933D01*
X363316D01*
Y567217D01*
X363601D01*
Y567501D01*
X363885D01*
Y567786D01*
X364169D01*
Y568070D01*
X364454D01*
Y568639D01*
X364738D01*
Y568923D01*
X365022D01*
Y569492D01*
X365307D01*
Y570060D01*
X365591D01*
Y570345D01*
X365875D01*
Y571198D01*
X366160D01*
Y571766D01*
X366444D01*
Y572619D01*
X366728D01*
Y573757D01*
X367013D01*
Y575178D01*
X367297D01*
Y576884D01*
Y577169D01*
Y578875D01*
X367013D01*
Y580581D01*
X366728D01*
Y581718D01*
X366444D01*
Y582571D01*
X366160D01*
Y583424D01*
X365875D01*
Y583993D01*
X365591D01*
Y584561D01*
X365307D01*
Y584846D01*
X365022D01*
Y585414D01*
X364738D01*
Y585983D01*
X364454D01*
Y586267D01*
X364169D01*
Y586552D01*
X363885D01*
Y587120D01*
X363601D01*
Y587405D01*
X363316D01*
Y587689D01*
X363032D01*
Y587973D01*
X362748D01*
Y588257D01*
X362463D01*
Y588542D01*
X362179D01*
Y588826D01*
X361895D01*
Y589110D01*
X361610D01*
Y589395D01*
X361042D01*
Y589679D01*
X360757D01*
Y589963D01*
X360189D01*
Y590248D01*
X359905D01*
Y590532D01*
X359336D01*
Y590816D01*
X358767D01*
Y591101D01*
X358199D01*
Y591385D01*
X357630D01*
Y591669D01*
X356777D01*
Y591954D01*
X355639D01*
Y592238D01*
X353649D01*
Y592522D01*
D02*
G37*
%LPD*%
G36*
X373415Y659340D02*
X373699D01*
Y658487D01*
X373983D01*
Y656496D01*
X374268D01*
Y655643D01*
X374552D01*
Y655075D01*
X374836D01*
Y654506D01*
X375121D01*
Y653937D01*
X375405D01*
Y653653D01*
X375689D01*
Y653084D01*
X375974D01*
Y652800D01*
X376258D01*
Y652516D01*
X376542D01*
Y652231D01*
X376827D01*
Y651663D01*
X377111D01*
Y651378D01*
X377680D01*
Y651094D01*
X377964D01*
Y650810D01*
X378248D01*
Y650525D01*
X378532D01*
Y650241D01*
X379101D01*
Y649957D01*
X380523D01*
Y649672D01*
X381091D01*
Y649104D01*
X381376D01*
Y647966D01*
X381091D01*
Y647682D01*
X380523D01*
Y647398D01*
X379101D01*
Y647682D01*
X378248D01*
Y647966D01*
X377680D01*
Y648251D01*
X377395D01*
Y648535D01*
X376827D01*
Y648819D01*
X376542D01*
Y649104D01*
X376258D01*
Y649388D01*
X375689D01*
Y649672D01*
X375405D01*
Y649957D01*
X375121D01*
Y650241D01*
X374836D01*
Y650810D01*
X374552D01*
Y651094D01*
X374268D01*
Y651378D01*
X373983D01*
Y651663D01*
X373699D01*
Y652231D01*
X373415D01*
Y652516D01*
X373130D01*
Y653084D01*
X372846D01*
Y653653D01*
X372562D01*
Y654222D01*
X372277D01*
Y654790D01*
X371993D01*
Y655643D01*
X371709D01*
Y656781D01*
X371424D01*
Y659055D01*
X371709D01*
Y659340D01*
X371993D01*
Y659624D01*
X373415D01*
Y659340D01*
D02*
G37*
G36*
X370425Y624936D02*
X386063D01*
Y624651D01*
X386631D01*
Y624367D01*
X386916D01*
Y624083D01*
X387200D01*
Y623798D01*
X387484D01*
Y623514D01*
X387769D01*
Y622661D01*
X388053D01*
Y603611D01*
X388337D01*
Y601621D01*
X388053D01*
Y600768D01*
X387769D01*
Y600484D01*
X387484D01*
Y600199D01*
X387200D01*
Y599915D01*
X386916D01*
Y599631D01*
X385778D01*
Y599346D01*
X384641D01*
Y599062D01*
X384072D01*
Y598778D01*
X383219D01*
Y598493D01*
X382651D01*
Y598209D01*
X382366D01*
Y597925D01*
X381798D01*
Y597640D01*
X381229D01*
Y597356D01*
X380945D01*
Y597072D01*
X380376D01*
Y596787D01*
X380092D01*
Y596503D01*
X379807D01*
Y596219D01*
X379523D01*
Y595934D01*
X378955D01*
Y595650D01*
X378670D01*
Y595366D01*
X378386D01*
Y595081D01*
X378102D01*
Y594797D01*
X377817D01*
Y594513D01*
X377533D01*
Y593944D01*
X377248D01*
Y593660D01*
X376964D01*
Y593375D01*
X376680D01*
Y593091D01*
X376395D01*
Y592522D01*
X376111D01*
Y591385D01*
X375827D01*
Y589963D01*
X375542D01*
Y589679D01*
X375258D01*
Y589395D01*
X374974D01*
Y589110D01*
X374689D01*
Y588826D01*
X372984D01*
Y589110D01*
X372415D01*
Y589395D01*
X372131D01*
Y589679D01*
X371846D01*
Y590532D01*
X371562D01*
Y591669D01*
X371278D01*
Y592522D01*
X370993D01*
Y593091D01*
X370709D01*
Y593660D01*
X370425D01*
Y594228D01*
X370140D01*
Y594513D01*
X369856D01*
Y595081D01*
X369572D01*
Y595366D01*
X369287D01*
Y595650D01*
X369003D01*
Y595934D01*
X368719D01*
Y596219D01*
X368434D01*
Y596503D01*
X368150D01*
Y596787D01*
X367866D01*
Y597072D01*
X367581D01*
Y597356D01*
X367013D01*
Y597640D01*
X366728D01*
Y597925D01*
X366444D01*
Y598209D01*
X365875D01*
Y598493D01*
X365591D01*
Y598778D01*
X365022D01*
Y599062D01*
X364454D01*
Y599346D01*
X363885D01*
Y599631D01*
X363316D01*
Y599915D01*
X362463D01*
Y600199D01*
X361610D01*
Y600484D01*
X360757D01*
Y600768D01*
X359620D01*
Y601052D01*
X358199D01*
Y601337D01*
X355924D01*
Y601621D01*
X351659D01*
Y601337D01*
X349384D01*
Y601052D01*
X347678D01*
Y600768D01*
X346541D01*
Y600484D01*
X345688D01*
Y600199D01*
X344551D01*
Y599915D01*
X343982D01*
Y599631D01*
X343129D01*
Y599346D01*
X342560D01*
Y599062D01*
X341992D01*
Y598778D01*
X341423D01*
Y598493D01*
X340854D01*
Y598209D01*
X340286D01*
Y597925D01*
X339717D01*
Y597640D01*
X339433D01*
Y597356D01*
X338864D01*
Y597072D01*
X338580D01*
Y596787D01*
X338296D01*
Y596503D01*
X337727D01*
Y596219D01*
X337443D01*
Y595934D01*
X337158D01*
Y595650D01*
X336874D01*
Y595366D01*
X336590D01*
Y595081D01*
X336305D01*
Y594797D01*
X336021D01*
Y594513D01*
X335737D01*
Y594228D01*
X335452D01*
Y593660D01*
X335168D01*
Y593375D01*
X334884D01*
Y593091D01*
X334599D01*
Y592522D01*
X334315D01*
Y592238D01*
X334031D01*
Y591954D01*
X333462D01*
Y591669D01*
X331756D01*
Y591954D01*
X331472D01*
Y592238D01*
X331187D01*
Y592522D01*
X330903D01*
Y592807D01*
X330619D01*
Y593375D01*
X330334D01*
Y593944D01*
X330050D01*
Y594228D01*
X329766D01*
Y594797D01*
X329481D01*
Y595081D01*
X329197D01*
Y595366D01*
X328913D01*
Y595650D01*
X328628D01*
Y595934D01*
X328344D01*
Y596219D01*
X328060D01*
Y596503D01*
X327775D01*
Y596787D01*
X327207D01*
Y597072D01*
X326922D01*
Y597356D01*
X326354D01*
Y597640D01*
X325785D01*
Y597925D01*
X325216D01*
Y598209D01*
X324648D01*
Y598493D01*
X324079D01*
Y598778D01*
X323226D01*
Y599062D01*
X322657D01*
Y599346D01*
X322089D01*
Y599631D01*
X320667D01*
Y599915D01*
X320098D01*
Y600199D01*
X319814D01*
Y600484D01*
X319530D01*
Y600768D01*
X318961D01*
Y601052D01*
X318677D01*
Y601621D01*
X318393D01*
Y602189D01*
X318108D01*
Y602758D01*
X317824D01*
Y604464D01*
X317540D01*
Y620102D01*
X317255D01*
Y623798D01*
X317540D01*
Y624367D01*
X317824D01*
Y624651D01*
X318108D01*
Y624936D01*
X318393D01*
Y625220D01*
X370425D01*
Y624936D01*
D02*
G37*
%LPC*%
G36*
X349100Y620955D02*
X321805D01*
Y609013D01*
X322089D01*
Y603611D01*
X322373D01*
Y603327D01*
X323795D01*
Y603042D01*
X324932D01*
Y602758D01*
X325785D01*
Y602474D01*
X326354D01*
Y602189D01*
X327207D01*
Y601905D01*
X327775D01*
Y601621D01*
X328344D01*
Y601337D01*
X328913D01*
Y601052D01*
X329197D01*
Y600768D01*
X329766D01*
Y600484D01*
X330050D01*
Y600199D01*
X330619D01*
Y599915D01*
X330903D01*
Y599631D01*
X331187D01*
Y599346D01*
X331472D01*
Y599062D01*
X331756D01*
Y598778D01*
X332325D01*
Y598493D01*
X332609D01*
Y597925D01*
X333178D01*
Y598209D01*
X333462D01*
Y598493D01*
X333746D01*
Y598778D01*
X334031D01*
Y599062D01*
X334315D01*
Y599346D01*
X334884D01*
Y599631D01*
X335168D01*
Y599915D01*
X335452D01*
Y600199D01*
X335737D01*
Y600484D01*
X336305D01*
Y600768D01*
X336590D01*
Y601052D01*
X337158D01*
Y601337D01*
X337443D01*
Y601621D01*
X338011D01*
Y601905D01*
X338580D01*
Y602189D01*
X338864D01*
Y602474D01*
X339433D01*
Y602758D01*
X340001D01*
Y603042D01*
X340570D01*
Y603327D01*
X341423D01*
Y603611D01*
X341992D01*
Y603895D01*
X342845D01*
Y604180D01*
X343698D01*
Y604464D01*
X344551D01*
Y604748D01*
X345688D01*
Y605033D01*
X346825D01*
Y605317D01*
X348247D01*
Y605602D01*
X350237D01*
Y605886D01*
X357346D01*
Y605602D01*
X359336D01*
Y605317D01*
X360473D01*
Y605033D01*
X361895D01*
Y604748D01*
X362748D01*
Y604464D01*
X363601D01*
Y604180D01*
X364454D01*
Y603895D01*
X365022D01*
Y603611D01*
X365875D01*
Y603327D01*
X366444D01*
Y603042D01*
X367013D01*
Y602758D01*
X367581D01*
Y602474D01*
X367866D01*
Y602189D01*
X368434D01*
Y601905D01*
X369003D01*
Y601621D01*
X369287D01*
Y601337D01*
X369572D01*
Y601052D01*
X370140D01*
Y600768D01*
X370425D01*
Y600484D01*
X370709D01*
Y600199D01*
X370993D01*
Y599915D01*
X371278D01*
Y599631D01*
X371562D01*
Y599346D01*
X371846D01*
Y599062D01*
X372131D01*
Y598778D01*
X372415D01*
Y598493D01*
X372699D01*
Y598209D01*
X372984D01*
Y597925D01*
X373268D01*
Y597356D01*
X373552D01*
Y597072D01*
X373837D01*
Y596787D01*
X374121D01*
Y597072D01*
X374405D01*
Y597356D01*
X374689D01*
Y597640D01*
X374974D01*
Y598209D01*
X375542D01*
Y598493D01*
X375827D01*
Y598778D01*
X376111D01*
Y599062D01*
X376395D01*
Y599346D01*
X376680D01*
Y599631D01*
X376964D01*
Y599915D01*
X377248D01*
Y600199D01*
X377817D01*
Y600484D01*
X378102D01*
Y600768D01*
X378670D01*
Y601052D01*
X378955D01*
Y601337D01*
X379523D01*
Y601621D01*
X379807D01*
Y601905D01*
X380376D01*
Y602189D01*
X380945D01*
Y602474D01*
X381513D01*
Y602758D01*
X382082D01*
Y603042D01*
X382935D01*
Y603327D01*
X383788D01*
Y612141D01*
Y612425D01*
Y619249D01*
X383504D01*
Y620671D01*
X349100D01*
Y620955D01*
D02*
G37*
%LPD*%
G36*
X351090Y614700D02*
X352228D01*
Y614416D01*
X352512D01*
Y614131D01*
X352796D01*
Y613847D01*
X353081D01*
Y613278D01*
X353365D01*
Y612141D01*
X353081D01*
Y611572D01*
X352796D01*
Y611004D01*
X352228D01*
Y610719D01*
X351659D01*
Y610435D01*
X340570D01*
Y610151D01*
X334884D01*
Y610435D01*
X334315D01*
Y610719D01*
X333746D01*
Y611004D01*
X333462D01*
Y611572D01*
X333178D01*
Y613278D01*
X333462D01*
Y613847D01*
X333746D01*
Y614131D01*
X334315D01*
Y614416D01*
X335168D01*
Y614700D01*
X349100D01*
Y614984D01*
X351090D01*
Y614700D01*
D02*
G37*
G36*
X364454Y615269D02*
X365022D01*
Y614984D01*
X365591D01*
Y614700D01*
X365875D01*
Y614416D01*
Y614131D01*
X366160D01*
Y613563D01*
X366444D01*
Y612425D01*
X366728D01*
Y611857D01*
X366444D01*
Y611288D01*
X366160D01*
Y611004D01*
X365875D01*
Y610719D01*
X365591D01*
Y610435D01*
X365022D01*
Y610151D01*
X364169D01*
Y609866D01*
X363032D01*
Y610151D01*
X362463D01*
Y610435D01*
X361895D01*
Y610719D01*
X361610D01*
Y611288D01*
X361326D01*
Y611857D01*
X361042D01*
Y613847D01*
X361326D01*
Y614416D01*
X361610D01*
Y614700D01*
X361895D01*
Y614984D01*
X362463D01*
Y615269D01*
X363032D01*
Y615553D01*
X364454D01*
Y615269D01*
D02*
G37*
G36*
X375827Y617259D02*
X376964D01*
Y616975D01*
X377533D01*
Y616690D01*
X378102D01*
Y616406D01*
X378386D01*
Y616122D01*
X378670D01*
Y615837D01*
X378955D01*
Y615553D01*
X379239D01*
Y615269D01*
X379523D01*
Y614700D01*
X379807D01*
Y614416D01*
X380092D01*
Y613563D01*
X380376D01*
Y610719D01*
X380092D01*
Y609866D01*
X379807D01*
Y609298D01*
X379523D01*
Y609013D01*
X379239D01*
Y608729D01*
X378955D01*
Y608445D01*
X378670D01*
Y608160D01*
X378386D01*
Y607876D01*
X377817D01*
Y607592D01*
X377248D01*
Y607307D01*
X376680D01*
Y607023D01*
X373837D01*
Y607307D01*
X372984D01*
Y607592D01*
X372415D01*
Y607876D01*
X372131D01*
Y608160D01*
X371562D01*
Y608445D01*
X371278D01*
Y608729D01*
X370993D01*
Y609013D01*
X370709D01*
Y609582D01*
X370425D01*
Y610151D01*
X370140D01*
Y610719D01*
X369856D01*
Y613847D01*
X370140D01*
Y614700D01*
X370425D01*
Y614984D01*
X370709D01*
Y615553D01*
X370993D01*
Y615837D01*
X371278D01*
Y616122D01*
X371562D01*
Y616406D01*
X371846D01*
Y616690D01*
X372415D01*
Y616975D01*
X372984D01*
Y617259D01*
X374121D01*
Y617543D01*
X375827D01*
Y617259D01*
D02*
G37*
G36*
X328628Y618396D02*
X329481D01*
Y618112D01*
X329766D01*
Y617543D01*
X330050D01*
Y616406D01*
X330334D01*
Y606739D01*
X330050D01*
Y606170D01*
X329766D01*
Y605886D01*
X329481D01*
Y605602D01*
X328913D01*
Y605317D01*
X327491D01*
Y605602D01*
X326922D01*
Y605886D01*
X326354D01*
Y606170D01*
X326069D01*
Y607307D01*
X325785D01*
Y617543D01*
X326069D01*
Y618112D01*
X326354D01*
Y618396D01*
X327491D01*
Y618681D01*
X328628D01*
Y618396D01*
D02*
G37*
G36*
X314696Y586836D02*
X315549D01*
Y586552D01*
X316118D01*
Y586267D01*
X316402D01*
Y585983D01*
X316971D01*
Y585699D01*
X317255D01*
Y585414D01*
X317540D01*
Y585130D01*
X317824D01*
Y584846D01*
X318108D01*
Y584561D01*
X318393D01*
Y583993D01*
X318677D01*
Y583708D01*
X318961D01*
Y583139D01*
X319245D01*
Y582571D01*
X319530D01*
Y581434D01*
X319814D01*
Y577169D01*
X319530D01*
Y576031D01*
X319245D01*
Y575463D01*
X318961D01*
Y574894D01*
X318677D01*
Y574325D01*
X318393D01*
Y573757D01*
X318108D01*
Y573472D01*
X317824D01*
Y573188D01*
X317540D01*
Y572904D01*
X317255D01*
Y572619D01*
X316971D01*
Y572335D01*
X316687D01*
Y572051D01*
X316402D01*
Y571766D01*
X316118D01*
Y571482D01*
X315549D01*
Y571198D01*
X314981D01*
Y570913D01*
X314412D01*
Y570629D01*
X313559D01*
Y570345D01*
X310147D01*
Y570629D01*
X309294D01*
Y570913D01*
X308725D01*
Y571198D01*
X308157D01*
Y571482D01*
X307872D01*
Y571766D01*
X307588D01*
Y572051D01*
X307304D01*
Y572335D01*
X307019D01*
Y572619D01*
X306735D01*
Y572904D01*
X306451D01*
Y573188D01*
X306166D01*
Y573757D01*
X305882D01*
Y574325D01*
X305598D01*
Y574894D01*
X305313D01*
Y575747D01*
X305029D01*
Y577453D01*
X304745D01*
Y578590D01*
X305029D01*
Y580581D01*
X305313D01*
Y581434D01*
X305598D01*
Y582002D01*
X305882D01*
Y582571D01*
X306166D01*
Y583139D01*
X306451D01*
Y583708D01*
X306735D01*
Y583993D01*
X307019D01*
Y584277D01*
X307304D01*
Y584561D01*
X307588D01*
Y584846D01*
X307872D01*
Y585130D01*
X308157D01*
Y585414D01*
X308441D01*
Y585699D01*
X308725D01*
Y585983D01*
X309294D01*
Y586267D01*
X309863D01*
Y586552D01*
X310431D01*
Y586836D01*
X311569D01*
Y587120D01*
X314696D01*
Y586836D01*
D02*
G37*
%LPC*%
G36*
X313559Y583993D02*
X311569D01*
Y583708D01*
X310716D01*
Y583424D01*
X310147D01*
Y583139D01*
X309863D01*
Y582855D01*
X309578D01*
Y582571D01*
X309294D01*
Y582287D01*
X309010D01*
Y582002D01*
X308725D01*
Y581434D01*
X308441D01*
Y580581D01*
X308157D01*
Y579443D01*
Y579159D01*
Y577737D01*
X308441D01*
Y577169D01*
X308725D01*
Y576600D01*
X309010D01*
Y576031D01*
X309294D01*
Y575747D01*
X309578D01*
Y575463D01*
X309863D01*
Y575178D01*
X310431D01*
Y574894D01*
X311000D01*
Y574610D01*
X313559D01*
Y574894D01*
X314128D01*
Y575178D01*
X314696D01*
Y575463D01*
X314981D01*
Y575747D01*
X315265D01*
Y576031D01*
X315549D01*
Y576316D01*
X315834D01*
Y576884D01*
X316118D01*
Y577453D01*
X316402D01*
Y578590D01*
X316687D01*
Y579728D01*
X316402D01*
Y581149D01*
X316118D01*
Y581718D01*
X315834D01*
Y582287D01*
X315549D01*
Y582571D01*
X315265D01*
Y582855D01*
X314981D01*
Y583139D01*
X314412D01*
Y583424D01*
X314128D01*
Y583708D01*
X313559D01*
Y583993D01*
D02*
G37*
%LPD*%
G36*
X394877Y586267D02*
X396014D01*
Y585983D01*
X396583D01*
Y585699D01*
X397151D01*
Y585414D01*
X397720D01*
Y585130D01*
X398004D01*
Y584846D01*
X398289D01*
Y584561D01*
X398857D01*
Y584277D01*
X399142D01*
Y583708D01*
X399426D01*
Y583424D01*
X399710D01*
Y583139D01*
X399995D01*
Y582855D01*
X400279D01*
Y582287D01*
X400563D01*
Y581718D01*
X400848D01*
Y580865D01*
X401132D01*
Y579728D01*
X401416D01*
Y577169D01*
X401132D01*
Y575747D01*
X400848D01*
Y574894D01*
X400563D01*
Y574325D01*
X400279D01*
Y574041D01*
X399995D01*
Y573472D01*
X399710D01*
Y573188D01*
X399426D01*
Y572904D01*
X399142D01*
Y572619D01*
X398857D01*
Y572335D01*
X398573D01*
Y572051D01*
X398004D01*
Y571766D01*
X397720D01*
Y571482D01*
X397151D01*
Y571198D01*
X396298D01*
Y570913D01*
X394877D01*
Y570629D01*
X393171D01*
Y570913D01*
X391749D01*
Y571198D01*
X390896D01*
Y571482D01*
X390328D01*
Y571766D01*
X389759D01*
Y572051D01*
X389475D01*
Y572335D01*
X389190D01*
Y572619D01*
X388622D01*
Y572904D01*
X388337D01*
Y573188D01*
X388053D01*
Y573472D01*
X387769D01*
Y573757D01*
X387484D01*
Y574325D01*
X387200D01*
Y574610D01*
X386916D01*
Y575178D01*
X386631D01*
Y575747D01*
X386347D01*
Y576600D01*
X386063D01*
Y577737D01*
X385778D01*
Y580581D01*
X386063D01*
Y581434D01*
X386347D01*
Y582287D01*
X386631D01*
Y582855D01*
X386916D01*
Y583424D01*
X387200D01*
Y583708D01*
X387484D01*
Y583993D01*
X387769D01*
Y584277D01*
X388053D01*
Y584561D01*
X388337D01*
Y584846D01*
X388622D01*
Y585130D01*
X388906D01*
Y585414D01*
X389475D01*
Y585699D01*
X390043D01*
Y585983D01*
X390612D01*
Y586267D01*
X391465D01*
Y586552D01*
X394877D01*
Y586267D01*
D02*
G37*
%LPC*%
G36*
X394024Y582855D02*
X392318D01*
Y582571D01*
X391749D01*
Y582287D01*
X391465D01*
Y582002D01*
X391181D01*
Y581718D01*
X390896D01*
Y581434D01*
X390612D01*
Y581149D01*
X390328D01*
Y580581D01*
X390043D01*
Y579728D01*
X389759D01*
Y577453D01*
X390043D01*
Y576600D01*
X390328D01*
Y576031D01*
X390612D01*
Y575463D01*
X390896D01*
Y575178D01*
X391181D01*
Y574894D01*
X391465D01*
Y574610D01*
X392034D01*
Y574325D01*
X392602D01*
Y574041D01*
X394024D01*
Y574325D01*
X394877D01*
Y574610D01*
X395161D01*
Y574894D01*
X395446D01*
Y575178D01*
X395730D01*
Y575463D01*
X396014D01*
Y576031D01*
X396298D01*
Y576600D01*
X396583D01*
Y577737D01*
X396867D01*
Y578875D01*
X396583D01*
Y580296D01*
X396298D01*
Y580865D01*
X396014D01*
Y581149D01*
X395730D01*
Y581718D01*
X395446D01*
Y582002D01*
X395161D01*
Y582287D01*
X394593D01*
Y582571D01*
X394024D01*
Y582855D01*
D02*
G37*
%LPD*%
G36*
X355071Y587120D02*
X356208D01*
Y586836D01*
X356777D01*
Y586552D01*
X357346D01*
Y586267D01*
X357914D01*
Y585983D01*
X358199D01*
Y585699D01*
X358483D01*
Y585414D01*
X358767D01*
Y585130D01*
X359052D01*
Y584846D01*
X359336D01*
Y584561D01*
X359620D01*
Y584277D01*
X359905D01*
Y583993D01*
X360189D01*
Y583424D01*
X360473D01*
Y582855D01*
X360757D01*
Y582287D01*
X361042D01*
Y581434D01*
X361326D01*
Y580296D01*
X361610D01*
Y577453D01*
X361326D01*
Y576316D01*
X361042D01*
Y575463D01*
X360757D01*
Y574894D01*
X360473D01*
Y574325D01*
X360189D01*
Y573757D01*
X359905D01*
Y573472D01*
X359620D01*
Y573188D01*
X359336D01*
Y572904D01*
X359052D01*
Y572619D01*
X358767D01*
Y572335D01*
X358483D01*
Y572051D01*
X358199D01*
Y571766D01*
X357914D01*
Y571482D01*
X357346D01*
Y571198D01*
X356777D01*
Y570913D01*
X355924D01*
Y570629D01*
X355071D01*
Y570345D01*
X351659D01*
Y570629D01*
X350806D01*
Y570913D01*
X349953D01*
Y571198D01*
X349384D01*
Y571482D01*
X349100D01*
Y571766D01*
X348531D01*
Y572051D01*
X348247D01*
Y572335D01*
X347963D01*
Y572619D01*
X347678D01*
Y572904D01*
X347394D01*
Y573188D01*
X347110D01*
Y573472D01*
X346825D01*
Y574041D01*
X346541D01*
Y574325D01*
X346257D01*
Y574894D01*
X345972D01*
Y575463D01*
X345688D01*
Y576316D01*
X345404D01*
Y577737D01*
X345119D01*
Y580012D01*
X345404D01*
Y581434D01*
X345688D01*
Y582287D01*
X345972D01*
Y582855D01*
X346257D01*
Y583424D01*
X346541D01*
Y583708D01*
X346825D01*
Y584277D01*
X347110D01*
Y584561D01*
X347394D01*
Y584846D01*
X347678D01*
Y585130D01*
X347963D01*
Y585414D01*
X348247D01*
Y585699D01*
X348531D01*
Y585983D01*
X349100D01*
Y586267D01*
X349384D01*
Y586552D01*
X349953D01*
Y586836D01*
X350522D01*
Y587120D01*
X351659D01*
Y587405D01*
X355071D01*
Y587120D01*
D02*
G37*
%LPC*%
G36*
X354502Y583424D02*
X352228D01*
Y583139D01*
X351375D01*
Y582855D01*
X350806D01*
Y582571D01*
X350522D01*
Y582287D01*
X350237D01*
Y582002D01*
X349953D01*
Y581718D01*
X349669D01*
Y581434D01*
X349384D01*
Y580865D01*
X349100D01*
Y577737D01*
X349384D01*
Y577169D01*
X349669D01*
Y576884D01*
X349953D01*
Y576600D01*
X350237D01*
Y576316D01*
X350522D01*
Y576031D01*
X350806D01*
Y575747D01*
X351375D01*
Y575463D01*
X351943D01*
Y575178D01*
X353081D01*
Y574894D01*
X353934D01*
Y575178D01*
X355355D01*
Y575463D01*
X355924D01*
Y575747D01*
X356208D01*
Y576031D01*
X356777D01*
Y576316D01*
X357061D01*
Y576884D01*
X357346D01*
Y577169D01*
X357630D01*
Y578022D01*
X357914D01*
Y579443D01*
Y579728D01*
Y580012D01*
X357630D01*
Y580865D01*
X357346D01*
Y581434D01*
X357061D01*
Y581718D01*
X356777D01*
Y582002D01*
X356493D01*
Y582287D01*
X356208D01*
Y582571D01*
X355639D01*
Y582855D01*
X355071D01*
Y583139D01*
X354502D01*
Y583424D01*
D02*
G37*
%LPD*%
D10*
X382487Y437267D02*
G03*
X382487Y437267I-1000J0D01*
G01*
X441000Y543000D02*
G03*
X441000Y543000I-1000J0D01*
G01*
X142000Y66700D02*
G03*
X142000Y66700I-1000J0D01*
G01*
X223500Y230800D02*
Y681650D01*
X45700D02*
X223500D01*
X45700Y230800D02*
Y681650D01*
Y230800D02*
X223500D01*
X385583Y527400D02*
X409583D01*
X385583Y481400D02*
X409583D01*
X324720Y33681D02*
Y139682D01*
X438720D01*
Y33681D02*
Y139682D01*
X324720Y33681D02*
X438720D01*
X489200Y170300D02*
X513200D01*
X489200D02*
Y233300D01*
X513200Y170300D02*
Y233300D01*
X489200D02*
X513200D01*
X468700Y293450D02*
Y324450D01*
X463700Y293450D02*
Y324450D01*
Y293450D02*
X468700D01*
X463700Y324450D02*
X468700D01*
X516400Y266650D02*
Y273890D01*
X486000Y266650D02*
X493440D01*
X508960D02*
X516400D01*
X486000D02*
Y273890D01*
X499460Y280650D02*
X502940D01*
X176129Y44631D02*
X201191D01*
X176129Y26569D02*
X201191D01*
X212463Y44631D02*
X237525D01*
X212463Y26569D02*
X237525D01*
X337800Y267800D02*
Y275040D01*
X307400Y267800D02*
X314840D01*
X330360D02*
X337800D01*
X307400D02*
Y275040D01*
X320860Y281800D02*
X324340D01*
X290100Y294600D02*
Y325600D01*
X285100Y294600D02*
Y325600D01*
Y294600D02*
X290100D01*
X285100Y325600D02*
X290100D01*
X310300Y233300D02*
X334300D01*
Y170300D02*
Y233300D01*
X310300Y170300D02*
Y233300D01*
Y170300D02*
X334300D01*
X374900Y324450D02*
X379900D01*
X374900Y293450D02*
X379900D01*
X374900D02*
Y324450D01*
X379900Y293450D02*
Y324450D01*
X410660Y280650D02*
X414140D01*
X397200Y266650D02*
Y273890D01*
X420160Y266650D02*
X427600D01*
X397200D02*
X404640D01*
X427600D02*
Y273890D01*
X400400Y170300D02*
X424400D01*
X400400D02*
Y233300D01*
X424400Y170300D02*
Y233300D01*
X400400D02*
X424400D01*
D11*
X230750Y268900D02*
G03*
X230750Y268900I-1250J0D01*
G01*
X417832Y494650D02*
G03*
X417832Y494650I-1250J0D01*
G01*
X350470Y27681D02*
G03*
X350470Y27681I-1250J0D01*
G01*
D12*
X503945Y465150D02*
G03*
X503945Y465150I-762J0D01*
G01*
X499804Y428955D02*
X510193D01*
Y449021D01*
X477173Y428955D02*
X487562D01*
X477173D02*
Y449021D01*
X490305D02*
X497061D01*
D13*
X357887Y427067D02*
Y432067D01*
X301887Y427067D02*
X357887D01*
X301887D02*
Y432067D01*
X357887Y527067D02*
Y532067D01*
X301887D02*
X357887D01*
X301887Y527067D02*
Y532067D01*
X355177Y414792D02*
X360257D01*
X355177Y422412D02*
X360257D01*
X429101Y496860D02*
Y501940D01*
X421481Y496860D02*
Y501940D01*
X447000Y554000D02*
X456900D01*
X447000D02*
Y682000D01*
X543000D01*
Y554000D02*
Y682000D01*
X533100Y554000D02*
X543000D01*
X146400Y46700D02*
X262400D01*
X146400D02*
Y131700D01*
X262400D01*
Y46700D02*
Y131700D01*
X497260Y290340D02*
X502340D01*
X497260Y297960D02*
X502340D01*
X472560Y347331D02*
X477640D01*
X472560Y339711D02*
X477640D01*
X472560Y329240D02*
X477640D01*
X472560Y336860D02*
X477640D01*
X395460Y539110D02*
X400540D01*
X395460Y531490D02*
X400540D01*
X421915Y457155D02*
Y462235D01*
X429535Y457155D02*
Y462235D01*
X266660Y499110D02*
X271740D01*
X266660Y491490D02*
X271740D01*
X272605Y449584D02*
Y454664D01*
X280226Y449584D02*
Y454664D01*
X217760Y187790D02*
X222840D01*
X217760Y195410D02*
X222840D01*
X41910Y167260D02*
Y172340D01*
X34290Y167260D02*
Y172340D01*
X383760Y329240D02*
X388840D01*
X383760Y336860D02*
X388840D01*
X383760Y347331D02*
X388840D01*
X383760Y339711D02*
X388840D01*
X293960Y348481D02*
X299040D01*
X293960Y340861D02*
X299040D01*
X293960Y330390D02*
X299040D01*
X293960Y338010D02*
X299040D01*
X318660Y291490D02*
X323740D01*
X318660Y299110D02*
X323740D01*
X408460Y297960D02*
X413540D01*
X408460Y290340D02*
X413540D01*
D14*
X62151Y3716D02*
X120317D01*
X120571Y3970D01*
Y220378D01*
X62151D02*
X120571D01*
X62151Y3716D02*
Y220378D01*
X303279Y386779D02*
Y402014D01*
X310897D01*
X313436Y399475D01*
Y394397D01*
X310897Y391858D01*
X303279D01*
X328671Y402014D02*
X318514D01*
Y386779D01*
X328671D01*
X318514Y394397D02*
X323593D01*
X333750Y386779D02*
Y402014D01*
X341367D01*
X343906Y399475D01*
Y394397D01*
X341367Y391858D01*
X333750D01*
X338828D02*
X343906Y386779D01*
X348985Y402014D02*
X354063D01*
X351524D01*
Y386779D01*
X348985D01*
X354063D01*
X361680D02*
Y402014D01*
X369298D01*
X371837Y399475D01*
Y394397D01*
X369298Y391858D01*
X361680D01*
X376916Y402014D02*
Y386779D01*
Y394397D01*
X387072D01*
Y402014D01*
Y386779D01*
X402307Y402014D02*
X392151D01*
Y386779D01*
X402307D01*
X392151Y394397D02*
X397229D01*
X407386Y386779D02*
Y402014D01*
X415003D01*
X417542Y399475D01*
Y394397D01*
X415003Y391858D01*
X407386D01*
X412464D02*
X417542Y386779D01*
X422621D02*
Y396936D01*
X427699Y402014D01*
X432777Y396936D01*
Y386779D01*
Y394397D01*
X422621D01*
X437856Y402014D02*
Y386779D01*
X448013D01*
X468326D02*
Y402014D01*
X475943D01*
X478483Y399475D01*
Y394397D01*
X475943Y391858D01*
X468326D01*
X493718Y399475D02*
X491179Y402014D01*
X486100D01*
X483561Y399475D01*
Y389319D01*
X486100Y386779D01*
X491179D01*
X493718Y389319D01*
X498796Y402014D02*
Y386779D01*
X506414D01*
X508953Y389319D01*
Y391858D01*
X506414Y394397D01*
X498796D01*
X506414D01*
X508953Y396936D01*
Y399475D01*
X506414Y402014D01*
X498796D01*
X529266D02*
Y391858D01*
X534345Y386779D01*
X539423Y391858D01*
Y402014D01*
X554658Y386779D02*
X544501D01*
X554658Y396936D01*
Y399475D01*
X552119Y402014D01*
X547040D01*
X544501Y399475D01*
X358257Y366300D02*
X348100D01*
X358257Y376457D01*
Y378996D01*
X355718Y381535D01*
X350639D01*
X348100Y378996D01*
X363335D02*
X365874Y381535D01*
X370953D01*
X373492Y378996D01*
Y368839D01*
X370953Y366300D01*
X365874D01*
X363335Y368839D01*
Y378996D01*
X388727Y366300D02*
X378570D01*
X388727Y376457D01*
Y378996D01*
X386188Y381535D01*
X381109D01*
X378570Y378996D01*
X393805D02*
X396344Y381535D01*
X401423D01*
X403962Y378996D01*
Y376457D01*
X401423Y373918D01*
X398884D01*
X401423D01*
X403962Y371378D01*
Y368839D01*
X401423Y366300D01*
X396344D01*
X393805Y368839D01*
X424275Y373918D02*
X434432D01*
X464902Y366300D02*
X454745D01*
X464902Y376457D01*
Y378996D01*
X462363Y381535D01*
X457285D01*
X454745Y378996D01*
X469981D02*
X472520Y381535D01*
X477598D01*
X480137Y378996D01*
Y368839D01*
X477598Y366300D01*
X472520D01*
X469981Y368839D01*
Y378996D01*
X495372Y366300D02*
X485216D01*
X495372Y376457D01*
Y378996D01*
X492833Y381535D01*
X487755D01*
X485216Y378996D01*
X508068Y366300D02*
Y381535D01*
X500451Y373918D01*
X510607D01*
X406840Y409040D02*
Y424275D01*
X414458D01*
X416997Y421736D01*
Y416657D01*
X414458Y414118D01*
X406840D01*
X411918D02*
X416997Y409040D01*
X432232Y421736D02*
X429693Y424275D01*
X424614D01*
X422075Y421736D01*
Y419197D01*
X424614Y416657D01*
X429693D01*
X432232Y414118D01*
Y411579D01*
X429693Y409040D01*
X424614D01*
X422075Y411579D01*
X437310Y424275D02*
X447467Y409040D01*
Y424275D02*
X437310Y409040D01*
D15*
X529856Y523926D02*
X528587Y525196D01*
X526048D01*
X524778Y523926D01*
Y518848D01*
X526048Y517578D01*
X528587D01*
X529856Y518848D01*
X532396Y517578D02*
Y522656D01*
X534935Y525196D01*
X537474Y522656D01*
Y517578D01*
Y521387D01*
X532396D01*
X540013Y517578D02*
Y525196D01*
X545091Y517578D01*
Y525196D01*
X547631D02*
Y517578D01*
X552709D01*
X442656Y522276D02*
X441387Y523545D01*
X438848D01*
X437578Y522276D01*
Y517197D01*
X438848Y515928D01*
X441387D01*
X442656Y517197D01*
X445196Y515928D02*
Y521006D01*
X447735Y523545D01*
X450274Y521006D01*
Y515928D01*
Y519737D01*
X445196D01*
X452813Y515928D02*
Y523545D01*
X457891Y515928D01*
Y523545D01*
X460431D02*
Y515928D01*
Y519737D01*
X465509D01*
Y523545D01*
Y515928D01*
X300352Y544609D02*
Y538261D01*
X301622Y536991D01*
X304161D01*
X305430Y538261D01*
Y544609D01*
X313048Y536991D02*
X307970D01*
X313048Y542070D01*
Y543339D01*
X311778Y544609D01*
X309239D01*
X307970Y543339D01*
X228722Y681309D02*
Y674961D01*
X229991Y673691D01*
X232530D01*
X233800Y674961D01*
Y681309D01*
X236339Y673691D02*
X238878D01*
X237609D01*
Y681309D01*
X236339Y680039D01*
X428330Y680809D02*
X425791D01*
X427061D01*
Y674461D01*
X425791Y673191D01*
X424522D01*
X423252Y674461D01*
X430870Y679539D02*
X432139Y680809D01*
X434678D01*
X435948Y679539D01*
Y678270D01*
X434678Y677000D01*
X433409D01*
X434678D01*
X435948Y675730D01*
Y674461D01*
X434678Y673191D01*
X432139D01*
X430870Y674461D01*
X494563Y346814D02*
X493293Y348084D01*
X490754D01*
X489484Y346814D01*
Y341736D01*
X490754Y340466D01*
X493293D01*
X494563Y341736D01*
X497102Y346814D02*
X498372Y348084D01*
X500911D01*
X502180Y346814D01*
Y345545D01*
X500911Y344275D01*
X502180Y343006D01*
Y341736D01*
X500911Y340466D01*
X498372D01*
X497102Y341736D01*
Y343006D01*
X498372Y344275D01*
X497102Y345545D01*
Y346814D01*
X498372Y344275D02*
X500911D01*
X494530Y335039D02*
X493261Y336309D01*
X490722D01*
X489452Y335039D01*
Y329961D01*
X490722Y328691D01*
X493261D01*
X494530Y329961D01*
X497070Y336309D02*
X502148D01*
Y335039D01*
X497070Y329961D01*
Y328691D01*
X405731Y335039D02*
X404461Y336309D01*
X401922D01*
X400652Y335039D01*
Y329961D01*
X401922Y328691D01*
X404461D01*
X405731Y329961D01*
X413348Y336309D02*
X408270D01*
Y332500D01*
X410809Y333770D01*
X412078D01*
X413348Y332500D01*
Y329961D01*
X412078Y328691D01*
X409539D01*
X408270Y329961D01*
X405763Y346814D02*
X404493Y348084D01*
X401954D01*
X400685Y346814D01*
Y341736D01*
X401954Y340466D01*
X404493D01*
X405763Y341736D01*
X413380Y348084D02*
X410841Y346814D01*
X408302Y344275D01*
Y341736D01*
X409572Y340466D01*
X412111D01*
X413380Y341736D01*
Y343006D01*
X412111Y344275D01*
X408302D01*
X430852Y318809D02*
Y312461D01*
X432122Y311191D01*
X434661D01*
X435930Y312461D01*
Y318809D01*
X438470D02*
Y311191D01*
X442279D01*
X443548Y312461D01*
Y313730D01*
X442279Y315000D01*
X438470D01*
X442279D01*
X443548Y316270D01*
Y317539D01*
X442279Y318809D01*
X438470D01*
X495352Y307541D02*
Y315159D01*
X499161D01*
X500430Y313889D01*
Y311350D01*
X499161Y310081D01*
X495352D01*
X497891D02*
X500430Y307541D01*
X502970Y313889D02*
X504239Y315159D01*
X506778D01*
X508048Y313889D01*
Y312620D01*
X506778Y311350D01*
X505509D01*
X506778D01*
X508048Y310081D01*
Y308811D01*
X506778Y307541D01*
X504239D01*
X502970Y308811D01*
X465130Y268511D02*
Y273589D01*
X463861Y274859D01*
X461321D01*
X460052Y273589D01*
Y268511D01*
X461321Y267241D01*
X463861D01*
X462591Y269781D02*
X465130Y267241D01*
X463861D02*
X465130Y268511D01*
X467669Y274859D02*
Y267241D01*
X471478D01*
X472748Y268511D01*
Y269781D01*
X471478Y271050D01*
X467669D01*
X471478D01*
X472748Y272320D01*
Y273589D01*
X471478Y274859D01*
X467669D01*
X315963Y347964D02*
X314693Y349234D01*
X312154D01*
X310884Y347964D01*
Y342886D01*
X312154Y341616D01*
X314693D01*
X315963Y342886D01*
X322311Y341616D02*
Y349234D01*
X318502Y345425D01*
X323580D01*
X376330Y268511D02*
Y273589D01*
X375061Y274859D01*
X372522D01*
X371252Y273589D01*
Y268511D01*
X372522Y267241D01*
X375061D01*
X373791Y269781D02*
X376330Y267241D01*
X375061D02*
X376330Y268511D01*
X383948Y273589D02*
X382678Y274859D01*
X380139D01*
X378870Y273589D01*
Y268511D01*
X380139Y267241D01*
X382678D01*
X383948Y268511D01*
Y271050D01*
X381409D01*
X406552Y307541D02*
Y315159D01*
X410361D01*
X411630Y313889D01*
Y311350D01*
X410361Y310081D01*
X406552D01*
X409091D02*
X411630Y307541D01*
X419248D02*
X414170D01*
X419248Y312620D01*
Y313889D01*
X417978Y315159D01*
X415439D01*
X414170Y313889D01*
X341452Y324009D02*
Y317661D01*
X342722Y316391D01*
X345261D01*
X346530Y317661D01*
Y324009D01*
X354148Y322739D02*
X352878Y324009D01*
X350339D01*
X349070Y322739D01*
Y317661D01*
X350339Y316391D01*
X352878D01*
X354148Y317661D01*
Y320200D01*
X351609D01*
X460052Y448109D02*
Y441761D01*
X461322Y440491D01*
X463861D01*
X465130Y441761D01*
Y448109D01*
X471478Y440491D02*
Y448109D01*
X467670Y444300D01*
X472748D01*
X412754Y484635D02*
Y483365D01*
X415293Y480826D01*
X417832Y483365D01*
Y484635D01*
X415293Y480826D02*
Y477017D01*
X420372D02*
X422911D01*
X421641D01*
Y484635D01*
X420372Y483365D01*
X337652Y225291D02*
Y232909D01*
X341461D01*
X342730Y231639D01*
Y229100D01*
X341461Y227830D01*
X337652D01*
X340191D02*
X342730Y225291D01*
X345270D02*
Y232909D01*
X349078D01*
X350348Y231639D01*
Y229100D01*
X349078Y227830D01*
X345270D01*
X347809D02*
X350348Y225291D01*
X449851Y137990D02*
X447311D01*
X448581D01*
Y131642D01*
X447311Y130373D01*
X446042D01*
X444772Y131642D01*
X457468Y130373D02*
X452390D01*
X457468Y135451D01*
Y136721D01*
X456199Y137990D01*
X453659D01*
X452390Y136721D01*
X130763Y216900D02*
X128224D01*
X129494D01*
Y210552D01*
X128224Y209282D01*
X126954D01*
X125685Y210552D01*
X133302Y209282D02*
X135842D01*
X134572D01*
Y216900D01*
X133302Y215630D01*
X155052Y150509D02*
Y144161D01*
X156322Y142891D01*
X158861D01*
X160131Y144161D01*
Y150509D01*
X162670Y149239D02*
X163939Y150509D01*
X166479D01*
X167748Y149239D01*
Y147970D01*
X166479Y146700D01*
X165209D01*
X166479D01*
X167748Y145430D01*
Y144161D01*
X166479Y142891D01*
X163939D01*
X162670Y144161D01*
X252452Y326309D02*
Y319961D01*
X253722Y318691D01*
X256261D01*
X257530Y319961D01*
Y326309D01*
X260070Y318691D02*
Y326309D01*
X263878D01*
X265148Y325039D01*
Y322500D01*
X263878Y321230D01*
X260070D01*
X262609D02*
X265148Y318691D01*
X27843Y188491D02*
Y196109D01*
X31652D01*
X32922Y194839D01*
Y192300D01*
X31652Y191030D01*
X27843D01*
X30382D02*
X32922Y188491D01*
X40539Y196109D02*
X38000D01*
X39270D01*
Y189761D01*
X38000Y188491D01*
X36730D01*
X35461Y189761D01*
X48157Y188491D02*
X43078D01*
X48157Y193570D01*
Y194839D01*
X46887Y196109D01*
X44348D01*
X43078Y194839D01*
X211413Y201091D02*
Y208709D01*
X215222D01*
X216491Y207439D01*
Y204900D01*
X215222Y203630D01*
X211413D01*
X213952D02*
X216491Y201091D01*
X224109Y208709D02*
X221570D01*
X222839D01*
Y202361D01*
X221570Y201091D01*
X220300D01*
X219030Y202361D01*
X226648Y201091D02*
X229187D01*
X227917D01*
Y208709D01*
X226648Y207439D01*
X428152Y224191D02*
Y231809D01*
X431961D01*
X433231Y230539D01*
Y228000D01*
X431961Y226730D01*
X428152D01*
X430691D02*
X433231Y224191D01*
X440848Y230539D02*
X439579Y231809D01*
X437039D01*
X435770Y230539D01*
Y225461D01*
X437039Y224191D01*
X439579D01*
X440848Y225461D01*
Y228000D01*
X438309D01*
X519152Y223691D02*
Y231309D01*
X522961D01*
X524230Y230039D01*
Y227500D01*
X522961Y226230D01*
X519152D01*
X521691D02*
X524230Y223691D01*
X526770Y231309D02*
Y223691D01*
X530578D01*
X531848Y224961D01*
Y226230D01*
X530578Y227500D01*
X526770D01*
X530578D01*
X531848Y228770D01*
Y230039D01*
X530578Y231309D01*
X526770D01*
X433568Y455222D02*
Y462839D01*
X437377D01*
X438647Y461570D01*
Y459031D01*
X437377Y457761D01*
X433568D01*
X436108D02*
X438647Y455222D01*
X444995D02*
Y462839D01*
X441186Y459031D01*
X446264D01*
X317521Y305141D02*
Y312759D01*
X321330D01*
X322600Y311489D01*
Y308950D01*
X321330Y307680D01*
X317521D01*
X320061D02*
X322600Y305141D01*
X325139D02*
X327678D01*
X326409D01*
Y312759D01*
X325139Y311489D01*
X286530Y269661D02*
Y274739D01*
X285261Y276009D01*
X282722D01*
X281452Y274739D01*
Y269661D01*
X282722Y268391D01*
X285261D01*
X283991Y270930D02*
X286530Y268391D01*
X285261D02*
X286530Y269661D01*
X289069Y268391D02*
Y276009D01*
X292878D01*
X294148Y274739D01*
Y272200D01*
X292878Y270930D01*
X289069D01*
X291609D02*
X294148Y268391D01*
X148200Y179709D02*
X143122D01*
Y175900D01*
X145661D01*
X143122D01*
Y172091D01*
X150739D02*
X153278D01*
X152009D01*
Y179709D01*
X150739Y178439D01*
X387556Y548839D02*
X386287Y550109D01*
X383748D01*
X382478Y548839D01*
Y543761D01*
X383748Y542491D01*
X386287D01*
X387556Y543761D01*
X390096Y542491D02*
X392635D01*
X391365D01*
Y550109D01*
X390096Y548839D01*
X401522Y542491D02*
X396444D01*
X401522Y547570D01*
Y548839D01*
X400252Y550109D01*
X397713D01*
X396444Y548839D01*
X438148Y493589D02*
X436878Y494859D01*
X434339D01*
X433069Y493589D01*
Y488511D01*
X434339Y487241D01*
X436878D01*
X438148Y488511D01*
X440687Y487241D02*
X443226D01*
X441956D01*
Y494859D01*
X440687Y493589D01*
X447035D02*
X448304Y494859D01*
X450843D01*
X452113Y493589D01*
Y492320D01*
X450843Y491050D01*
X449574D01*
X450843D01*
X452113Y489780D01*
Y488511D01*
X450843Y487241D01*
X448304D01*
X447035Y488511D01*
X378313Y421387D02*
X377044Y422657D01*
X374505D01*
X373235Y421387D01*
Y416309D01*
X374505Y415039D01*
X377044D01*
X378313Y416309D01*
X380853Y415039D02*
X383392D01*
X382122D01*
Y422657D01*
X380853Y421387D01*
X387200Y415039D02*
X389740D01*
X388470D01*
Y422657D01*
X387200Y421387D01*
X267473Y508652D02*
X266204Y509922D01*
X263665D01*
X262395Y508652D01*
Y503574D01*
X263665Y502304D01*
X266204D01*
X267473Y503574D01*
X270013Y502304D02*
X272552D01*
X271282D01*
Y509922D01*
X270013Y508652D01*
X276361D02*
X277630Y509922D01*
X280169D01*
X281439Y508652D01*
Y503574D01*
X280169Y502304D01*
X277630D01*
X276361Y503574D01*
Y508652D01*
X260730Y449639D02*
X259461Y450909D01*
X256922D01*
X255652Y449639D01*
Y444561D01*
X256922Y443291D01*
X259461D01*
X260730Y444561D01*
X263270D02*
X264539Y443291D01*
X267078D01*
X268348Y444561D01*
Y449639D01*
X267078Y450909D01*
X264539D01*
X263270Y449639D01*
Y448369D01*
X264539Y447100D01*
X268348D01*
X315930Y336189D02*
X314661Y337459D01*
X312122D01*
X310852Y336189D01*
Y331111D01*
X312122Y329841D01*
X314661D01*
X315930Y331111D01*
X318470Y336189D02*
X319739Y337459D01*
X322278D01*
X323548Y336189D01*
Y334920D01*
X322278Y333650D01*
X321009D01*
X322278D01*
X323548Y332380D01*
Y331111D01*
X322278Y329841D01*
X319739D01*
X318470Y331111D01*
X254930Y38439D02*
X253661Y39709D01*
X251122D01*
X249852Y38439D01*
Y33361D01*
X251122Y32091D01*
X253661D01*
X254930Y33361D01*
X262548Y32091D02*
X257470D01*
X262548Y37170D01*
Y38439D01*
X261278Y39709D01*
X258739D01*
X257470Y38439D01*
X157900Y38639D02*
X156630Y39909D01*
X154091D01*
X152822Y38639D01*
Y33561D01*
X154091Y32291D01*
X156630D01*
X157900Y33561D01*
X160439Y32291D02*
X162978D01*
X161709D01*
Y39909D01*
X160439Y38639D01*
D16*
X114475Y197391D02*
D03*
X114348Y142400D02*
D03*
D17*
X114475Y197391D02*
D03*
M02*
