G04*
G04 #@! TF.GenerationSoftware,Altium Limited,Altium Designer,23.6.0 (18)*
G04*
G04 Layer_Color=255*
%FSLAX44Y44*%
%MOMM*%
G71*
G04*
G04 #@! TF.SameCoordinates,002E3AE9-4B00-44C7-B55F-2903AD9EE070*
G04*
G04*
G04 #@! TF.FilePolarity,Positive*
G04*
G01*
G75*
%ADD18R,1.9000X0.4800*%
%ADD19R,0.6096X0.7874*%
%ADD20R,1.1500X1.4000*%
%ADD21R,0.7874X0.6096*%
%ADD22R,0.5588X1.3208*%
%ADD24R,0.8020X0.9720*%
%ADD25R,0.9800X0.8700*%
%ADD26R,1.1051X1.0062*%
%ADD35C,1.4140*%
%ADD36R,1.4140X1.4140*%
%ADD40R,2.1500X2.1500*%
%ADD41C,2.1500*%
%ADD47R,1.1000X0.6500*%
%ADD51O,3.7000X5.7000*%
%ADD52C,3.5560*%
%ADD53C,2.0320*%
%ADD54C,3.0500*%
%ADD55C,2.7750*%
%ADD56R,2.7750X2.7750*%
%ADD57C,1.5080*%
%ADD58R,1.5080X1.5080*%
%ADD59R,1.3500X1.3500*%
%ADD60C,1.3500*%
D18*
X294837Y515317D02*
D03*
Y469817D02*
D03*
Y521817D02*
D03*
Y495817D02*
D03*
X364937Y476317D02*
D03*
Y437317D02*
D03*
X294837Y443817D02*
D03*
Y502317D02*
D03*
X364937Y443817D02*
D03*
Y521817D02*
D03*
X294837Y463317D02*
D03*
X364937Y469817D02*
D03*
Y508817D02*
D03*
X294837Y437317D02*
D03*
Y482817D02*
D03*
Y476317D02*
D03*
X364937Y495817D02*
D03*
X294837Y450317D02*
D03*
X364937Y456817D02*
D03*
Y463317D02*
D03*
Y515317D02*
D03*
Y482817D02*
D03*
Y489317D02*
D03*
X294837Y456817D02*
D03*
Y508817D02*
D03*
X364937Y502317D02*
D03*
Y450317D02*
D03*
X294837Y489317D02*
D03*
D19*
X349208Y418602D02*
D03*
X366226D02*
D03*
X491291Y294150D02*
D03*
X508309D02*
D03*
X466591Y343521D02*
D03*
X483609D02*
D03*
X466591Y333050D02*
D03*
X483609D02*
D03*
X406509Y535300D02*
D03*
X389491D02*
D03*
X277709Y495300D02*
D03*
X260691D02*
D03*
X211791Y191600D02*
D03*
X228809D02*
D03*
X377791Y333050D02*
D03*
Y343521D02*
D03*
X394809Y333050D02*
D03*
Y343521D02*
D03*
X305009Y344671D02*
D03*
X287991D02*
D03*
Y334200D02*
D03*
X305009D02*
D03*
X312691Y295300D02*
D03*
X329709D02*
D03*
X419509Y294150D02*
D03*
X402491D02*
D03*
D20*
X405583Y493400D02*
D03*
Y515400D02*
D03*
X389583D02*
D03*
Y493400D02*
D03*
D21*
X425291Y490891D02*
D03*
Y507909D02*
D03*
X425725Y468204D02*
D03*
Y451186D02*
D03*
X276416Y460633D02*
D03*
Y443615D02*
D03*
X38100Y161291D02*
D03*
Y178309D02*
D03*
D22*
X493683Y427050D02*
D03*
X484183Y450926D02*
D03*
X503183D02*
D03*
D24*
X501200Y264800D02*
D03*
X510700Y282500D02*
D03*
X491700D02*
D03*
X322600Y265950D02*
D03*
X332100Y283650D02*
D03*
X313100D02*
D03*
X402900Y282500D02*
D03*
X421900D02*
D03*
X412400Y264800D02*
D03*
D25*
X130763Y165700D02*
D03*
Y181700D02*
D03*
D26*
X195665Y35600D02*
D03*
X181654D02*
D03*
X232000D02*
D03*
X217989D02*
D03*
D35*
X210800Y472100D02*
D03*
Y497500D02*
D03*
Y522900D02*
D03*
Y548300D02*
D03*
Y599100D02*
D03*
Y624500D02*
D03*
X58400D02*
D03*
X210800Y573700D02*
D03*
X58400Y345100D02*
D03*
Y268900D02*
D03*
Y294300D02*
D03*
Y319700D02*
D03*
Y370500D02*
D03*
Y395900D02*
D03*
Y421300D02*
D03*
Y446700D02*
D03*
Y472100D02*
D03*
Y497500D02*
D03*
Y522900D02*
D03*
Y548300D02*
D03*
Y573700D02*
D03*
Y599100D02*
D03*
X210800Y446700D02*
D03*
Y421300D02*
D03*
Y395900D02*
D03*
Y370500D02*
D03*
Y345100D02*
D03*
Y319700D02*
D03*
Y294300D02*
D03*
D36*
Y268900D02*
D03*
D40*
X349220Y67681D02*
D03*
D41*
Y109681D02*
D03*
X404220Y67681D02*
D03*
Y109681D02*
D03*
D47*
X454200Y318450D02*
D03*
Y308950D02*
D03*
Y299450D02*
D03*
X478200D02*
D03*
Y318450D02*
D03*
X275600Y319600D02*
D03*
Y310100D02*
D03*
Y300600D02*
D03*
X299600D02*
D03*
Y319600D02*
D03*
X389400Y318450D02*
D03*
Y299450D02*
D03*
X365400D02*
D03*
Y308950D02*
D03*
Y318450D02*
D03*
D51*
X23000Y652200D02*
D03*
X566300D02*
D03*
X566300Y32300D02*
D03*
X23000D02*
D03*
D52*
X90345Y197400D02*
D03*
Y142400D02*
D03*
D53*
Y69400D02*
D03*
D54*
X495000Y616000D02*
D03*
D55*
X516000Y488000D02*
D03*
X474000D02*
D03*
X516000Y543000D02*
D03*
D56*
X474000D02*
D03*
D57*
X229300Y66700D02*
D03*
X203900D02*
D03*
D58*
X178500D02*
D03*
D59*
X501200Y246800D02*
D03*
X322300D02*
D03*
X412400D02*
D03*
D60*
X501200Y156800D02*
D03*
X322300D02*
D03*
X412400D02*
D03*
M02*
