G04*
G04 #@! TF.GenerationSoftware,Altium Limited,Altium Designer,24.0.1 (36)*
G04*
G04 Layer_Color=32768*
%FSLAX44Y44*%
%MOMM*%
G71*
G04*
G04 #@! TF.SameCoordinates,5AFC8AEE-83C9-459C-A775-606236EE25F6*
G04*
G04*
G04 #@! TF.FilePolarity,Positive*
G04*
G01*
G75*
%ADD12C,0.1524*%
%ADD65C,0.1000*%
%ADD66C,0.0500*%
G36*
X431591Y403037D02*
X408985D01*
Y415737D01*
X399206D01*
Y425897D01*
X408985D01*
Y438597D01*
X431591D01*
Y435396D01*
X441370D01*
Y406237D01*
X431591D01*
Y403037D01*
D02*
G37*
D12*
X408985D02*
X431591D01*
X408985D02*
Y415737D01*
X399206D02*
X408985D01*
X399206D02*
Y425897D01*
X408985D01*
Y438597D01*
X431591D01*
Y435396D02*
Y438597D01*
Y403037D02*
Y406237D01*
Y435396D02*
X441370D01*
X431591Y406237D02*
X441370D01*
Y435396D01*
D65*
X329600Y305100D02*
Y315100D01*
X324600Y310100D02*
X334600D01*
X364300Y196800D02*
Y206800D01*
X359300Y201800D02*
X369300D01*
X414400Y308950D02*
X424400D01*
X419400Y303950D02*
Y313950D01*
X514200Y308950D02*
X524200D01*
X519200Y303950D02*
Y313950D01*
X449400Y201800D02*
X459400D01*
X454400Y196800D02*
Y206800D01*
X554199Y196800D02*
Y206800D01*
X549200Y201800D02*
X559200D01*
D66*
X123363Y158850D02*
Y188550D01*
X138163Y158850D02*
Y188550D01*
X123363D02*
X138163D01*
X123363Y158850D02*
X138163D01*
X141600Y38200D02*
Y128200D01*
Y38200D02*
X262600D01*
Y128200D01*
X141600D02*
X262600D01*
X452900Y369000D02*
X665800D01*
Y470000D01*
X452900D02*
X665800D01*
X452900Y369000D02*
Y470000D01*
X360387Y401567D02*
Y409367D01*
X376987D01*
Y503767D01*
X360387D02*
X376987D01*
X360387D02*
Y511567D01*
X299387D02*
X360387D01*
X299387Y503767D02*
Y511567D01*
X282787Y503767D02*
X299387D01*
X282787Y409367D02*
Y503767D01*
Y409367D02*
X299387D01*
Y401567D02*
Y409367D01*
Y401567D02*
X360387D01*
X309600Y292100D02*
X349600D01*
X309600Y328100D02*
X349600D01*
Y292100D02*
Y328100D01*
X309600Y292100D02*
Y328100D01*
X351300Y254550D02*
X377300D01*
X351300Y149050D02*
Y254550D01*
X377300Y149050D02*
Y254550D01*
X351300Y149050D02*
X377300D01*
X399400Y290950D02*
Y326950D01*
X439400Y290950D02*
Y326950D01*
X399400D02*
X439400D01*
X399400Y290950D02*
X439400D01*
X499200Y290950D02*
Y326950D01*
X539200Y290950D02*
Y326950D01*
X499200D02*
X539200D01*
X499200Y290950D02*
X539200D01*
X441400Y149050D02*
X467400D01*
Y254550D01*
X441400Y149050D02*
Y254550D01*
X467400D01*
X541200Y254550D02*
X567200D01*
X541200Y149050D02*
Y254550D01*
X567200Y149050D02*
Y254550D01*
X541200Y149050D02*
X567200D01*
M02*
