G04*
G04 #@! TF.GenerationSoftware,Altium Limited,Altium Designer,24.0.1 (36)*
G04*
G04 Layer_Color=128*
%FSLAX44Y44*%
%MOMM*%
G71*
G04*
G04 #@! TF.SameCoordinates,5AFC8AEE-83C9-459C-A775-606236EE25F6*
G04*
G04*
G04 #@! TF.FilePolarity,Positive*
G04*
G01*
G75*
%ADD14C,0.1270*%
D14*
X195500Y239600D02*
X205500D01*
X200500Y234600D02*
Y244600D01*
X195500Y265000D02*
X205500D01*
X200500Y260000D02*
Y270000D01*
X195500Y290400D02*
X205500D01*
X200500Y285400D02*
Y295400D01*
X195500Y468200D02*
X205500D01*
X200500Y463200D02*
Y473200D01*
X195500Y493600D02*
X205500D01*
X200500Y488600D02*
Y498600D01*
X54530Y519000D02*
X64530D01*
X59530Y514000D02*
Y524000D01*
X195500Y341200D02*
X205500D01*
X200500Y336200D02*
Y346200D01*
X54530Y595200D02*
X64530D01*
X59530Y590200D02*
Y600200D01*
X54530Y569800D02*
X64530D01*
X59530Y564800D02*
Y574800D01*
X54530Y544400D02*
X64530D01*
X59530Y539400D02*
Y549400D01*
X54530Y493600D02*
X64530D01*
X59530Y488600D02*
Y498600D01*
X54530Y468200D02*
X64530D01*
X59530Y463200D02*
Y473200D01*
X54530Y442800D02*
X64530D01*
X59530Y437800D02*
Y447800D01*
X54530Y417400D02*
X64530D01*
X59530Y412400D02*
Y422400D01*
X54530Y392000D02*
X64530D01*
X59530Y387000D02*
Y397000D01*
X54530Y366600D02*
X64530D01*
X59530Y361600D02*
Y371600D01*
X54530Y341200D02*
X64530D01*
X59530Y336200D02*
Y346200D01*
X54530Y315800D02*
X64530D01*
X59530Y310800D02*
Y320800D01*
X54530Y290400D02*
X64530D01*
X59530Y285400D02*
Y295400D01*
X54530Y265000D02*
X64530D01*
X59530Y260000D02*
Y270000D01*
X54530Y239600D02*
X64530D01*
X59530Y234600D02*
Y244600D01*
X195500Y595200D02*
X205500D01*
X200500Y590200D02*
Y600200D01*
X195500Y569800D02*
X205500D01*
X200500Y564800D02*
Y574800D01*
X195500Y544400D02*
X205500D01*
X200500Y539400D02*
Y549400D01*
X195500Y519000D02*
X205500D01*
X200500Y514000D02*
Y524000D01*
X195500Y442800D02*
X205500D01*
X200500Y437800D02*
Y447800D01*
X195500Y417400D02*
X205500D01*
X200500Y412400D02*
Y422400D01*
X195500Y392000D02*
X205500D01*
X200500Y387000D02*
Y397000D01*
X195500Y366600D02*
X205500D01*
X200500Y361600D02*
Y371600D01*
X195500Y315800D02*
X205500D01*
X200500Y310800D02*
Y320800D01*
X81328Y197400D02*
X99362D01*
X90345Y188383D02*
Y206417D01*
X75345Y69400D02*
X105345D01*
X90345Y54400D02*
Y84400D01*
X81328Y142400D02*
X99362D01*
X90345Y133383D02*
Y151417D01*
X6900Y581700D02*
X38900D01*
X22900Y565700D02*
Y597700D01*
X222000Y60700D02*
X232000D01*
X227000Y55700D02*
Y65700D01*
X196600Y60700D02*
X206600D01*
X201600Y55700D02*
Y65700D01*
X171200Y60700D02*
X181200D01*
X176200Y55700D02*
Y65700D01*
X582050Y419500D02*
X612550D01*
X597300Y404250D02*
Y434750D01*
X460050Y398500D02*
X478550D01*
X469300Y389250D02*
Y407750D01*
X460050Y440500D02*
X478550D01*
X469300Y431250D02*
Y449750D01*
X515050Y398500D02*
X533550D01*
X524300Y389250D02*
Y407750D01*
X515050Y440500D02*
X533550D01*
X524300Y431250D02*
Y449750D01*
X360050Y156800D02*
X368550D01*
X364300Y152550D02*
Y161050D01*
X360050Y246800D02*
X368550D01*
X364300Y242550D02*
Y251050D01*
X626800Y38400D02*
X658800D01*
X642800Y22400D02*
Y54400D01*
X629100Y582000D02*
X661100D01*
X645100Y566000D02*
Y598000D01*
X472100Y93300D02*
X486100D01*
X479100Y86300D02*
Y100300D01*
X472100Y51300D02*
X486100D01*
X479100Y44300D02*
Y58300D01*
X417100Y93300D02*
X431100D01*
X424100Y86300D02*
Y100300D01*
X417100Y51300D02*
X431100D01*
X424100Y44300D02*
Y58300D01*
X450150Y156800D02*
X458650D01*
X454400Y152550D02*
Y161050D01*
X450150Y246800D02*
X458650D01*
X454400Y242550D02*
Y251050D01*
X549949Y156800D02*
X558450D01*
X554199Y152550D02*
Y161050D01*
X549949Y246800D02*
X558450D01*
X554199Y242550D02*
Y251050D01*
X7000Y32300D02*
X39000D01*
X23000Y16300D02*
Y48300D01*
X290576Y519400D02*
X293624D01*
X292100Y517876D02*
Y520924D01*
X221476Y518900D02*
X224524D01*
X223000Y517376D02*
Y520424D01*
X422276Y444000D02*
X425324D01*
X423800Y442476D02*
Y445524D01*
X508176Y338315D02*
X511224D01*
X509700Y336791D02*
Y339839D01*
X408376Y338315D02*
X411424D01*
X409900Y336791D02*
Y339839D01*
X249962Y472168D02*
X253010D01*
X251486Y470644D02*
Y473692D01*
X326676Y417200D02*
X329724D01*
X328200Y415676D02*
Y418724D01*
X329476Y406400D02*
X332524D01*
X331000Y404876D02*
Y407924D01*
X310976Y388400D02*
X314024D01*
X312500Y386876D02*
Y389924D01*
X298176Y401600D02*
X301224D01*
X299700Y400076D02*
Y403124D01*
X390461Y399014D02*
X393509D01*
X391985Y397490D02*
Y400538D01*
X318141Y338315D02*
X321189D01*
X319665Y336791D02*
Y339839D01*
X286240Y399011D02*
X289288D01*
X287764Y397487D02*
Y400535D01*
X304668Y395746D02*
X307716D01*
X306192Y394222D02*
Y397270D01*
X443876Y463600D02*
X446924D01*
X445400Y462076D02*
Y465124D01*
X401076Y497100D02*
X404124D01*
X402600Y495576D02*
Y498624D01*
X392539Y478717D02*
X395587D01*
X394063Y477193D02*
Y480241D01*
X443876Y420817D02*
X446924D01*
X445400Y419293D02*
Y422341D01*
X326686Y427307D02*
X329734D01*
X328210Y425783D02*
Y428831D01*
X325876Y436200D02*
X328924D01*
X327400Y434676D02*
Y437724D01*
X256176Y452900D02*
X259224D01*
X257700Y451376D02*
Y454424D01*
X274705Y444391D02*
X277753D01*
X276229Y442867D02*
Y445915D01*
X269973Y452900D02*
X273021D01*
X271497Y451376D02*
Y454424D01*
X346876Y472000D02*
X349924D01*
X348400Y470476D02*
Y473524D01*
X205776Y12300D02*
X208824D01*
X207300Y10776D02*
Y13824D01*
X205776Y21100D02*
X208824D01*
X207300Y19576D02*
Y22624D01*
X205776Y30600D02*
X208824D01*
X207300Y29076D02*
Y32124D01*
M02*
