G04*
G04 #@! TF.GenerationSoftware,Altium Limited,Altium Designer,23.6.0 (18)*
G04*
G04 Layer_Physical_Order=1*
G04 Layer_Color=255*
%FSLAX44Y44*%
%MOMM*%
G71*
G04*
G04 #@! TF.SameCoordinates,002E3AE9-4B00-44C7-B55F-2903AD9EE070*
G04*
G04*
G04 #@! TF.FilePolarity,Positive*
G04*
G01*
G75*
%ADD14C,0.2540*%
%ADD18R,1.9000X0.4800*%
%ADD19R,0.6096X0.7874*%
%ADD20R,1.1500X1.4000*%
%ADD21R,0.7874X0.6096*%
%ADD22R,0.5588X1.3208*%
%ADD24R,0.8020X0.9720*%
%ADD25R,0.9800X0.8700*%
%ADD26R,1.1051X1.0062*%
%ADD35C,1.4140*%
%ADD36R,1.4140X1.4140*%
%ADD40R,2.1500X2.1500*%
%ADD41C,2.1500*%
%ADD47R,1.1000X0.6500*%
%ADD48C,0.5080*%
%ADD49C,1.0000*%
%ADD50C,1.0000*%
%ADD51O,3.7000X5.7000*%
%ADD52C,3.5560*%
%ADD53C,2.0320*%
%ADD54C,3.0500*%
%ADD55C,2.7750*%
%ADD56R,2.7750X2.7750*%
%ADD57C,1.5080*%
%ADD58R,1.5080X1.5080*%
%ADD59R,1.3500X1.3500*%
%ADD60C,1.3500*%
%ADD61C,0.6096*%
G36*
X549868Y359331D02*
Y351900D01*
X505163D01*
X505235Y351726D01*
X488959Y335527D01*
Y314870D01*
X472472D01*
Y351900D01*
X416363D01*
X416435Y351726D01*
X400159Y335527D01*
Y314870D01*
X383672D01*
Y351900D01*
X325654D01*
X310359Y336677D01*
Y316020D01*
X294204D01*
Y323950D01*
X294275Y324120D01*
Y350275D01*
X293872Y351247D01*
Y354761D01*
X293911Y354772D01*
X294037Y361437D01*
X299800Y367200D01*
X542805Y367210D01*
X549868Y359331D01*
D02*
G37*
G36*
X315670Y299110D02*
Y291494D01*
X312365D01*
X301048Y297349D01*
X294204D01*
Y303915D01*
X305048D01*
X315670Y299110D01*
D02*
G37*
G36*
X494270Y297960D02*
Y290345D01*
X490965D01*
X479648Y296200D01*
X472732D01*
Y302765D01*
X483648D01*
X494270Y297960D01*
D02*
G37*
G36*
X405470Y297960D02*
Y290345D01*
X402165D01*
X390848Y296200D01*
X383932D01*
Y302765D01*
X394848D01*
X405470Y297960D01*
D02*
G37*
G36*
X471097Y314870D02*
X471430Y314067D01*
Y313930D01*
X471487D01*
X471500Y313898D01*
X471935Y313718D01*
Y303970D01*
X471430D01*
Y302941D01*
X471357Y302765D01*
Y296200D01*
X471430Y296024D01*
Y294930D01*
X472478D01*
X472732Y294825D01*
X473170D01*
X479492Y288809D01*
X496235D01*
Y278700D01*
X465894D01*
X461414Y282952D01*
Y305500D01*
X460235Y306849D01*
X454713D01*
Y313352D01*
X460235D01*
X460741Y313930D01*
X460970D01*
Y314192D01*
X461414Y314700D01*
Y324500D01*
X453217Y332697D01*
X452970Y343933D01*
X459311Y350275D01*
X471097D01*
Y314870D01*
D02*
G37*
G36*
X382297Y314870D02*
X382630Y314068D01*
Y313930D01*
X382687D01*
X382700Y313898D01*
X383135Y313718D01*
Y303970D01*
X382630D01*
Y302940D01*
X382557Y302765D01*
Y296200D01*
X382630Y296024D01*
Y294930D01*
X383678D01*
X383932Y294825D01*
X384370D01*
X390692Y288809D01*
X407435D01*
Y278700D01*
X377094D01*
X372614Y282952D01*
Y305500D01*
X371435Y306849D01*
X365913D01*
Y313352D01*
X371435D01*
X371940Y313930D01*
X372170D01*
Y314192D01*
X372614Y314700D01*
Y324500D01*
X364417Y332697D01*
X364170Y343933D01*
X370511Y350275D01*
X382297D01*
Y314870D01*
D02*
G37*
G36*
X292900Y324120D02*
X292830D01*
Y315080D01*
X292900D01*
Y305120D01*
X292830D01*
Y296080D01*
X292900D01*
Y296000D01*
X300457Y288809D01*
X317200D01*
Y278700D01*
X286859D01*
X282379Y282952D01*
Y305500D01*
X281200Y306849D01*
X275678D01*
Y313352D01*
X281200D01*
X282379Y314700D01*
Y324500D01*
X274182Y332697D01*
X273935Y343933D01*
X280276Y350275D01*
X292900D01*
Y324120D01*
D02*
G37*
G36*
X336400Y278200D02*
X325900D01*
Y299759D01*
X336400D01*
Y278200D01*
D02*
G37*
G36*
X515000Y277050D02*
X504500D01*
Y298609D01*
X515000D01*
Y277050D01*
D02*
G37*
G36*
X426200Y277050D02*
X415700D01*
Y298609D01*
X426200D01*
Y277050D01*
D02*
G37*
G36*
X131670Y218758D02*
X140322Y207424D01*
X139994Y175600D01*
X63400D01*
Y217902D01*
X64298Y218799D01*
X131670Y218758D01*
D02*
G37*
G36*
X187708Y126737D02*
Y20300D01*
X153321D01*
X115700Y50056D01*
Y171900D01*
X139900D01*
X187708Y126737D01*
D02*
G37*
G36*
X224357Y20000D02*
X189601D01*
Y48200D01*
X224357D01*
Y20000D01*
D02*
G37*
G36*
X369720Y73643D02*
Y42120D01*
X347300Y19700D01*
X227100D01*
X226203Y20600D01*
X226325Y51423D01*
X218917Y54125D01*
Y78000D01*
X233800Y88681D01*
X350366D01*
X369720Y73643D01*
D02*
G37*
D14*
X380600Y505167D02*
X389583Y514150D01*
X365867Y490247D02*
X376947D01*
X383017Y488414D02*
X385103D01*
X376947Y490247D02*
X380600Y493900D01*
Y505167D01*
X364937Y489317D02*
X365867Y490247D01*
X427958Y508205D02*
X432905D01*
X433200Y508500D01*
X427471Y507718D02*
X427958Y508205D01*
X408091Y490891D02*
X425121D01*
X405583Y493400D02*
X408091Y490891D01*
X404220Y62681D02*
X407848Y66309D01*
X454200Y234700D02*
Y299357D01*
X426790Y207290D02*
X454200Y234700D01*
X362910Y495644D02*
X363083Y495817D01*
X349044Y495644D02*
X362910D01*
X348871Y495471D02*
X349044Y495644D01*
X493792Y414408D02*
X493900Y414300D01*
X493792Y414408D02*
Y426942D01*
X493683Y427050D02*
X493792Y426942D01*
X474673Y488000D02*
Y545223D01*
X463731Y468204D02*
X484183Y447751D01*
X482659Y452867D02*
X484183Y451343D01*
X425725Y468204D02*
X463731D01*
X484183Y450926D02*
Y451343D01*
X403441Y468204D02*
X425725D01*
X484183Y454736D02*
Y473173D01*
X516673Y488000D02*
Y545223D01*
X503183Y450926D02*
Y475183D01*
X516000Y488000D01*
X474000Y483356D02*
Y488000D01*
Y483356D02*
X484183Y473173D01*
X364937Y450317D02*
X365371Y450751D01*
X425291D01*
X425725Y451186D02*
X453509D01*
X425291Y450751D02*
X425725Y451186D01*
X453509D02*
X462913Y441782D01*
X488030D01*
X497174Y450926D01*
X503183D01*
X364937Y456817D02*
X392054D01*
X403441Y468204D01*
X188300Y244533D02*
Y449600D01*
X210800Y472100D01*
X188300Y244533D02*
X225543Y207290D01*
X192900Y428800D02*
X210800Y446700D01*
X196710Y246900D02*
Y381810D01*
X192900Y245322D02*
X227122Y211100D01*
X196710Y381810D02*
X210800Y395900D01*
X192900Y245322D02*
Y428800D01*
X196710Y246900D02*
X204810Y238800D01*
X275600Y284100D02*
Y300600D01*
X204810Y238800D02*
X230300D01*
X275600Y284100D01*
X225543Y207290D02*
X426790D01*
X227122Y211100D02*
X322600D01*
X365400Y253900D01*
X253599Y495243D02*
X260634D01*
X260691Y495300D01*
X389583Y492894D02*
Y493400D01*
X385103Y488414D02*
X389583Y492894D01*
X406046Y515863D02*
X406509Y516326D01*
Y535300D02*
Y537300D01*
Y516326D02*
Y535300D01*
X405583Y515400D02*
X406046Y515863D01*
X406509Y537300D02*
X406584Y537375D01*
Y542594D01*
X406659Y542669D01*
X389491Y515492D02*
Y537300D01*
Y515492D02*
X389583Y515400D01*
X396250Y482817D02*
X406824Y493391D01*
X364937Y482817D02*
X396250D01*
X389583Y514150D02*
Y515400D01*
X211510Y589490D02*
X284953Y516047D01*
X206820Y589490D02*
X211510D01*
X294107Y516047D02*
X294837Y515317D01*
X284953Y516047D02*
X294107D01*
X201190Y595119D02*
X206510Y589800D01*
X206510D02*
X206820Y589490D01*
X206510Y589800D02*
X206510D01*
X269100Y548300D02*
X293643D01*
X210800Y598354D02*
X287337Y521817D01*
X210800Y370500D02*
X243500D01*
X294700Y421700D01*
X266500Y344612D02*
X313542Y391654D01*
Y420400D01*
X327362Y436160D02*
X353790Y462587D01*
X364207D02*
X364937Y463317D01*
X353790Y462587D02*
X364207D01*
X351290Y469087D02*
X364207D01*
X327296Y445093D02*
X351290Y469087D01*
X304400Y387900D02*
Y421100D01*
X210800Y294300D02*
X304400Y387900D01*
X327258Y454000D02*
X349576Y476317D01*
X364937D01*
X327258Y481761D02*
X347815Y502317D01*
X327258Y464200D02*
Y481761D01*
X210800Y421300D02*
X211350Y421850D01*
X284650D02*
X285200Y422400D01*
X211350Y421850D02*
X284650D01*
X266500Y324600D02*
Y344612D01*
X210800Y268900D02*
X266500Y324600D01*
X364207Y469087D02*
X364937Y469817D01*
X201190Y595119D02*
Y614890D01*
X333126Y508817D02*
X364937D01*
X293643Y548300D02*
X333126Y508817D01*
X210800Y598354D02*
Y599100D01*
X287337Y521817D02*
X294837D01*
X72500Y638600D02*
X217600D01*
X334383Y521817D01*
X364207Y522547D02*
X364937Y521817D01*
X356653Y522547D02*
X364207D01*
X335495Y515317D02*
X364937D01*
X214781Y634110D02*
X216702D01*
X335495Y515317D01*
X334383Y521817D02*
X364937D01*
X201190Y614890D02*
X210800Y624500D01*
X275683Y508817D02*
X294837D01*
X210800Y573700D02*
X275683Y508817D01*
X347815Y502317D02*
X364937D01*
X231383D02*
X294837D01*
X210800Y522900D02*
X231383Y502317D01*
X232401Y475900D02*
X257700D01*
X210800Y497500D02*
X232401Y475900D01*
X144210Y634110D02*
X206819D01*
X206820Y634110D02*
X214781D01*
X206819Y634110D02*
X206820Y634110D01*
X58400Y548300D02*
X144210Y634110D01*
X214781Y634110D02*
X214781Y634110D01*
X58400Y624500D02*
X72500Y638600D01*
X271497Y475900D02*
X272177Y475219D01*
X276416Y454284D02*
Y460633D01*
X272177Y475219D02*
X278219D01*
X269817Y482817D02*
X294837D01*
X280383Y450317D02*
X294837D01*
X294612Y470043D02*
X294837Y469817D01*
X283396Y470043D02*
X294612D01*
X278219Y475219D02*
X283396Y470043D01*
X276416Y454284D02*
X280383Y450317D01*
X264400Y444414D02*
X271497Y437317D01*
X294837D01*
X264400Y477400D02*
X269817Y482817D01*
X276229Y460820D02*
Y467391D01*
Y460820D02*
X276416Y460633D01*
X264400Y444414D02*
Y477400D01*
X294837Y463317D02*
X295567Y464047D01*
X294837Y489317D02*
X295567Y488587D01*
Y464047D02*
X305389D01*
X306877Y465535D01*
Y487099D01*
X305389Y488587D02*
X306877Y487099D01*
X295567Y488587D02*
X305389D01*
X342664Y418848D02*
X347934D01*
X275600Y310100D02*
X275639Y310139D01*
X365400Y253900D02*
Y299450D01*
X322300Y265650D02*
X322600Y265950D01*
D18*
X294837Y515317D02*
D03*
Y469817D02*
D03*
Y521817D02*
D03*
Y495817D02*
D03*
X364937Y476317D02*
D03*
Y437317D02*
D03*
X294837Y443817D02*
D03*
Y502317D02*
D03*
X364937Y443817D02*
D03*
Y521817D02*
D03*
X294837Y463317D02*
D03*
X364937Y469817D02*
D03*
Y508817D02*
D03*
X294837Y437317D02*
D03*
Y482817D02*
D03*
Y476317D02*
D03*
X364937Y495817D02*
D03*
X294837Y450317D02*
D03*
X364937Y456817D02*
D03*
Y463317D02*
D03*
Y515317D02*
D03*
Y482817D02*
D03*
Y489317D02*
D03*
X294837Y456817D02*
D03*
Y508817D02*
D03*
X364937Y502317D02*
D03*
Y450317D02*
D03*
X294837Y489317D02*
D03*
D19*
X349208Y418602D02*
D03*
X366226D02*
D03*
X491291Y294150D02*
D03*
X508309D02*
D03*
X466591Y343521D02*
D03*
X483609D02*
D03*
X466591Y333050D02*
D03*
X483609D02*
D03*
X406509Y535300D02*
D03*
X389491D02*
D03*
X277709Y495300D02*
D03*
X260691D02*
D03*
X211791Y191600D02*
D03*
X228809D02*
D03*
X377791Y333050D02*
D03*
Y343521D02*
D03*
X394809Y333050D02*
D03*
Y343521D02*
D03*
X305009Y344671D02*
D03*
X287991D02*
D03*
Y334200D02*
D03*
X305009D02*
D03*
X312691Y295300D02*
D03*
X329709D02*
D03*
X419509Y294150D02*
D03*
X402491D02*
D03*
D20*
X405583Y493400D02*
D03*
Y515400D02*
D03*
X389583D02*
D03*
Y493400D02*
D03*
D21*
X425291Y490891D02*
D03*
Y507909D02*
D03*
X425725Y468204D02*
D03*
Y451186D02*
D03*
X276416Y460633D02*
D03*
Y443615D02*
D03*
X38100Y161291D02*
D03*
Y178309D02*
D03*
D22*
X493683Y427050D02*
D03*
X484183Y450926D02*
D03*
X503183D02*
D03*
D24*
X501200Y264800D02*
D03*
X510700Y282500D02*
D03*
X491700D02*
D03*
X322600Y265950D02*
D03*
X332100Y283650D02*
D03*
X313100D02*
D03*
X402900Y282500D02*
D03*
X421900D02*
D03*
X412400Y264800D02*
D03*
D25*
X130763Y165700D02*
D03*
Y181700D02*
D03*
D26*
X195665Y35600D02*
D03*
X181654D02*
D03*
X232000D02*
D03*
X217989D02*
D03*
D35*
X210800Y472100D02*
D03*
Y497500D02*
D03*
Y522900D02*
D03*
Y548300D02*
D03*
Y599100D02*
D03*
Y624500D02*
D03*
X58400D02*
D03*
X210800Y573700D02*
D03*
X58400Y345100D02*
D03*
Y268900D02*
D03*
Y294300D02*
D03*
Y319700D02*
D03*
Y370500D02*
D03*
Y395900D02*
D03*
Y421300D02*
D03*
Y446700D02*
D03*
Y472100D02*
D03*
Y497500D02*
D03*
Y522900D02*
D03*
Y548300D02*
D03*
Y573700D02*
D03*
Y599100D02*
D03*
X210800Y446700D02*
D03*
Y421300D02*
D03*
Y395900D02*
D03*
Y370500D02*
D03*
Y345100D02*
D03*
Y319700D02*
D03*
Y294300D02*
D03*
D36*
Y268900D02*
D03*
D40*
X349220Y67681D02*
D03*
D41*
Y109681D02*
D03*
X404220Y67681D02*
D03*
Y109681D02*
D03*
D47*
X454200Y318450D02*
D03*
Y308950D02*
D03*
Y299450D02*
D03*
X478200D02*
D03*
Y318450D02*
D03*
X275600Y319600D02*
D03*
Y310100D02*
D03*
Y300600D02*
D03*
X299600D02*
D03*
Y319600D02*
D03*
X389400Y318450D02*
D03*
Y299450D02*
D03*
X365400D02*
D03*
Y308950D02*
D03*
Y318450D02*
D03*
D48*
X365991Y360709D02*
Y436264D01*
X320400Y356300D02*
Y430938D01*
Y483800D01*
X307661Y443677D02*
X320400Y430938D01*
X294977Y443677D02*
X307661D01*
X294837Y443817D02*
X294977Y443677D01*
Y495677D02*
X308523D01*
X320400Y483800D01*
X365991Y360709D02*
X369700Y357000D01*
X278086Y495677D02*
X294697D01*
X277709Y495300D02*
X278086Y495677D01*
X276618Y443817D02*
X294837D01*
D49*
X228809Y66700D02*
Y191600D01*
X229300Y65325D02*
Y66700D01*
X500600Y44200D02*
X544900Y88500D01*
X354300Y44200D02*
X500600Y44200D01*
X349220Y67681D02*
Y67681D01*
X544900Y88500D02*
Y352900D01*
X349220Y67681D02*
X354970Y61931D01*
X354970D01*
X407848Y66309D02*
X498339Y156800D01*
X404220Y148620D02*
X412400Y156800D01*
X404220Y104681D02*
Y148620D01*
X322300Y131601D02*
Y156800D01*
Y131601D02*
X349220Y104681D01*
X58400Y345100D02*
X212191Y191309D01*
D50*
X501200Y246800D02*
Y264800D01*
X38100Y248600D02*
X58400Y268900D01*
X38100Y178309D02*
Y248600D01*
Y113200D02*
X53200Y98100D01*
X38100Y113200D02*
Y161291D01*
X322300Y246800D02*
Y265650D01*
X53200Y98100D02*
X122100D01*
X123200Y99200D02*
X125500D01*
X122100Y98100D02*
X123200Y99200D01*
X412400Y246800D02*
Y264800D01*
D51*
X23000Y652200D02*
D03*
X566300D02*
D03*
X566300Y32300D02*
D03*
X23000D02*
D03*
D52*
X90345Y197400D02*
D03*
Y142400D02*
D03*
D53*
Y69400D02*
D03*
D54*
X495000Y616000D02*
D03*
D55*
X516000Y488000D02*
D03*
X474000D02*
D03*
X516000Y543000D02*
D03*
D56*
X474000D02*
D03*
D57*
X229300Y66700D02*
D03*
X203900D02*
D03*
D58*
X178500D02*
D03*
D59*
X501200Y246800D02*
D03*
X322300D02*
D03*
X412400D02*
D03*
D60*
X501200Y156800D02*
D03*
X322300D02*
D03*
X412400D02*
D03*
D61*
X383017Y488414D02*
D03*
X433200Y508500D02*
D03*
X456700Y338315D02*
D03*
X348871Y495471D02*
D03*
X493900Y414300D02*
D03*
X253599Y495243D02*
D03*
X406659Y542669D02*
D03*
X269100Y548300D02*
D03*
X313542Y420400D02*
D03*
X327362Y436160D02*
D03*
X327296Y445093D02*
D03*
X304400Y421100D02*
D03*
X327258Y454000D02*
D03*
X294700Y421700D02*
D03*
X327258Y464200D02*
D03*
X285200Y422400D02*
D03*
X277665Y338315D02*
D03*
X271497Y475900D02*
D03*
X276229Y467391D02*
D03*
X257700Y475900D02*
D03*
X342664Y418848D02*
D03*
X207300Y43600D02*
D03*
Y34100D02*
D03*
Y25300D02*
D03*
X367900Y338315D02*
D03*
M02*
