M48
;Layer_Color=9474304
;FILE_FORMAT=4:4
METRIC,LZ
;TYPE=PLATED
T1F00S00C0.3048
T2F00S00C0.8500
T3F00S00C0.9140
T4F00S00C1.0000
T5F00S00C1.4000
T6F00S00C1.8034
T7F00S00C1.8500
;TYPE=NON_PLATED
T9F00S00C3.0000
T10F00S00C3.0500
%
T01
X002073Y000253
Y000341
Y000436
X00277665Y00338315
X003679
X004567
X004939Y004143
X004332Y005085
X00383017Y00488414
X00348871Y00495471
X00327258Y004642
Y00454
X00327296Y00445093
X00327362Y0043616
X00313542Y004204
X003044Y004211
X002947Y004217
X002852Y004224
X00276229Y00467391
X00271497Y004759
X002577
X00253599Y00495243
X00342664Y00418848
X00406659Y00542669
X002691Y005483
T02
X003223Y001568
Y002468
X004124
X005012
Y001568
X004124
T03
X002108Y002689
Y002943
Y003197
Y003451
Y003705
Y003959
Y004213
Y004467
Y004721
Y004975
Y005229
X000584
Y004975
Y004721
Y004467
Y004213
Y003959
Y003705
Y003451
Y003197
Y002943
Y002689
Y005483
Y005737
Y005991
Y006245
X002108
Y005991
Y005737
Y005483
T04
X001785Y000667
X002039
X002293
T05
X0034922Y00067681
Y00109681
X0040422
Y00067681
T06
X00090345Y001424
Y001974
T07
X00474Y00488
X00516
Y00543
X00474
T09
X00090345Y000694
T10
X00495Y00616
M30
