M48
;Layer_Color=9474304
;FILE_FORMAT=4:4
METRIC,LZ
;TYPE=PLATED
T01F00S00C0.3048
T02F00S00C0.8500
T03F00S00C1.0000
T04F00S00C1.4000
T05F00S00C1.8034
T06F00S00C1.8500
;TYPE=NON_PLATED
T08F00S00C3.0000
T09F00S00C3.0500
%
T01
X002073Y000123
Y000211
Y000306
X00319665Y00338315
X003125Y003884
X00306192Y00395746
X002997Y004016
X00287764Y00399011
X00331Y004064
X003282Y004172
X0032821Y00427307
X003274Y004362
X003484Y00472
X00394063Y00478717
X004026Y004971
X004238Y00444
X004454Y004636
Y00420817
X00391985Y00399014
X004099Y00338315
X005097
X00276229Y00444391
X00271497Y004529
X002577
X00251486Y00472168
X00223Y005189
X002921Y005194
T02
X00554199Y001568
Y002468
X004544Y002468
Y001568
X003643Y001568
Y002468
T03
X001762Y000607
X002016
X00227
X002005Y002396
Y00265
Y002904
Y003158
Y003412
Y003666
Y00392
Y004174
Y004428
Y004682
Y004936
Y00519
X0005953
Y004936
Y004682
Y004428
Y004174
Y00392
Y003666
Y003412
Y003158
Y002904
Y00265
Y002396
Y005444
Y005698
Y005952
X002005
Y005698
Y005444
T04
X004241Y000513
Y000933
X004791
Y000513
T05
X00090345Y001424
Y001974
T06
X004693Y003985
Y004405
X005243
Y003985
T08
X00090345Y000694
T09
X005973Y004195
M30
